SplineFontDB: 3.0
FontName: Sans44Bold
FullName: Sans 44
FamilyName: Sans 44
Weight: Bold
Copyright: Copyright 2002, 2003, 2005, 2008, 2009, 2010, 2012 GNU Freefont contributors.
Version: $Revision: 2261 $
ItalicAngle: 0
UnderlinePosition: -155
UnderlineWidth: 69
Ascent: 800
Descent: 200
InvalidEm: 0
sfntRevision: 0x08d50000
LayerCount: 2
Layer: 0 0 "Back" 1
Layer: 1 0 "Fore" 0
XUID: [1021 422 734233389 11048379]
FSType: 0
OS2Version: 3
OS2_WeightWidthSlopeOnly: 0
OS2_UseTypoMetrics: 1
CreationTime: 1203284335
ModificationTime: 1456938008
PfmFamily: 17
TTFWeight: 600
TTFWidth: 5
LineGap: 100
VLineGap: 0
Panose: 2 11 7 4 2 2 2 2 2 4
OS2TypoAscent: 800
OS2TypoAOffset: 0
OS2TypoDescent: -200
OS2TypoDOffset: 0
OS2TypoLinegap: 100
OS2WinAscent: 900
OS2WinAOffset: 0
OS2WinDescent: 300
OS2WinDOffset: 0
HheadAscent: 900
HheadAOffset: 0
HheadDescent: -200
HheadDOffset: 0
OS2SubXSize: 650
OS2SubYSize: 666
OS2SubXOff: 0
OS2SubYOff: 200
OS2SupXSize: 650
OS2SupYSize: 666
OS2SupXOff: 0
OS2SupYOff: 390
OS2StrikeYSize: 49
OS2StrikeYPos: 258
OS2CapHeight: 729
OS2XHeight: 540
OS2FamilyClass: 2053
OS2Vendor: 'GNU '
OS2CodePages: 600001bf.00000000
OS2UnicodeRanges: e4028eff.4000e1ff.00001020.00000004
Lookup: 6 0 0 "'ccmp' Glyph Composition/Decomposition in Latin lookup 0" { "'ccmp' Glyph Composition/Decomposition in Latin lookup 0 subtable"  } ['ccmp' ('DFLT' <'dflt' > 'latn' <'dflt' > ) ]
Lookup: 1 0 0 "'smcp' Lowercase to Small Capitals in Latin lookup 1" { "'smcp' Lowercase to Small Capitals in Latin lookup 1 subtable"  } ['smcp' ('latn' <'TRK ' > ) ]
Lookup: 1 0 0 "'smcp' Lowercase to Small Capitals in Latin lookup 2" { "'smcp' Lowercase to Small Capitals in Latin lookup 2 subtable"  } ['smcp' ('latn' <'dflt' > ) ]
Lookup: 1 0 0 "'c2sc' Capitals to Small Capitals in Latin lookup 3" { "'c2sc' Capitals to Small Capitals in Latin lookup 3 subtable"  } ['c2sc' ('latn' <'TRK ' > ) ]

StartChar: .notdef
Encoding: 65536 -1 0
Width: 800
Flags: W
LayerCount: 2
Back
Fore
SplineSet
154 441 m 1
 157 667 300 704 397 704 c 0
 544 704 646 610 646 474 c 0
 646 390 619 346 526 280 c 0
 466 238 459 227 459 161 c 1
 335 161 l 1
 335 175 l 2
 335 355 505 351 505 471 c 0
 505 536 460 586 400 586 c 0
 337 586 290 529 290 452 c 2
 290 443 l 1
 290 441 l 1
 154 441 l 1
475 106 m 1
 475 -40 l 1
 325 -40 l 1
 325 106 l 1
 475 106 l 1
35 -139 m 1
 35 800 l 1
 765 800 l 1
 765 -139 l 1
 35 -139 l 1
118 -69 m 1
 682 -69 l 1
 682 730 l 1
 118 730 l 1
 118 -69 l 1
EndSplineSet
EndChar

StartChar: exclam
Encoding: 33 33 4
Width: 333
GlyphClass: 2
Flags: W
LayerCount: 2
Back
Fore
SplineSet
262 726 m 1
 262 516 l 1
 220 207 l 1
 153 207 l 1
 112 516 l 1
 112 726 l 1
 262 726 l 1
262 146 m 1
 262 0 l 1
 112 0 l 1
 112 146 l 1
 262 146 l 1
EndSplineSet
Substitution2: "'locl' Localized Forms lookup 43 subtable" indic_exclam
EndChar

StartChar: quotedbl
Encoding: 34 34 5
Width: 474
GlyphClass: 2
Flags: W
LayerCount: 2
Back
Fore
SplineSet
188 729 m 1
 188 599 l 1
 146 470 l 1
 90 470 l 1
 50 599 l 1
 50 729 l 1
 188 729 l 1
424 729 m 1
 424 599 l 1
 382 470 l 1
 326 470 l 1
 286 599 l 1
 286 729 l 1
 424 729 l 1
EndSplineSet
EndChar

StartChar: numbersign
Encoding: 35 35 6
Width: 556
GlyphClass: 2
Flags: W
LayerCount: 2
Back
Fore
SplineSet
146 -32 m 1
 40 -32 l 1
 80 172 l 1
 3 172 l 1
 3 271 l 1
 100 271 l 1
 130 424 l 1
 31 424 l 1
 31 523 l 1
 150 523 l 1
 184 697 l 1
 289 697 l 1
 255 523 l 1
 358 523 l 1
 392 697 l 1
 497 697 l 1
 463 523 l 1
 553 523 l 1
 553 424 l 1
 444 424 l 1
 413 271 l 1
 513 271 l 1
 513 172 l 1
 394 172 l 1
 354 -32 l 1
 249 -32 l 1
 289 172 l 1
 186 172 l 1
 146 -32 l 1
205 271 m 1
 308 271 l 1
 338 424 l 1
 235 424 l 1
 205 271 l 1
EndSplineSet
EndChar

StartChar: dollar
Encoding: 36 36 7
Width: 556
GlyphClass: 2
Flags: W
LayerCount: 2
Back
Fore
SplineSet
243 -21 m 1
 100 -7 22 79 22 198 c 2
 22 207 l 1
 153 207 l 1
 156 137 187 96 243 86 c 1
 243 299 l 1
 108 330 39 401 39 512 c 0
 39 624 114 697 243 709 c 1
 243 763 l 1
 311 763 l 1
 311 709 l 1
 437 702 515 623 517 498 c 1
 389 498 l 1
 389 504 l 2
 389 562 360 601 311 608 c 1
 311 407 l 1
 466 364 527 305 527 195 c 0
 527 65 446 -6 311 -21 c 1
 311 -126 l 1
 243 -126 l 1
 243 -21 l 1
243 427 m 1
 243 608 l 1
 188 597 162 567 162 516 c 0
 162 472 187 445 243 427 c 1
311 282 m 1
 311 86 l 1
 367 100 395 133 395 183 c 0
 395 231 367 265 311 282 c 1
EndSplineSet
EndChar

StartChar: percent
Encoding: 37 37 8
Width: 889
GlyphClass: 2
Flags: W
LayerCount: 2
Back
Fore
SplineSet
206 701 m 0
 309 701 390 620 390 517 c 0
 390 419 306 337 206 337 c 0
 105 337 22 419 22 519 c 0
 22 619 105 701 206 701 c 0
206 602 m 0
 159 602 121 564 121 519 c 0
 121 473 159 435 206 435 c 0
 252 435 291 473 291 518 c 0
 291 565 253 602 206 602 c 0
606 709 m 1
 682 709 l 1
 287 -20 l 1
 210 -20 l 1
 606 709 l 1
679 352 m 0
 782 352 863 271 863 167 c 0
 863 69 779 -13 679 -13 c 0
 578 -13 495 69 495 170 c 0
 495 270 578 352 679 352 c 0
679 253 m 0
 632 253 594 215 594 169 c 0
 594 123 632 85 679 85 c 0
 725 85 764 123 764 168 c 0
 764 215 726 253 679 253 c 0
EndSplineSet
EndChar

StartChar: ampersand
Encoding: 38 38 9
Width: 722
GlyphClass: 2
Flags: W
LayerCount: 2
Back
Fore
SplineSet
526 373 m 1
 639 373 l 1
 639 357 l 2
 637 281 611 200 571 154 c 1
 694 0 l 1
 533 0 l 1
 487 56 l 1
 406 -5 360 -23 292 -23 c 0
 150 -23 55 63 55 193 c 0
 55 287 95 340 212 401 c 1
 206 409 202 414 200 416 c 2
 172 450 l 2
 144 483 130 519 130 556 c 0
 130 650 212 723 319 723 c 0
 426 723 497 661 497 568 c 0
 497 496 469 453 380 392 c 1
 496 248 l 1
 518 290 526 320 526 363 c 2
 526 373 l 1
278 319 m 1
 231 290 l 2
 204 272 188 243 188 210 c 0
 188 150 240 93 294 93 c 0
 325 93 367 112 414 148 c 1
 278 319 l 1
317 470 m 1
 357 492 377 521 377 556 c 0
 377 593 356 614 320 614 c 0
 286 614 262 594 262 566 c 0
 262 541 267 533 317 470 c 1
EndSplineSet
EndChar

StartChar: quotesingle
Encoding: 39 39 10
Width: 250
GlyphClass: 2
Flags: W
LayerCount: 2
Back
Fore
SplineSet
194 729 m 1
 194 599 l 1
 152 470 l 1
 96 470 l 1
 56 599 l 1
 56 729 l 1
 194 729 l 1
EndSplineSet
EndChar

StartChar: parenleft
Encoding: 40 40 11
Width: 333
GlyphClass: 2
Flags: W
LayerCount: 2
Back
Fore
SplineSet
203 729 m 1
 303 729 l 1
 197 525 163 411 163 265 c 0
 163 118 197 6 303 -200 c 1
 203 -200 l 1
 88 -27 40 111 40 265 c 0
 40 418 88 556 203 729 c 1
EndSplineSet
EndChar

StartChar: parenright
Encoding: 41 41 12
Width: 333
GlyphClass: 2
Flags: W
LayerCount: 2
Back
Fore
SplineSet
122 -200 m 1
 22 -200 l 1
 128 4 162 118 162 264 c 0
 162 411 128 523 22 729 c 1
 122 729 l 1
 237 556 285 418 285 264 c 0
 285 111 237 -27 122 -200 c 1
EndSplineSet
EndChar

StartChar: asterisk
Encoding: 42 42 13
Width: 389
GlyphClass: 2
Flags: W
LayerCount: 2
Back
Fore
SplineSet
132 544 m 1
 23 580 l 1
 45 649 l 1
 154 613 l 1
 154 729 l 1
 226 729 l 1
 226 613 l 1
 335 649 l 1
 357 579 l 1
 248 544 l 1
 315 450 l 1
 257 407 l 1
 190 501 l 1
 123 407 l 1
 65 450 l 1
 132 544 l 1
EndSplineSet
EndChar

StartChar: plus
Encoding: 43 43 14
Width: 584
GlyphClass: 2
Flags: W
LayerCount: 2
Back
Fore
SplineSet
533 291 m 1
 533 172 l 1
 351 172 l 1
 351 -10 l 1
 232 -10 l 1
 232 172 l 1
 50 172 l 1
 50 291 l 1
 232 291 l 1
 232 473 l 1
 351 473 l 1
 351 291 l 1
 533 291 l 1
EndSplineSet
EndChar

StartChar: comma
Encoding: 44 44 15
Width: 250
GlyphClass: 2
Flags: W
LayerCount: 2
Back
Fore
SplineSet
50 146 m 1
 200 146 l 1
 200 9 l 2
 200 -69 186 -157 50 -174 c 1
 50 -118 l 1
 110.458984375 -105.703125 126 -69.982421875 126 0 c 1
 50 0 l 1
 50 146 l 1
EndSplineSet
EndChar

StartChar: hyphen
Encoding: 45 45 16
Width: 333
GlyphClass: 2
Flags: W
LayerCount: 2
Back
Fore
SplineSet
298 342 m 1
 298 207 l 1
 26 207 l 1
 26 342 l 1
 298 342 l 1
EndSplineSet
EndChar

StartChar: period
Encoding: 46 46 17
Width: 250
GlyphClass: 2
Flags: W
LayerCount: 2
Back
Fore
SplineSet
200 146 m 1
 200 0 l 1
 50 0 l 1
 50 146 l 1
 200 146 l 1
EndSplineSet
EndChar

StartChar: slash
Encoding: 47 47 18
Width: 278
GlyphClass: 2
Flags: W
LayerCount: 2
Back
Fore
SplineSet
208 714 m 1
 275 714 l 1
 69 -14 l 1
 2 -14 l 1
 208 714 l 1
EndSplineSet
EndChar

StartChar: zero
Encoding: 48 48 19
Width: 556
GlyphClass: 2
Flags: W
AnchorPoint: "Anchor-6" 274 343 basechar 0
LayerCount: 2
Back
Fore
SplineSet
273 -23 m 0
 78 -23 29 144 29 350 c 0
 29 573.870117188 83.6494140625 724 273 724 c 0
 464.374023438 724 517 571.23828125 517 346 c 0
 517 147 470 -23 273 -23 c 0
377 349 m 0
 377 552.299804688 337 611 273 611 c 0
 201 611 169 552 169 351 c 0
 169 140 208 97 273 97 c 0
 336 97 377 138.299804688 377 349 c 0
EndSplineSet
Substitution2: "'zero' Slashed Zero lookup 14 subtable" zeroslashed
Substitution2: "'pnum' Proportional Numbers lookup 13 subtable" fit.0
EndChar

StartChar: one
Encoding: 49 49 20
Width: 556
GlyphClass: 2
Flags: W
AnchorPoint: "Anchor-6" 291 343 basechar 0
LayerCount: 2
Back
Fore
SplineSet
238 489 m 1
 68 489 l 1
 68 582 l 1
 190 582 263 625 285 709 c 1
 378 709 l 1
 378 0 l 1
 238 0 l 1
 238 489 l 1
EndSplineSet
Substitution2: "'pnum' Proportional Numbers lookup 13 subtable" fit.1
EndChar

StartChar: two
Encoding: 50 50 21
Width: 556
GlyphClass: 2
Flags: W
AnchorPoint: "Anchor-6" 274 343 basechar 0
LayerCount: 2
Back
Fore
SplineSet
515 499 m 0
 515 287 272 252 212 125 c 1
 512 125 l 1
 512 0 l 1
 30 0 l 1
 37 131 75 193 194 276 c 0
 351 386 375 418 375 496 c 0
 375 567 337 610 275 610 c 0
 211 610 174 564 174 485 c 2
 174 462 l 1
 40 462 l 1
 39 473 39 481 39 487 c 0
 39 637 125 724 272 724 c 0
 421 724 515 636 515 499 c 0
EndSplineSet
Substitution2: "'pnum' Proportional Numbers lookup 13 subtable" fit.2
EndChar

StartChar: three
Encoding: 51 51 22
Width: 556
GlyphClass: 2
Flags: W
AnchorPoint: "Anchor-6" 274 343 basechar 0
LayerCount: 2
Back
Fore
SplineSet
38 498 m 2
 38 690 177 724 268 724 c 0
 405 724 493 649 493 531 c 0
 493 466 466 421 400 380 c 1
 480 341 516 287 516 204 c 0
 516 66 419 -23 268 -23 c 0
 123 -23 30 66 29 208 c 1
 165 208 l 1
 169 135 205 97 271 97 c 0
 332 97 376 142 376 204 c 0
 376 256 346 297 299 310 c 0
 275 316 266 317 217 317 c 1
 217 411 l 1
 229 411 l 2
 312 411 353 447 353 518 c 0
 353 577 321 611 265 611 c 0
 186 611 170 562 168 486 c 1
 38 486 l 1
 38 498 l 2
EndSplineSet
Substitution2: "'pnum' Proportional Numbers lookup 13 subtable" fit.3
EndChar

StartChar: four
Encoding: 52 52 23
Width: 556
GlyphClass: 2
Flags: W
AnchorPoint: "Anchor-6" 285 343 basechar 0
LayerCount: 2
Back
Fore
SplineSet
522 273 m 1
 522 157 l 1
 448 157 l 1
 448 0 l 1
 308 0 l 1
 308 157 l 1
 24 157 l 1
 24 275 l 1
 283 709 l 1
 448 709 l 1
 448 273 l 1
 522 273 l 1
308 273 m 1
 308 576 l 1
 123 273 l 1
 308 273 l 1
EndSplineSet
Substitution2: "'pnum' Proportional Numbers lookup 13 subtable" fit.4
EndChar

StartChar: five
Encoding: 53 53 24
Width: 556
GlyphClass: 2
Flags: W
AnchorPoint: "Anchor-6" 274 343 basechar 0
LayerCount: 2
Back
Fore
SplineSet
489 709 m 1
 489 584 l 1
 196 584 l 1
 173 436 l 1
 214 467 249 479 296 479 c 0
 427 479 517 379 517 234 c 0
 517 81 413 -23 261 -23 c 0
 123 -23 29 61 27 185 c 1
 165 185 l 1
 168 128 202 97 263 97 c 0
 333 97 377 148 377 231 c 0
 377 317 334 368 263 368 c 0
 220 368 188 349 173 314 c 1
 47 314 l 1
 110 709 l 1
 489 709 l 1
EndSplineSet
Substitution2: "'pnum' Proportional Numbers lookup 13 subtable" fit.5
EndChar

StartChar: six
Encoding: 54 54 25
Width: 556
GlyphClass: 2
Flags: W
AnchorPoint: "Anchor-6" 286 343 basechar 0
LayerCount: 2
Back
Fore
SplineSet
32 337 m 0
 32 555 94.0009765625 724 294.000976562 724 c 0
 337.000976562 724 481.000976562 716 507.000976562 548 c 1
 377.000976562 548 l 1
 359.000976562 593 335.000976562 611 290.000976562 611 c 0
 192.053710938 611 176.733398438 522.327148438 172 404 c 1
 216 450 255 467 313 467 c 0
 435 467 519 373 519 237 c 0
 519 83 423 -23 282 -23 c 0
 151 -23 32 46 32 337 c 0
279.000976562 357 m 0
 214.000976562 357 170.000976562 303 170.000976562 225 c 0
 170.000976562 150 214.000976562 97 278.000976562 97 c 0
 340.000976562 97 386.000976562 152 386.000976562 228 c 0
 386.000976562 306 344.000976562 357 279.000976562 357 c 0
EndSplineSet
Substitution2: "'pnum' Proportional Numbers lookup 13 subtable" fit.6
EndChar

StartChar: seven
Encoding: 55 55 26
Width: 556
GlyphClass: 2
Flags: W
AnchorPoint: "Anchor-6" 274 343 basechar 0
LayerCount: 2
Back
Fore
SplineSet
528 709 m 1
 528 599 l 1
 360 396 287 224 274 0 c 1
 133 0 l 1
 165.4296875 257.732421875 235 403 382 584 c 1
 29 584 l 1
 29 709 l 1
 528 709 l 1
EndSplineSet
Substitution2: "'pnum' Proportional Numbers lookup 13 subtable" fit.7
EndChar

StartChar: eight
Encoding: 56 56 27
Width: 556
GlyphClass: 2
Flags: W
AnchorPoint: "Anchor-6" 274 343 basechar 0
LayerCount: 2
Back
Fore
SplineSet
501 532 m 0
 501 450 458 412 409 386 c 1
 491 342 525 288 525 204 c 0
 525 70 422 -23 274 -23 c 0
 125 -23 22 70 22 204 c 0
 22 288 56 342 138 386 c 1
 74 420 46 463 46 531 c 0
 46 643 142 724 274 724 c 0
 405 724 501 643 501 532 c 0
275 611 m 0
 212 611 169 573 169 519 c 0
 169 464 213 425 275 425 c 0
 336 425 380 464 380 518 c 0
 380 573 337 611 275 611 c 0
273 330 m 0
 206 330 162 284 162 212 c 0
 162 142 205 97 273 97 c 0
 341 97 385 142 385 210 c 0
 385 284 342 330 273 330 c 0
EndSplineSet
Substitution2: "'pnum' Proportional Numbers lookup 13 subtable" fit.8
EndChar

StartChar: nine
Encoding: 57 57 28
Width: 556
GlyphClass: 2
Flags: W
AnchorPoint: "Anchor-6" 274 343 basechar 0
LayerCount: 2
Back
Fore
SplineSet
516 370 m 0
 516 35 367 -24 255 -24 c 0
 133 -24 41 56 38 165 c 1
 173 165 l 1
 176 123 210 96 259 96 c 0
 338 96 376 163 376 298 c 1
 359 279 327 228 240 228 c 0
 114 228 28 328 28 474 c 0
 28 622 125 724 267 724 c 0
 367 724 516 671 516 370 c 0
263 610 m 0
 201 610 161 558 161 476 c 0
 161 395 201 344 265 344 c 0
 329 344 373 396 373 474 c 0
 373 557 331 610 263 610 c 0
EndSplineSet
Substitution2: "'pnum' Proportional Numbers lookup 13 subtable" fit.9
EndChar

StartChar: colon
Encoding: 58 58 29
Width: 250
GlyphClass: 2
Flags: W
LayerCount: 2
Back
Fore
SplineSet
200 146 m 1
 200 0 l 1
 50 0 l 1
 50 146 l 1
 200 146 l 1
200 520 m 1
 200 374 l 1
 50 374 l 1
 50 520 l 1
 200 520 l 1
EndSplineSet
EndChar

StartChar: semicolon
Encoding: 59 59 30
Width: 250
GlyphClass: 2
Flags: W
LayerCount: 2
Back
Fore
SplineSet
50 146 m 1
 200 146 l 1
 200 9 l 2
 200 -69 186 -157 50 -174 c 1
 50 -118 l 1
 110.458984375 -105.703125 136 -69.982421875 136 0 c 1
 50 0 l 1
 50 146 l 1
200 520 m 1
 200 374 l 1
 50 374 l 1
 50 520 l 1
 200 520 l 1
EndSplineSet
EndChar

StartChar: less
Encoding: 60 60 31
Width: 584
GlyphClass: 2
Flags: W
LayerCount: 2
Back
Fore
SplineSet
529 474 m 1
 529 365 l 1
 147 232 l 1
 529 101 l 1
 529 -10 l 1
 40 172 l 1
 40 293 l 1
 529 474 l 1
EndSplineSet
EndChar

StartChar: equal
Encoding: 61 61 32
Width: 584
GlyphClass: 2
Flags: W
LayerCount: 2
Back
Fore
SplineSet
534 411 m 1
 534 292 l 1
 50 292 l 1
 50 411 l 1
 534 411 l 1
534 171 m 1
 534 52 l 1
 50 52 l 1
 50 171 l 1
 534 171 l 1
EndSplineSet
EndChar

StartChar: greater
Encoding: 62 62 33
Width: 584
GlyphClass: 2
Flags: W
LayerCount: 2
Back
Fore
SplineSet
40 -10 m 1
 40 99 l 1
 422 232 l 1
 40 363 l 1
 40 474 l 1
 529 292 l 1
 529 171 l 1
 40 -10 l 1
EndSplineSet
EndChar

StartChar: question
Encoding: 63 63 34
Width: 611
GlyphClass: 2
Flags: W
LayerCount: 2
Back
Fore
SplineSet
64 481 m 1
 67 707 210 744 307 744 c 0
 454 744 556 650 556 514 c 0
 556 430 529 386 436 320 c 0
 376 278 369 267 369 201 c 1
 245 201 l 1
 245 215 l 2
 245 395 415 391 415 511 c 0
 415 576 370 626 310 626 c 0
 247 626 200 569 200 492 c 2
 200 483 l 1
 200 481 l 1
 64 481 l 1
385 146 m 1
 385 0 l 1
 235 0 l 1
 235 146 l 1
 385 146 l 1
EndSplineSet
Substitution2: "'locl' Localized Forms lookup 43 subtable" indic_question
EndChar

StartChar: at
Encoding: 64 64 35
Width: 975
GlyphClass: 2
Flags: W
LayerCount: 2
Back
Fore
SplineSet
258 227 m 0
 258 289 312 518 514 518 c 0
 570 518 601 496 625 446 c 1
 641 508 l 1
 734 508 l 1
 656 228 l 2
 650.674804688 208.884765625 649 201 649 189 c 0
 649 159 667 142 697 142 c 0
 761 142 852 239 852 370 c 0
 852 524 686 658 511 658 c 0
 300 658 129 458 129 266 c 0
 129 74 308 -55 486 -55 c 0
 558 -55 634 -40 692 -14 c 1
 721 -92 l 1
 651 -124 578 -138 484 -138 c 0
 203 -138 27 42 27 264 c 0
 27 521 253 745 516 745 c 0
 766 745 947 594 947 355 c 0
 947 169 802 56 697 56 c 0
 627 56 585 90 572 129 c 1
 533 82 477 56 422 56 c 0
 331 56 258 132 258 227 c 0
444 140 m 0
 529 140 592 264 592 345 c 0
 592 408 563 444 511 444 c 0
 433 444 362 346 362 244 c 0
 362 184 394 140 444 140 c 0
EndSplineSet
EndChar

StartChar: A
Encoding: 65 65 36
Width: 697
GlyphClass: 2
Flags: W
AnchorPoint: "Anchor-6" 350 258 basechar 0
AnchorPoint: "Anchor-4" 620 0 basechar 0 {150-150 9} {}
AnchorPoint: "Anchor-3" 345 730 basechar 0
AnchorPoint: "Anchor-2" 344 0 basechar 0
LayerCount: 2
Back
Fore
SplineSet
485 147 m 1
 212 147 l 1
 163 0 l 1
 10 0 l 1
 269 729 l 1
 435 729 l 1
 687 0 l 1
 533 0 l 1
 485 147 l 1
444 272 m 1
 349 557 l 1
 254 272 l 1
 444 272 l 1
EndSplineSet
Substitution2: "'c2sc' Capitals to Small Capitals in Latin lookup 4 subtable" sc.a
EndChar

StartChar: B
Encoding: 66 66 37
Width: 704
GlyphClass: 2
Flags: W
AnchorPoint: "Anchor-6" 364 377 basechar 0
AnchorPoint: "Anchor-3" 369 730 basechar 0
AnchorPoint: "Anchor-2" 372 0 basechar 0
LayerCount: 2
Back
Fore
SplineSet
664 210 m 0
 664 123 613 0 408 0 c 2
 80 0 l 1
 80 729 l 1
 405 729 l 2
 597 729 643 604 643 537 c 0
 643 475 615 433 543 387 c 1
 625 339 664 282 664 210 c 0
230 604 m 1
 230 439 l 1
 393 439 l 2
 462 439 499 468 499 521 c 0
 499 575 462 604 393 604 c 2
 230 604 l 1
230 314 m 1
 230 125 l 1
 409 125 l 2
 482 125 520 158 520 219 c 0
 520 281 482 314 409 314 c 2
 230 314 l 1
EndSplineSet
Substitution2: "'c2sc' Capitals to Small Capitals in Latin lookup 4 subtable" sc.b
EndChar

StartChar: C
Encoding: 67 67 38
Width: 721
GlyphClass: 2
Flags: W
AnchorPoint: "Anchor-6" 375 377 basechar 0
AnchorPoint: "Anchor-3" 371 740 basechar 0
AnchorPoint: "Anchor-2" 374 0 basechar 0
LayerCount: 2
Back
Fore
SplineSet
535 482 m 1
 527 519 504 613 379 613 c 0
 261 613 190 517 190 356 c 0
 190 197 258 103 374 103 c 0
 467 103 526 156 535 249 c 1
 681 249 l 1
 672 82 551 -23 370 -23 c 0
 167 -23 40 124 40 358 c 0
 40 594 168 741 374 741 c 0
 544 741 665 646 678 482 c 1
 535 482 l 1
EndSplineSet
Substitution2: "'c2sc' Capitals to Small Capitals in Latin lookup 4 subtable" sc.c
EndChar

StartChar: D
Encoding: 68 68 39
Width: 724
GlyphClass: 2
Flags: W
AnchorPoint: "Anchor-6" 369 377 basechar 0
AnchorPoint: "Anchor-3" 328 730 basechar 0
AnchorPoint: "Anchor-2" 346 0 basechar 0
LayerCount: 2
Back
Fore
SplineSet
80 0 m 1
 80 729 l 1
 365 729 l 2
 477 729 546 704 595 645 c 0
 653 576 684 477 684 365 c 0
 684 252 653 153 595 85 c 0
 546 26 476 0 365 0 c 2
 80 0 l 1
230 125 m 1
 365 125 l 2
 478 125 534 204 534 364 c 0
 534 525 478 604 365 604 c 2
 230 604 l 1
 230 125 l 1
EndSplineSet
Substitution2: "'c2sc' Capitals to Small Capitals in Latin lookup 4 subtable" sc.d
EndChar

StartChar: E
Encoding: 69 69 40
Width: 665
GlyphClass: 2
Flags: W
AnchorPoint: "Anchor-6" 367 377 basechar 0
AnchorPoint: "Anchor-4" 584 0 basechar 0
AnchorPoint: "Anchor-3" 359 730 basechar 0
AnchorPoint: "Anchor-2" 361 0 basechar 0
LayerCount: 2
Back
Fore
SplineSet
230 314 m 1
 230 125 l 1
 625 125 l 1
 625 0 l 1
 80 0 l 1
 80 729 l 1
 607 729 l 1
 607 604 l 1
 230 604 l 1
 230 439 l 1
 579 439 l 1
 579 314 l 1
 230 314 l 1
EndSplineSet
Substitution2: "'c2sc' Capitals to Small Capitals in Latin lookup 4 subtable" sc.e
EndChar

StartChar: F
Encoding: 70 70 41
Width: 632
GlyphClass: 2
Flags: W
AnchorPoint: "Anchor-6" 345 377 basechar 0
AnchorPoint: "Anchor-3" 347 730 basechar 0
AnchorPoint: "Anchor-2" 333 0 basechar 0
LayerCount: 2
Back
Fore
SplineSet
230 314 m 1
 230 0 l 1
 80 0 l 1
 80 729 l 1
 592 729 l 1
 592 604 l 1
 230 604 l 1
 230 439 l 1
 549 439 l 1
 549 314 l 1
 230 314 l 1
EndSplineSet
Substitution2: "'c2sc' Capitals to Small Capitals in Latin lookup 4 subtable" sc.f
EndChar

StartChar: G
Encoding: 71 71 42
Width: 769
GlyphClass: 2
Flags: W
AnchorPoint: "Anchor-6" 385 377 basechar 0
AnchorPoint: "Anchor-3" 395 730 basechar 0
AnchorPoint: "Anchor-2" 385 0 basechar 0
LayerCount: 2
Back
Fore
SplineSet
568 498 m 1
 547 560 498 615 394 615 c 0
 267 615 190 520 190 363 c 0
 190 213 277 107 398 107 c 0
 435 107 570 131 583 269 c 1
 417 269 l 1
 417 394 l 1
 709 394 l 1
 709 0 l 1
 619 0 l 1
 601 96 l 1
 545 14 479 -21 381 -21 c 0
 184 -21 40 140 40 361 c 0
 40 588 183 743 393 743 c 0
 569 743 691 648 709 498 c 1
 568 498 l 1
EndSplineSet
Substitution2: "'c2sc' Capitals to Small Capitals in Latin lookup 4 subtable" sc.g
EndChar

StartChar: H
Encoding: 72 72 43
Width: 749
GlyphClass: 2
Flags: W
AnchorPoint: "Anchor-6" 369 377 basechar 0
AnchorPoint: "Anchor-3" 373 730 basechar 0
AnchorPoint: "Anchor-2" 372 0 basechar 0
LayerCount: 2
Back
Fore
SplineSet
519 331 m 1
 230 331 l 1
 230 0 l 1
 80 0 l 1
 80 729 l 1
 230 729 l 1
 230 456 l 1
 518 456 l 1
 518 729 l 1
 669 729 l 1
 669 0 l 1
 519 0 l 1
 519 331 l 1
EndSplineSet
Substitution2: "'c2sc' Capitals to Small Capitals in Latin lookup 4 subtable" sc.h
EndChar

StartChar: I
Encoding: 73 73 44
Width: 310
GlyphClass: 2
Flags: W
AnchorPoint: "Anchor-6" 161 377 basechar 0
AnchorPoint: "Anchor-4" 197 0 basechar 0
AnchorPoint: "Anchor-3" 164 730 basechar 0
AnchorPoint: "Anchor-2" 159 0 basechar 0
LayerCount: 2
Back
Fore
SplineSet
230 729 m 1
 230 0 l 1
 80 0 l 1
 80 729 l 1
 230 729 l 1
EndSplineSet
Substitution2: "'c2sc' Capitals to Small Capitals in Latin lookup 4 subtable" sc.i
EndChar

StartChar: J
Encoding: 74 74 45
Width: 572
GlyphClass: 2
Flags: W
AnchorPoint: "Anchor-6" 274 377 basechar 0
AnchorPoint: "Anchor-3" 417 730 basechar 0
AnchorPoint: "Anchor-2" 262 0 basechar 0
LayerCount: 2
Back
Fore
SplineSet
258 -23 m 0
 158 -23 30 21 30 198 c 2
 30 270 l 1
 180 270 l 1
 180 200 l 2
 180 133 204 105 261 105 c 0
 313 105 342 135 342 190 c 2
 342 729 l 1
 492 729 l 1
 492 190 l 2
 492 54 407 -23 258 -23 c 0
EndSplineSet
Substitution2: "'c2sc' Capitals to Small Capitals in Latin lookup 4 subtable" sc.j
EndChar

StartChar: K
Encoding: 75 75 46
Width: 728
GlyphClass: 2
Flags: W
AnchorPoint: "Anchor-6" 314 377 basechar 0
AnchorPoint: "Anchor-3" 326 730 basechar 0
AnchorPoint: "Anchor-2" 332 0 basechar 0
LayerCount: 2
Back
Fore
SplineSet
230 244 m 1
 230 0 l 1
 80 0 l 1
 80 729 l 1
 230 729 l 1
 230 409 l 1
 515 729 l 1
 692 729 l 1
 401 415 l 1
 723 0 l 1
 544 0 l 1
 305 322 l 1
 230 244 l 1
EndSplineSet
Substitution2: "'c2sc' Capitals to Small Capitals in Latin lookup 4 subtable" sc.k
EndChar

StartChar: L
Encoding: 76 76 47
Width: 619
GlyphClass: 2
Flags: W
AnchorPoint: "Anchor-6" 313 377 basechar 0
AnchorPoint: "Anchor-3" 320 730 basechar 0
AnchorPoint: "Anchor-2" 319 0 basechar 0
LayerCount: 2
Back
Fore
SplineSet
230 729 m 1
 230 125 l 1
 579 125 l 1
 579 0 l 1
 80 0 l 1
 80 729 l 1
 230 729 l 1
EndSplineSet
Substitution2: "'c2sc' Capitals to Small Capitals in Latin lookup 4 subtable" sc.l
EndChar

StartChar: M
Encoding: 77 77 48
Width: 870
GlyphClass: 2
Flags: W
AnchorPoint: "Anchor-6" 437 377 basechar 0
AnchorPoint: "Anchor-3" 438 730 basechar 0
AnchorPoint: "Anchor-2" 438 0 basechar 0
LayerCount: 2
Back
Fore
SplineSet
230 568 m 1
 230 0 l 1
 80 0 l 1
 80 729 l 1
 304 729 l 1
 436 149 l 1
 564 729 l 1
 790 729 l 1
 790 0 l 1
 640 0 l 1
 640 568 l 1
 511 0 l 1
 361 0 l 1
 230 568 l 1
EndSplineSet
Substitution2: "'c2sc' Capitals to Small Capitals in Latin lookup 4 subtable" sc.m
EndChar

StartChar: N
Encoding: 78 78 49
Width: 753
GlyphClass: 2
Flags: W
AnchorPoint: "Anchor-6" 378 377 basechar 0
AnchorPoint: "Anchor-3" 377 730 basechar 0
AnchorPoint: "Anchor-2" 371 0 basechar 0
LayerCount: 2
Back
Fore
SplineSet
523 0 m 1
 230 504 l 1
 230 0 l 1
 80 0 l 1
 80 729 l 1
 234 729 l 1
 523 233 l 1
 523 729 l 1
 673 729 l 1
 673 0 l 1
 523 0 l 1
EndSplineSet
Substitution2: "'c2sc' Capitals to Small Capitals in Latin lookup 4 subtable" sc.n
EndChar

StartChar: O
Encoding: 79 79 50
Width: 782
GlyphClass: 2
Flags: W
AnchorPoint: "Anchor-6" 388 377 basechar 0
AnchorPoint: "Anchor-4" 463 0 basechar 0
AnchorPoint: "Anchor-3" 391 730 basechar 0
AnchorPoint: "Anchor-2" 394 0 basechar 0
LayerCount: 2
Back
Fore
SplineSet
40 359 m 0
 40 581 178 741 390 741 c 0
 601 741 742 586 742 354 c 0
 742 145 610 -23 391 -23 c 0
 177 -23 40 137 40 359 c 0
391 613 m 0
 270 613 190 512 190 359 c 0
 190 206 270 105 391 105 c 0
 511 105 592 206 592 355 c 0
 592 513 514 613 391 613 c 0
EndSplineSet
Substitution2: "'c2sc' Capitals to Small Capitals in Latin lookup 4 subtable" sc.o
EndChar

StartChar: P
Encoding: 80 80 51
Width: 677
GlyphClass: 2
Flags: W
AnchorPoint: "Anchor-6" 344 377 basechar 0
AnchorPoint: "Anchor-3" 347 730 basechar 0
AnchorPoint: "Anchor-2" 326 0 basechar 0
LayerCount: 2
Back
Fore
SplineSet
230 260 m 1
 230 0 l 1
 80 0 l 1
 80 729 l 1
 402 729 l 2
 554 729 637 649 637 503 c 0
 637 355 551 260 417 260 c 2
 230 260 l 1
230 385 m 1
 370 385 l 2
 450 385 487 420 487 494 c 0
 487 569 450 604 370 604 c 2
 230 604 l 1
 230 385 l 1
EndSplineSet
Substitution2: "'c2sc' Capitals to Small Capitals in Latin lookup 4 subtable" sc.p
EndChar

StartChar: Q
Encoding: 81 81 52
Width: 782
GlyphClass: 2
Flags: W
AnchorPoint: "Anchor-6" 386 377 basechar 0
AnchorPoint: "Anchor-3" 387 730 basechar 0
AnchorPoint: "Anchor-2" 392 0 basechar 0
LayerCount: 2
Back
Fore
SplineSet
391 741 m 0
 608 741 742 575 742 361 c 0
 742 263 711 163 662 103 c 1
 742 27 l 1
 666 -54 l 1
 580 27 l 1
 522 -8 466 -23 391 -23 c 0
 177 -23 40 139 40 359 c 0
 40 579 177 741 391 741 c 0
477 278 m 1
 559 200 l 1
 581 244 592 298 592 358 c 0
 592 513 513 613 391 613 c 0
 270 613 190 512 190 359 c 0
 190 206 270 105 390 105 c 0
 422 105 455 112 478 124 c 1
 401 197 l 1
 477 278 l 1
EndSplineSet
Substitution2: "'c2sc' Capitals to Small Capitals in Latin lookup 4 subtable" sc.q
EndChar

StartChar: R
Encoding: 82 82 53
Width: 722
GlyphClass: 2
Flags: W
AnchorPoint: "Anchor-6" 366 377 basechar 0
AnchorPoint: "Anchor-3" 371 730 basechar 0
AnchorPoint: "Anchor-2" 356 0 basechar 0
LayerCount: 2
Back
Fore
SplineSet
493 125 m 0
 493 179 495 171 495 202 c 0
 495 263 467 289 402 289 c 2
 230 289 l 1
 230 0 l 1
 80 0 l 1
 80 729 l 1
 471 729 l 2
 628 729 667 613 667 532 c 0
 667 443 626 384 544 352 c 1
 637 312 641 302 645 87 c 0
 645 55 654 40 677 27 c 1
 677 0 l 1
 516 0 l 1
 497 35 493 57 493 125 c 0
517 511 m 0
 517 592 474 604 411 604 c 2
 230 604 l 1
 230 414 l 1
 411 414 l 2
 473 414 517 426 517 511 c 0
EndSplineSet
Substitution2: "'c2sc' Capitals to Small Capitals in Latin lookup 4 subtable" sc.r
EndChar

StartChar: S
Encoding: 83 83 54
Width: 681
GlyphClass: 2
Flags: W
AnchorPoint: "Anchor-6" 336 377 basechar 0
AnchorPoint: "Anchor-3" 328 730 basechar 0
AnchorPoint: "Anchor-2" 346 0 basechar 0
LayerCount: 2
Back
Fore
SplineSet
615 507 m 1
 475 507 l 1
 470 581 417 621 322 621 c 0
 245 621 196 586 196 531 c 0
 196 478 227 457 334 436 c 2
 448 414 l 2
 583 388 641 328 641 213 c 0
 641 65 530 -23 342 -23 c 0
 156 -23 49 62 40 218 c 1
 186 218 l 1
 191 140 248 97 350 97 c 0
 441 97 497 134 497 195 c 0
 497 254 460 282 360 301 c 2
 258 321 l 2
 110 349 53 404 53 517 c 0
 53 659 154 741 329 741 c 0
 442 741 615 706 615 507 c 1
EndSplineSet
Substitution2: "'c2sc' Capitals to Small Capitals in Latin lookup 4 subtable" sc.s
EndChar

StartChar: T
Encoding: 84 84 55
Width: 644
GlyphClass: 2
Flags: W
AnchorPoint: "Anchor-6" 325 377 basechar 0
AnchorPoint: "Anchor-3" 328 730 basechar 0
AnchorPoint: "Anchor-2" 325 0 basechar 0
LayerCount: 2
Back
Fore
SplineSet
401 604 m 1
 401 0 l 1
 251 0 l 1
 251 604 l 1
 30 604 l 1
 30 729 l 1
 614 729 l 1
 614 604 l 1
 401 604 l 1
EndSplineSet
Substitution2: "'c2sc' Capitals to Small Capitals in Latin lookup 4 subtable" sc.t
EndChar

StartChar: U
Encoding: 85 85 56
Width: 738
GlyphClass: 2
Flags: W
AnchorPoint: "Anchor-6" 370 377 basechar 0
AnchorPoint: "Anchor-4" 455 0 basechar 0
AnchorPoint: "Anchor-3" 366 730 basechar 0
AnchorPoint: "Anchor-2" 374 0 basechar 0
LayerCount: 2
Back
Fore
SplineSet
369 -23 m 0
 246 -23 80 29 80 235 c 2
 80 729 l 1
 230 729 l 1
 230 235 l 2
 230 147 275 105 369 105 c 0
 463 105 508 147 508 235 c 2
 508 729 l 1
 658 729 l 1
 658 235 l 2
 658 29 492 -23 369 -23 c 0
EndSplineSet
Substitution2: "'c2sc' Capitals to Small Capitals in Latin lookup 4 subtable" sc.u
EndChar

StartChar: V
Encoding: 86 86 57
Width: 663
GlyphClass: 2
Flags: W
AnchorPoint: "Anchor-6" 331 377 basechar 0
AnchorPoint: "Anchor-3" 337 730 basechar 0
AnchorPoint: "Anchor-2" 328 0 basechar 0
LayerCount: 2
Back
Fore
SplineSet
393 0 m 1
 266 0 l 1
 20 729 l 1
 171 729 l 1
 333 180 l 1
 492 729 l 1
 643 729 l 1
 393 0 l 1
EndSplineSet
Substitution2: "'c2sc' Capitals to Small Capitals in Latin lookup 4 subtable" sc.v
EndChar

StartChar: W
Encoding: 87 87 58
Width: 959
GlyphClass: 2
Flags: W
AnchorPoint: "Anchor-6" 477 377 basechar 0
AnchorPoint: "Anchor-3" 475 730 basechar 0
AnchorPoint: "Anchor-2" 479 0 basechar 0
LayerCount: 2
Back
Fore
SplineSet
737 0 m 1
 602 0 l 1
 480 569 l 1
 361 0 l 1
 226 0 l 1
 20 729 l 1
 179 729 l 1
 292 183 l 1
 405 729 l 1
 553 729 l 1
 671 182 l 1
 780 729 l 1
 939 729 l 1
 737 0 l 1
EndSplineSet
Substitution2: "'c2sc' Capitals to Small Capitals in Latin lookup 4 subtable" sc.w
EndChar

StartChar: X
Encoding: 88 88 59
Width: 675
GlyphClass: 2
Flags: W
AnchorPoint: "Anchor-6" 339 377 basechar 0
AnchorPoint: "Anchor-3" 344 730 basechar 0
AnchorPoint: "Anchor-2" 337 0 basechar 0
LayerCount: 2
Back
Fore
SplineSet
419 372 m 1
 653 0 l 1
 475 0 l 1
 335 253 l 1
 196 0 l 1
 22 0 l 1
 252 367 l 1
 30 729 l 1
 208 729 l 1
 336 489 l 1
 470 729 l 1
 644 729 l 1
 419 372 l 1
EndSplineSet
Substitution2: "'c2sc' Capitals to Small Capitals in Latin lookup 4 subtable" sc.x
EndChar

StartChar: Y
Encoding: 89 89 60
Width: 643
GlyphClass: 2
Flags: W
AnchorPoint: "Anchor-6" 324 377 basechar 0
AnchorPoint: "Anchor-4" 370 0 basechar 0
AnchorPoint: "Anchor-3" 325 730 basechar 0
AnchorPoint: "Anchor-2" 330 0 basechar 0
LayerCount: 2
Back
Fore
SplineSet
402 270 m 1
 402 0 l 1
 252 0 l 1
 252 270 l 1
 10 729 l 1
 177 729 l 1
 326 407 l 1
 465 729 l 1
 633 729 l 1
 402 270 l 1
EndSplineSet
Substitution2: "'c2sc' Capitals to Small Capitals in Latin lookup 4 subtable" sc.y
EndChar

StartChar: Z
Encoding: 90 90 61
Width: 608
GlyphClass: 2
Flags: W
AnchorPoint: "Anchor-6" 317 377 basechar 0
AnchorPoint: "Anchor-3" 320 730 basechar 0
AnchorPoint: "Anchor-2" 301 0 basechar 0
LayerCount: 2
Back
Fore
SplineSet
578 729 m 1
 578 604 l 1
 206 125 l 1
 578 125 l 1
 578 0 l 1
 30 0 l 1
 30 125 l 1
 403 604 l 1
 30 604 l 1
 30 729 l 1
 578 729 l 1
EndSplineSet
Substitution2: "'c2sc' Capitals to Small Capitals in Latin lookup 4 subtable" sc.z
EndChar

StartChar: bracketleft
Encoding: 91 91 62
Width: 333
GlyphClass: 2
Flags: W
LayerCount: 2
Back
Fore
SplineSet
308 729 m 1
 308 627 l 1
 196 627 l 1
 196 -98 l 1
 308 -98 l 1
 308 -200 l 1
 66 -200 l 1
 66 729 l 1
 308 729 l 1
EndSplineSet
EndChar

StartChar: backslash
Encoding: 92 92 63
Width: 278
GlyphClass: 2
Flags: W
LayerCount: 2
Back
Fore
SplineSet
55 714 m 1
 289 -14 l 1
 222 -14 l 1
 -12 714 l 1
 55 714 l 1
EndSplineSet
EndChar

StartChar: bracketright
Encoding: 93 93 64
Width: 333
GlyphClass: 2
Flags: W
LayerCount: 2
Back
Fore
SplineSet
18 -200 m 1
 18 -98 l 1
 130 -98 l 1
 130 627 l 1
 18 627 l 1
 18 729 l 1
 260 729 l 1
 260 -200 l 1
 18 -200 l 1
EndSplineSet
EndChar

StartChar: asciicircum
Encoding: 94 94 65
Width: 584
GlyphClass: 2
Flags: W
LayerCount: 2
Back
Fore
SplineSet
522 270 m 1
 409 270 l 1
 288 570 l 1
 173 270 l 1
 61 270 l 1
 226 695 l 1
 351 695 l 1
 522 270 l 1
EndSplineSet
EndChar

StartChar: underscore
Encoding: 95 95 66
Width: 556
GlyphClass: 2
Flags: W
LayerCount: 2
Back
Fore
SplineSet
578 -120 m 1
 578 -200 l 1
 -22 -200 l 1
 -22 -120 l 1
 578 -120 l 1
EndSplineSet
EndChar

StartChar: grave
Encoding: 96 96 67
Width: 250
GlyphClass: 2
Flags: W
LayerCount: 2
Back
Fore
SplineSet
17 757 m 1
 143 757 l 1
 213 607 l 1
 143 607 l 1
 17 757 l 1
EndSplineSet
EndChar

StartChar: a
Encoding: 97 97 68
Width: 566
GlyphClass: 2
Flags: W
AnchorPoint: "Anchor-6" 285 293 basechar 0
AnchorPoint: "Anchor-5" 425 550 basechar 0
AnchorPoint: "Anchor-4" 463 0 basechar 0 {150-150 0} {}
AnchorPoint: "Anchor-3" 286 550 basechar 0
AnchorPoint: "Anchor-2" 266 0 basechar 0
LayerCount: 2
Back
Fore
SplineSet
204 -23 m 0
 106 -23 40 42 40 139 c 0
 40 236 92 291 199 309 c 2
 255 319 l 2
 301 326 367 329 367 382 c 0
 367 418 340 436 286 436 c 0
 217 436 194 418 187 362 c 1
 52 362 l 1
 61 487 137 549 283 549 c 0
 429 549 504 493 504 383 c 2
 504 83 l 2
 504 55 511 40 536 17 c 1
 536 0 l 1
 384 0 l 1
 371 16 368 26 368 54 c 1
 319 3 264 -23 204 -23 c 0
367 217 m 2
 367 255 l 1
 351 247 345 245 308 238 c 2
 260 229 l 2
 202 217 180 197 180 155 c 0
 180 115 209 90 256 90 c 0
 327 90 367 136 367 217 c 2
EndSplineSet
Substitution2: "'smcp' Lowercase to Small Capitals in Latin lookup 2 subtable" sc.a
EndChar

StartChar: b
Encoding: 98 98 69
Width: 621
GlyphClass: 2
Flags: W
AnchorPoint: "Anchor-6" 328 293 basechar 0
AnchorPoint: "Anchor-5" 465 550 basechar 0
AnchorPoint: "Anchor-3" 326 730 basechar 0
AnchorPoint: "Anchor-2" 330 0 basechar 0
LayerCount: 2
Back
Fore
SplineSet
354 549 m 0
 482 549 581 432 581 263 c 0
 581 100 483 -23 354 -23 c 0
 286 -23 239 2 205 55 c 1
 205 0 l 1
 65 0 l 1
 65 729 l 1
 205 729 l 1
 205 470 l 1
 239 524 287 549 354 549 c 0
323 432 m 0
 253 432 205 363 205 265 c 0
 205 162 252 94 323 94 c 0
 392 94 441 164 441 262 c 0
 441 362 392 432 323 432 c 0
EndSplineSet
Substitution2: "'smcp' Lowercase to Small Capitals in Latin lookup 2 subtable" sc.b
EndChar

StartChar: c
Encoding: 99 99 70
Width: 558
GlyphClass: 2
Flags: W
AnchorPoint: "Anchor-6" 292 293 basechar 0
AnchorPoint: "Anchor-5" 425 550 basechar 0
AnchorPoint: "Anchor-3" 295 550 basechar 0
AnchorPoint: "Anchor-2" 295 0 basechar 0
LayerCount: 2
Back
Fore
SplineSet
294 436 m 0
 197 436 180 334 180 259 c 0
 180 154 223 90 294 90 c 0
 348 90 376 117 394 187 c 1
 528 187 l 1
 515 58 424 -23 293 -23 c 0
 133 -23 40 81 40 259 c 0
 40 443 134 549 295 549 c 0
 430 549 518 470 528 338 c 1
 394 338 l 1
 378 409 351 436 294 436 c 0
EndSplineSet
Substitution2: "'smcp' Lowercase to Small Capitals in Latin lookup 2 subtable" sc.c
EndChar

StartChar: d
Encoding: 100 100 71
Width: 621
GlyphClass: 2
Flags: W
AnchorPoint: "Anchor-6" 294 293 basechar 0
AnchorPoint: "Anchor-5" 605 550 basechar 0
AnchorPoint: "Anchor-3" 299 730 basechar 0
AnchorPoint: "Anchor-2" 282 0 basechar 0
LayerCount: 2
Back
Fore
SplineSet
267 -23 m 0
 131 -23 40 104 40 262 c 0
 40 425 138 549 267 549 c 0
 334 549 381 524 416 470 c 1
 416 729 l 1
 556 729 l 1
 556 0 l 1
 416 0 l 1
 416 55 l 1
 381 2 334 -23 267 -23 c 0
298 432 m 0
 228 432 180 362 180 262 c 0
 180 163 228 94 298 94 c 0
 368 94 416 162 416 260 c 0
 416 363 369 432 298 432 c 0
EndSplineSet
Substitution2: "'smcp' Lowercase to Small Capitals in Latin lookup 2 subtable" sc.d
EndChar

StartChar: e
Encoding: 101 101 72
Width: 583
GlyphClass: 2
Flags: W
AnchorPoint: "Anchor-6" 291 293 basechar 0
AnchorPoint: "Anchor-5" 455 550 basechar 0
AnchorPoint: "Anchor-4" 355 0 basechar 0
AnchorPoint: "Anchor-3" 292 550 basechar 0
AnchorPoint: "Anchor-2" 292 0 basechar 0
LayerCount: 2
Back
Fore
SplineSet
290 549 m 0
 398 549 543 489 543 250 c 0
 543 243 543 238 542 226 c 1
 180 226 l 1
 183 153 198 84 292 84 c 0
 343 84 382 109 399 152 c 1
 537 152 l 1
 506 46 408 -23 287 -23 c 0
 134 -23 40 83 40 256 c 0
 40 437 135 549 290 549 c 0
397 319 m 1
 391 398 353 442 288 442 c 0
 226 442 191 401 182 319 c 1
 397 319 l 1
EndSplineSet
Substitution2: "'smcp' Lowercase to Small Capitals in Latin lookup 2 subtable" sc.e
EndChar

StartChar: f
Encoding: 102 102 73
Width: 343
GlyphClass: 2
Flags: W
AnchorPoint: "Anchor-6" 165 293 basechar 0
AnchorPoint: "Anchor-5" 345 550 basechar 0
AnchorPoint: "Anchor-3" 229 730 basechar 0
AnchorPoint: "Anchor-2" 161 0 basechar 0
LayerCount: 2
Back
Fore
SplineSet
313 529 m 1
 313 436 l 1
 230 436 l 1
 230 0 l 1
 90 0 l 1
 90 436 l 1
 14 436 l 1
 14 529 l 1
 90 529 l 1
 90 594 l 2
 90 685 135 729 228 729 c 0
 247 729 282 728 308 726 c 1
 308 621 l 1
 296 623 280 624 268 624 c 0
 242 624 230 610 230 582 c 2
 230 529 l 1
 313 529 l 1
EndSplineSet
Substitution2: "'smcp' Lowercase to Small Capitals in Latin lookup 2 subtable" sc.f
EndChar

StartChar: g
Encoding: 103 103 74
Width: 612
GlyphClass: 2
Flags: W
AnchorPoint: "Anchor-6" 292 293 basechar 0
AnchorPoint: "Anchor-5" 435 550 basechar 0
AnchorPoint: "Anchor-3" 285 550 basechar 0
AnchorPoint: "Anchor-2" 295 -200 basechar 0
LayerCount: 2
Back
Fore
SplineSet
414 540 m 1
 547 540 l 1
 547 -18 l 2
 547 -145 453 -218 290 -218 c 0
 147 -218 53 -159 51 -65 c 1
 196 -65 l 1
 207 -106 242 -128 295 -128 c 0
 365 -128 414 -83 414 -18 c 2
 414 55 l 1
 362 -4 324 -23 261 -23 c 0
 128 -23 40 89 40 257 c 0
 40 424 136 549 264 549 c 0
 326 549 372 521 414 457 c 1
 414 540 l 1
294 432 m 0
 226 432 180 361 180 259 c 0
 180 161 226 94 292 94 c 0
 365 94 416 161 416 259 c 0
 416 359 364 432 294 432 c 0
EndSplineSet
Substitution2: "'smcp' Lowercase to Small Capitals in Latin lookup 2 subtable" sc.g
EndChar

StartChar: h
Encoding: 104 104 75
Width: 604
GlyphClass: 2
Flags: W
AnchorPoint: "Anchor-6" 303 293 basechar 0
AnchorPoint: "Anchor-5" 435 550 basechar 0
AnchorPoint: "Anchor-3" 318 730 basechar 0
AnchorPoint: "Anchor-2" 302 0 basechar 0
LayerCount: 2
Back
Fore
SplineSet
399 330 m 2
 399 388 378 430 313 430 c 0
 250 430 205 386 205 324 c 2
 205 0 l 1
 65 0 l 1
 65 729 l 1
 205 729 l 1
 205 462 l 1
 244 521 294 549 363 549 c 0
 440 549 539 512 539 362 c 2
 539 0 l 1
 399 0 l 1
 399 330 l 2
EndSplineSet
Substitution2: "'smcp' Lowercase to Small Capitals in Latin lookup 2 subtable" sc.h
EndChar

StartChar: i
Encoding: 105 105 76
Width: 280
GlyphClass: 2
Flags: W
AnchorPoint: "Anchor-6" 140 293 basechar 0
AnchorPoint: "Anchor-5" 265 550 basechar 0
AnchorPoint: "Anchor-4" 167 0 basechar 0
AnchorPoint: "Anchor-3" 141 730 basechar 0
AnchorPoint: "Anchor-2" 137 0 basechar 0
LayerCount: 2
Back
Fore
SplineSet
210 540 m 1
 210 0 l 1
 70 0 l 1
 70 540 l 1
 210 540 l 1
210 729 m 1
 210 604 l 1
 70 604 l 1
 70 729 l 1
 210 729 l 1
EndSplineSet
Substitution2: "'smcp' Lowercase to Small Capitals in Latin lookup 2 subtable" sc.i
Substitution2: "'smcp' Lowercase to Small Capitals in Latin lookup 1 subtable" sc.i_dot
EndChar

StartChar: j
Encoding: 106 106 77
Width: 280
GlyphClass: 2
Flags: W
AnchorPoint: "Anchor-6" 138 293 basechar 0
AnchorPoint: "Anchor-5" 265 550 basechar 0
AnchorPoint: "Anchor-3" 142 730 basechar 0
AnchorPoint: "Anchor-2" 119 -200 basechar 0
LayerCount: 2
Back
Fore
SplineSet
210 540 m 1
 210 -94 l 2
 210 -182 174 -218 87 -218 c 0
 67 -218 32 -216 4 -213 c 1
 4 -101 l 1
 14 -104 20 -105 29 -105 c 0
 59 -105 70 -94 70 -63 c 2
 70 540 l 1
 210 540 l 1
210 729 m 1
 210 604 l 1
 70 604 l 1
 70 729 l 1
 210 729 l 1
EndSplineSet
Substitution2: "'smcp' Lowercase to Small Capitals in Latin lookup 2 subtable" sc.j
EndChar

StartChar: k
Encoding: 107 107 78
Width: 564
GlyphClass: 2
Flags: W
AnchorPoint: "Anchor-6" 262 293 basechar 0
AnchorPoint: "Anchor-5" 425 550 basechar 0
AnchorPoint: "Anchor-3" 304 730 basechar 0
AnchorPoint: "Anchor-2" 279 0 basechar 0
LayerCount: 2
Back
Fore
SplineSet
205 330 m 1
 382 540 l 1
 541 540 l 1
 357 336 l 1
 554 0 l 1
 390 0 l 1
 261 238 l 1
 205 177 l 1
 205 0 l 1
 65 0 l 1
 65 729 l 1
 205 729 l 1
 205 330 l 1
EndSplineSet
Substitution2: "'smcp' Lowercase to Small Capitals in Latin lookup 2 subtable" sc.k
EndChar

StartChar: l
Encoding: 108 108 79
Width: 270
GlyphClass: 2
Flags: W
AnchorPoint: "Anchor-6" 136 293 basechar 0
AnchorPoint: "Anchor-5" 265 550 basechar 0
AnchorPoint: "Anchor-3" 141 730 basechar 0
AnchorPoint: "Anchor-2" 132 0 basechar 0
LayerCount: 2
Back
Fore
SplineSet
205 729 m 1
 205 0 l 1
 65 0 l 1
 65 729 l 1
 205 729 l 1
EndSplineSet
Substitution2: "'smcp' Lowercase to Small Capitals in Latin lookup 2 subtable" sc.l
EndChar

StartChar: m
Encoding: 109 109 80
Width: 894
GlyphClass: 2
Flags: W
AnchorPoint: "Anchor-6" 450 293 basechar 0
AnchorPoint: "Anchor-5" 725 550 basechar 0
AnchorPoint: "Anchor-3" 446 550 basechar 0
AnchorPoint: "Anchor-2" 446 0 basechar 0
LayerCount: 2
Back
Fore
SplineSet
65 540 m 1
 204 540 l 1
 204 473 l 1
 250 528 290 549 352 549 c 0
 419 549 473 520 499 469 c 1
 541 525 589 549 657 549 c 0
 765 549 829 487 829 382 c 2
 829 0 l 1
 689 0 l 1
 689 360 l 2
 689 403 660 430 613 430 c 0
 553 430 517 390 517 324 c 2
 517 0 l 1
 377 0 l 1
 377 360 l 2
 377 403 348 430 301 430 c 0
 241 430 205 390 205 324 c 2
 205 0 l 1
 65 0 l 1
 65 540 l 1
EndSplineSet
Substitution2: "'smcp' Lowercase to Small Capitals in Latin lookup 2 subtable" sc.m
EndChar

StartChar: n
Encoding: 110 110 81
Width: 613
GlyphClass: 2
Flags: W
AnchorPoint: "Anchor-6" 309 293 basechar 0
AnchorPoint: "Anchor-5" 445 550 basechar 0
AnchorPoint: "Anchor-3" 335 550 basechar 0
AnchorPoint: "Anchor-2" 304 0 basechar 0
LayerCount: 2
Back
Fore
SplineSet
65 540 m 1
 205 540 l 1
 205 462 l 1
 245 522 294 549 367 549 c 0
 482 549 548 481 548 362 c 2
 548 0 l 1
 408 0 l 1
 408 333 l 2
 408 397 378 430 318 430 c 0
 250 430 205 388 205 324 c 2
 205 0 l 1
 65 0 l 1
 65 540 l 1
EndSplineSet
Substitution2: "'smcp' Lowercase to Small Capitals in Latin lookup 2 subtable" sc.n
EndChar

StartChar: o
Encoding: 111 111 82
Width: 614
GlyphClass: 2
Flags: W
AnchorPoint: "Anchor-6" 305 293 basechar 0
AnchorPoint: "Anchor-5" 455 550 basechar 0
AnchorPoint: "Anchor-4" 384 0 basechar 0
AnchorPoint: "Anchor-3" 310 550 basechar 0
AnchorPoint: "Anchor-2" 312 0 basechar 0
LayerCount: 2
Back
Fore
SplineSet
306 549 m 0
 475 549 574 442 574 259 c 0
 574 86 471 -23 307 -23 c 0
 141 -23 40 85 40 263 c 0
 40 440 141 549 306 549 c 0
307 436 m 0
 231 436 180 366 180 263 c 0
 180 160 231 90 307 90 c 0
 382 90 434 160 434 261 c 0
 434 367 384 436 307 436 c 0
EndSplineSet
Substitution2: "'smcp' Lowercase to Small Capitals in Latin lookup 2 subtable" sc.o
EndChar

StartChar: p
Encoding: 112 112 83
Width: 621
GlyphClass: 2
Flags: W
AnchorPoint: "Anchor-6" 322 293 basechar 0
AnchorPoint: "Anchor-5" 465 550 basechar 0
AnchorPoint: "Anchor-3" 321 550 basechar 0
AnchorPoint: "Anchor-2" 362 -200 basechar 0
LayerCount: 2
Back
Fore
SplineSet
355 549 m 0
 495 549 581 421 581 262 c 0
 581 98 485 -24 355 -24 c 0
 287 -24 239 4 205 64 c 1
 205 -218 l 1
 65 -218 l 1
 65 540 l 1
 205 540 l 1
 205 460 l 1
 239 520 287 549 355 549 c 0
323 432 m 0
 253 432 205 363 205 262 c 0
 205 161 253 93 323 93 c 0
 392 93 441 162 441 260 c 0
 441 363 394 432 323 432 c 0
EndSplineSet
Substitution2: "'smcp' Lowercase to Small Capitals in Latin lookup 2 subtable" sc.p
EndChar

StartChar: q
Encoding: 113 113 84
Width: 621
GlyphClass: 2
Flags: W
AnchorPoint: "Anchor-6" 285 293 basechar 0
AnchorPoint: "Anchor-5" 445 550 basechar 0
AnchorPoint: "Anchor-3" 278 550 basechar 0
AnchorPoint: "Anchor-2" 301 -200 basechar 0
LayerCount: 2
Back
Fore
SplineSet
265 -24 m 0
 130 -24 40 98 40 262 c 0
 40 427 136 549 266 549 c 0
 333 549 383 519 416 460 c 1
 416 540 l 1
 556 540 l 1
 556 -218 l 1
 416 -218 l 1
 416 64 l 1
 383 5 333 -24 265 -24 c 0
298 432 m 0
 228 432 180 363 180 262 c 0
 180 161 228 93 298 93 c 0
 368 93 416 161 416 259 c 0
 416 364 369 432 298 432 c 0
EndSplineSet
Substitution2: "'smcp' Lowercase to Small Capitals in Latin lookup 2 subtable" sc.q
EndChar

StartChar: r
Encoding: 114 114 85
Width: 392
GlyphClass: 2
Flags: W
AnchorPoint: "Anchor-6" 134 293 basechar 0
AnchorPoint: "Anchor-5" 315 550 basechar 0
AnchorPoint: "Anchor-3" 223 550 basechar 0
AnchorPoint: "Anchor-2" 137 0 basechar 0
LayerCount: 2
Back
Fore
SplineSet
65 540 m 1
 205 540 l 1
 205 434 l 1
 235 507 291 549 355 549 c 0
 359 549 364 549 372 548 c 1
 372 406 l 1
 353 409 343 410 328 410 c 0
 246 410 205 369 205 287 c 2
 205 0 l 1
 65 0 l 1
 65 540 l 1
EndSplineSet
Substitution2: "'smcp' Lowercase to Small Capitals in Latin lookup 2 subtable" sc.r
EndChar

StartChar: s
Encoding: 115 115 86
Width: 556
GlyphClass: 2
Flags: W
AnchorPoint: "Anchor-6" 280 293 basechar 0
AnchorPoint: "Anchor-5" 415 550 basechar 0
AnchorPoint: "Anchor-3" 273 550 basechar 0
AnchorPoint: "Anchor-2" 290 0 basechar 0
LayerCount: 2
Back
Fore
SplineSet
167 157 m 1
 175 120 189 87 277 87 c 0
 342 87 381 107 381 140 c 0
 381 162 369 173 334 184 c 2
 167 236 l 2
 136 246 49 263 49 369 c 0
 49 480 134 549 271 549 c 0
 416 549 504 480 506 366 c 1
 371 366 l 1
 370 415 337 439 270 439 c 0
 221 439 189 419 189 389 c 0
 189 367 199 359 238 347 c 2
 415 296 l 2
 486 275 521 230 521 160 c 0
 521 85 474 -23 285 -23 c 0
 121 -23 34 39 30 157 c 1
 167 157 l 1
EndSplineSet
Substitution2: "'smcp' Lowercase to Small Capitals in Latin lookup 2 subtable" sc.s
EndChar

StartChar: t
Encoding: 116 116 87
Width: 338
GlyphClass: 2
Flags: W
AnchorPoint: "Anchor-6" 160 293 basechar 0
AnchorPoint: "Anchor-5" 325 550 basechar 0
AnchorPoint: "Anchor-3" 162 674 basechar 0
AnchorPoint: "Anchor-2" 216 0 basechar 0
LayerCount: 2
Back
Fore
SplineSet
308 529 m 1
 308 436 l 1
 230 436 l 1
 230 142 l 2
 230 94 239 83 276 83 c 0
 286 83 294 84 308 86 c 1
 308 -12 l 1
 283 -20 258 -23 227 -23 c 0
 135 -23 90 19 90 104 c 2
 90 436 l 1
 21 436 l 1
 21 529 l 1
 90 529 l 1
 90 674 l 1
 230 674 l 1
 230 529 l 1
 308 529 l 1
EndSplineSet
Substitution2: "'smcp' Lowercase to Small Capitals in Latin lookup 2 subtable" sc.t
EndChar

StartChar: u
Encoding: 117 117 88
Width: 613
GlyphClass: 2
Flags: W
AnchorPoint: "Anchor-6" 300 293 basechar 0
AnchorPoint: "Anchor-5" 435 550 basechar 0
AnchorPoint: "Anchor-4" 488 0 basechar 0 {150-150 -128} {}
AnchorPoint: "Anchor-3" 313 550 basechar 0
AnchorPoint: "Anchor-2" 296 0 basechar 0
LayerCount: 2
Back
Fore
SplineSet
548 0 m 1
 408 0 l 1
 408 64 l 1
 368 4 319 -23 246 -23 c 0
 131 -23 65 45 65 164 c 2
 65 540 l 1
 205 540 l 1
 205 193 l 2
 205 128 235 96 295 96 c 0
 363 96 408 138 408 202 c 2
 408 540 l 1
 548 540 l 1
 548 0 l 1
EndSplineSet
Substitution2: "'smcp' Lowercase to Small Capitals in Latin lookup 2 subtable" sc.u
EndChar

StartChar: v
Encoding: 118 118 89
Width: 542
GlyphClass: 2
Flags: W
AnchorPoint: "Anchor-6" 270 293 basechar 0
AnchorPoint: "Anchor-5" 415 550 basechar 0
AnchorPoint: "Anchor-3" 272 539 basechar 0
AnchorPoint: "Anchor-2" 273 0 basechar 0
LayerCount: 2
Back
Fore
SplineSet
346 0 m 1
 199 0 l 1
 10 540 l 1
 158 540 l 1
 275 145 l 1
 384 540 l 1
 532 540 l 1
 346 0 l 1
EndSplineSet
Substitution2: "'smcp' Lowercase to Small Capitals in Latin lookup 2 subtable" sc.v
EndChar

StartChar: w
Encoding: 119 119 90
Width: 781
GlyphClass: 2
Flags: W
AnchorPoint: "Anchor-6" 391 293 basechar 0
AnchorPoint: "Anchor-5" 675 550 basechar 0
AnchorPoint: "Anchor-3" 390 539 basechar 0
AnchorPoint: "Anchor-2" 392 0 basechar 0
LayerCount: 2
Back
Fore
SplineSet
618 0 m 1
 473 0 l 1
 392 381 l 1
 306 0 l 1
 162 0 l 1
 10 540 l 1
 155 540 l 1
 241 162 l 1
 323 540 l 1
 463 540 l 1
 544 162 l 1
 626 540 l 1
 771 540 l 1
 618 0 l 1
EndSplineSet
Substitution2: "'smcp' Lowercase to Small Capitals in Latin lookup 2 subtable" sc.w
EndChar

StartChar: x
Encoding: 120 120 91
Width: 549
GlyphClass: 2
Flags: W
AnchorPoint: "Anchor-6" 272 293 basechar 0
AnchorPoint: "Anchor-5" 415 550 basechar 0
AnchorPoint: "Anchor-3" 282 539 basechar 0
AnchorPoint: "Anchor-2" 277 0 basechar 0
LayerCount: 2
Back
Fore
SplineSet
354 272 m 1
 534 0 l 1
 366 0 l 1
 275 168 l 1
 183 0 l 1
 15 0 l 1
 195 272 l 1
 19 540 l 1
 187 540 l 1
 275 377 l 1
 362 540 l 1
 530 540 l 1
 354 272 l 1
EndSplineSet
Substitution2: "'smcp' Lowercase to Small Capitals in Latin lookup 2 subtable" sc.x
EndChar

StartChar: y
Encoding: 121 121 92
Width: 549
GlyphClass: 2
Flags: W
AnchorPoint: "Anchor-6" 274 293 basechar 0
AnchorPoint: "Anchor-5" 425 550 basechar 0
AnchorPoint: "Anchor-4" 438 0 basechar 0 {150-150 -112} {}
AnchorPoint: "Anchor-3" 279 550 basechar 0
AnchorPoint: "Anchor-2" 456 0 basechar 0
LayerCount: 2
Back
Fore
SplineSet
211 -26 m 2
 211 -22 l 1
 10 540 l 1
 164 540 l 1
 283 147 l 1
 395 540 l 1
 539 540 l 1
 317 -99 l 2
 304 -136 290 -219 137 -219 c 0
 120 -219 108 -218 87 -215 c 1
 87 -110 l 1
 105 -115 113 -116 124 -116 c 0
 173 -116 211 -77 211 -26 c 2
EndSplineSet
Substitution2: "'smcp' Lowercase to Small Capitals in Latin lookup 2 subtable" sc.y
EndChar

StartChar: z
Encoding: 122 122 93
Width: 507
GlyphClass: 2
Flags: W
AnchorPoint: "Anchor-6" 260 293 basechar 0
AnchorPoint: "Anchor-5" 385 550 basechar 0
AnchorPoint: "Anchor-3" 259 539 basechar 0
AnchorPoint: "Anchor-2" 252 0 basechar 0
LayerCount: 2
Back
Fore
SplineSet
468 540 m 1
 468 427 l 1
 203 113 l 1
 477 113 l 1
 477 0 l 1
 30 0 l 1
 30 113 l 1
 297 427 l 1
 48 427 l 1
 48 540 l 1
 468 540 l 1
EndSplineSet
Substitution2: "'smcp' Lowercase to Small Capitals in Latin lookup 2 subtable" sc.z
EndChar

StartChar: braceleft
Encoding: 123 123 94
Width: 389
GlyphClass: 2
Flags: W
LayerCount: 2
Back
Fore
SplineSet
118 150 m 2
 118 209 102 222 41 222 c 1
 37 223 l 1
 37 315 l 1
 53 315 l 2
 98 316 118 335 118 378 c 2
 118 589 l 2
 118 671 169 729 241 729 c 2
 317 729 l 1
 317 630 l 1
 280 630 l 2
 249 630 235 613 235 573 c 2
 235 378 l 2
 235 305 213 280 138 269 c 1
 213 257 235 232 235 159 c 2
 235 -36 l 2
 235 -85 246 -101 280 -101 c 2
 317 -101 l 1
 317 -200 l 1
 241 -200 l 2
 169 -200 118 -142 118 -60 c 2
 118 150 l 2
EndSplineSet
EndChar

StartChar: bar
Encoding: 124 124 95
Width: 280
GlyphClass: 2
Flags: W
LayerCount: 2
Back
Fore
SplineSet
180 729 m 1
 180 -200 l 1
 100 -200 l 1
 100 729 l 1
 180 729 l 1
EndSplineSet
EndChar

StartChar: braceright
Encoding: 125 125 96
Width: 389
GlyphClass: 2
Flags: W
LayerCount: 2
Back
Fore
SplineSet
271 379 m 2
 271 320 287 307 348 307 c 1
 352 306 l 1
 352 214 l 1
 336 214 l 2
 291 213 271 194 271 151 c 2
 271 -60 l 2
 271 -142 220 -200 148 -200 c 2
 72 -200 l 1
 72 -101 l 1
 109 -101 l 2
 140 -101 154 -84 154 -44 c 2
 154 151 l 2
 154 224 176 249 251 260 c 1
 176 272 154 297 154 370 c 2
 154 565 l 2
 154 614 143 630 109 630 c 2
 72 630 l 1
 72 729 l 1
 148 729 l 2
 220 729 271 671 271 589 c 2
 271 379 l 2
EndSplineSet
EndChar

StartChar: asciitilde
Encoding: 126 126 97
Width: 500
GlyphClass: 2
Flags: W
LayerCount: 2
Back
Fore
SplineSet
348 222 m 0
 396 222 400 249 401 288 c 1
 479 288 l 1
 473 190 432 142 352 142 c 0
 319 142 295 150 269 168 c 2
 212 210 l 2
 189 227 172 234 151 234 c 0
 105 234 100 209 98 169 c 1
 20 169 l 1
 25 266 68 314 147 314 c 0
 180 314 206 306 230 289 c 2
 287 247 l 2
 313 228 327 222 348 222 c 0
EndSplineSet
EndChar

StartChar: exclamdown
Encoding: 161 161 99
Width: 333
GlyphClass: 2
Flags: W
LayerCount: 2
Back
Fore
SplineSet
66 -186 m 1
 66 24 l 1
 108 333 l 1
 175 333 l 1
 216 24 l 1
 216 -186 l 1
 66 -186 l 1
66 394 m 1
 66 540 l 1
 216 540 l 1
 216 394 l 1
 66 394 l 1
EndSplineSet
EndChar

StartChar: cent
Encoding: 162 162 100
Width: 556
GlyphClass: 2
Flags: W
LayerCount: 2
Back
Fore
SplineSet
303 435 m 1
 303 91 l 1
 349 98 373 126 388 187 c 1
 522 187 l 1
 511 67 422 -18 303 -23 c 1
 303 -124 l 1
 259 -124 l 1
 259 -22 l 1
 120 -13 36 93 36 259 c 0
 36 431 114 533 259 548 c 1
 259 634 l 1
 303 634 l 1
 303 549 l 1
 426 547 514 462 522 338 c 1
 388 338 l 1
 375 400 350 428 303 435 c 1
259 94 m 1
 259 433 l 1
 205 419 176 359 176 260 c 0
 176 167 205 110 259 94 c 1
EndSplineSet
EndChar

StartChar: sterling
Encoding: 163 163 101
Width: 556
GlyphClass: 2
Flags: W
LayerCount: 2
Back
Fore
SplineSet
179 513 m 0
 179 476 212 431 236 371 c 1
 375 371 l 1
 375 316 l 1
 253 316 l 1
 265 290 268 277 268 257 c 0
 268 199 237 153 152 86 c 1
 215 116 235 123 264 123 c 0
 310 123 341 102 391 102 c 0
 424 102 456 111 496 131 c 1
 537 22 l 1
 481 -11 441 -23 392 -23 c 0
 322 -23 265 9 195 9 c 0
 157 9 130 1 86 -21 c 1
 31 80 l 1
 115 137 141 173 141 231 c 0
 141 256 136 277 120 316 c 1
 31 316 l 1
 31 371 l 1
 91 371 l 1
 46 450 38 472 38 516 c 0
 38 624 127 715 276 715 c 0
 485 715 514 581 522 484 c 1
 390 484 l 1
 389 495 l 2
 383 540 367 604 277 604 c 0
 220 604 179 566 179 513 c 0
EndSplineSet
EndChar

StartChar: currency
Encoding: 164 164 102
Width: 556
GlyphClass: 2
Flags: W
LayerCount: 2
Back
Fore
SplineSet
388 528 m 1
 461 601 l 1
 530 532 l 1
 455 457 l 1
 475 417 482 392 482 354 c 0
 482 315 473 281 453 246 c 1
 530 170 l 1
 461 102 l 1
 386 177 l 1
 340 152 322 147 286 147 c 0
 246 147 201 159 175 178 c 1
 96 100 l 1
 28 169 l 1
 106 246 l 1
 84 286 76 314 76 352 c 0
 76 390 86 427 105 457 c 1
 26 536 l 1
 95 604 l 1
 172 527 l 1
 203 546 244 558 281 558 c 0
 318 558 359 546 388 528 c 1
280 460 m 0
 220 460 172 413 172 352 c 0
 172 293 220 245 279 245 c 0
 338 245 386 293 386 353 c 0
 386 411 338 460 280 460 c 0
EndSplineSet
EndChar

StartChar: yen
Encoding: 165 165 103
Width: 556
GlyphClass: 2
Flags: W
LayerCount: 2
Back
Fore
SplineSet
497 351 m 1
 497 292 l 1
 355 292 l 1
 355 239 l 1
 497 239 l 1
 497 180 l 1
 355 180 l 1
 355 0 l 1
 215 0 l 1
 215 180 l 1
 70 180 l 1
 70 239 l 1
 215 239 l 1
 215 292 l 1
 70 292 l 1
 70 351 l 1
 208 351 l 1
 5 704 l 1
 144 704 l 1
 283 450 l 1
 417 704 l 1
 552 704 l 1
 360 351 l 1
 497 351 l 1
EndSplineSet
EndChar

StartChar: brokenbar
Encoding: 166 166 104
Width: 280
GlyphClass: 2
Flags: W
LayerCount: 2
Back
Fore
SplineSet
180 729 m 1
 180 340 l 1
 100 340 l 1
 100 729 l 1
 180 729 l 1
180 189 m 1
 180 -200 l 1
 100 -200 l 1
 100 189 l 1
 180 189 l 1
EndSplineSet
EndChar

StartChar: section
Encoding: 167 167 105
Width: 556
GlyphClass: 2
Flags: W
LayerCount: 2
Back
Fore
SplineSet
125 428 m 1
 105 448 64 481 64 551 c 0
 64 651 152 723 273 723 c 0
 360 723 467 693 473 544 c 1
 346 544 l 1
 339 597 315 621 268 621 c 0
 230 621 204 601 204 570 c 0
 204 542 223 524 294 485 c 2
 421 415 l 2
 487 378 518 330 518 262 c 0
 518 195 491 155 424 124 c 1
 471 91 494 47 494 -10 c 0
 494 -124 406 -201 276 -201 c 0
 137 -201 66 -133 65 0 c 1
 196 0 l 1
 196 -10 l 2
 199 -57 215 -90 277 -90 c 0
 322 -90 353 -65 353 -29 c 0
 353 15 319 29 283 49 c 2
 112 149 l 2
 61 179 33 226 33 281 c 0
 33 341 54 374 125 428 c 1
337 306 m 2
 194 382 l 1
 164 364 152 346 152 317 c 0
 152 286 165 269 205 247 c 2
 352 167 l 1
 386 191 398 209 398 232 c 0
 398 264 384 281 337 306 c 2
EndSplineSet
EndChar

StartChar: dieresis
Encoding: 168 168 106
Width: 333
GlyphClass: 2
Flags: W
LayerCount: 2
Back
Fore
SplineSet
319 743 m 1
 319 621 l 1
 209 621 l 1
 209 743 l 1
 319 743 l 1
123 743 m 1
 123 621 l 1
 13 621 l 1
 13 743 l 1
 123 743 l 1
EndSplineSet
EndChar

StartChar: copyright
Encoding: 169 169 107
Width: 737
GlyphClass: 2
Flags: W
LayerCount: 2
Back
Fore
SplineSet
552 431 m 1
 462 431 l 1
 451 485 422 509 369 509 c 0
 298 509 255 453 255 359 c 0
 255 266 296 211 366 211 c 0
 423 211 457 241 462 297 c 1
 554 297 l 1
 549 192 476 128 364 128 c 0
 241 128 163 218 163 360 c 0
 163 503 241 592 367 592 c 0
 468 592 544 537 552 431 c 1
369 743 m 0
 579 743 751 572 751 361 c 0
 751 147 580 -22 364 -22 c 0
 158 -22 -14 152 -14 361 c 0
 -14 571 158 743 369 743 c 0
368 671 m 0
 201 671 64 532 64 361 c 0
 64 192 201 50 365 50 c 0
 537 50 673 188 673 361 c 0
 673 532 536 671 368 671 c 0
EndSplineSet
EndChar

StartChar: ordfeminine
Encoding: 170 170 108
Width: 370
GlyphClass: 2
Flags: W
LayerCount: 2
Back
Fore
SplineSet
321 340 m 1
 321 262 l 1
 37 262 l 1
 37 340 l 1
 321 340 l 1
329 410 m 1
 329 400 l 1
 237 400 l 1
 229 410 228 416 227 432 c 1
 199 402 165 386 129 386 c 0
 70 386 31 425 31 484 c 0
 31 543 61 576 126 587 c 2
 160 593 l 2
 188 598 227 600 227 630 c 0
 227 650 210 661 178 661 c 0
 138 661 123 649 119 617 c 1
 41 617 l 1
 42 691 88 729 176 729 c 0
 264 729 309 695 309 629 c 2
 309 450 l 2
 309 433 313 424 329 410 c 1
227 530 m 2
 227 553 l 1
 217 548 214 547 192 543 c 2
 163 537 l 2
 128 530 115 518 115 493 c 0
 115 469 132 454 161 454 c 0
 203 454 227 482 227 530 c 2
EndSplineSet
EndChar

StartChar: guillemotleft
Encoding: 171 171 109
Width: 556
GlyphClass: 2
Flags: W
LayerCount: 2
Back
Fore
SplineSet
88 218 m 1
 88 332 l 1
 255 481 l 1
 255 364 l 1
 154 275 l 1
 255 186 l 1
 255 72 l 1
 88 218 l 1
301 218 m 1
 301 332 l 1
 468 481 l 1
 468 364 l 1
 367 275 l 1
 468 186 l 1
 468 72 l 1
 301 218 l 1
EndSplineSet
EndChar

StartChar: logicalnot
Encoding: 172 172 110
Width: 584
GlyphClass: 2
Flags: W
LayerCount: 2
Back
Fore
SplineSet
39.1796875 376 m 1
 543.180664062 376 l 1
 543.8203125 86 l 1
 424.8203125 86 l 1
 424.6875 256 l 1
 39.6865234375 256 l 1
 39.1796875 376 l 1
EndSplineSet
EndChar

StartChar: softhyphen
Encoding: 173 173 111
Width: 333
GlyphClass: 2
Flags: W
LayerCount: 2
Back
Fore
SplineSet
298 342 m 1
 298 207 l 1
 26 207 l 1
 26 342 l 1
 298 342 l 1
EndSplineSet
EndChar

StartChar: registered
Encoding: 174 174 112
Width: 737
GlyphClass: 2
Flags: W
LayerCount: 2
Back
Fore
SplineSet
288 313 m 1
 288 140 l 1
 192 140 l 1
 192 583 l 1
 430 583 l 2
 506 583 551 538 551 462 c 0
 551 412 530 378 481 354 c 1
 533 330 535 323 538 195 c 0
 538 176 542 169 557 161 c 1
 557 140 l 1
 454 140 l 1
 442 163 440 177 440 221 c 0
 440 229 441 237 441 247 c 2
 441 264 l 2
 441 298 422 313 380 313 c 2
 288 313 l 1
288 394 m 1
 391 394 l 2
 439 394 455 407 455 448 c 0
 455 489 439 502 391 502 c 2
 288 502 l 1
 288 394 l 1
369 743 m 0
 579 743 751 572 751 361 c 0
 751 147 580 -22 364 -22 c 0
 158 -22 -14 152 -14 361 c 0
 -14 571 158 743 369 743 c 0
368 671 m 0
 201 671 64 532 64 361 c 0
 64 192 201 50 365 50 c 0
 537 50 673 188 673 361 c 0
 673 532 536 671 368 671 c 0
EndSplineSet
EndChar

StartChar: macron
Encoding: 175 175 113
Width: 333
GlyphClass: 2
Flags: W
LayerCount: 2
Back
Fore
SplineSet
315 699 m 1
 315 620 l 1
 16 620 l 1
 16 699 l 1
 315 699 l 1
EndSplineSet
EndChar

StartChar: degree
Encoding: 176 176 114
Width: 606
GlyphClass: 2
Flags: W
LayerCount: 2
Back
Fore
SplineSet
303 686 m 0
 386 686 454 618 454 535 c 0
 454 450 386 383 301 383 c 0
 219 383 151 452 151 535 c 0
 151 618 219 686 303 686 c 0
303 623 m 0
 254 623 214 583 214 534 c 0
 214 487 254 446 301 446 c 0
 351 446 391 485 391 535 c 0
 391 583 351 623 303 623 c 0
EndSplineSet
EndChar

StartChar: plusminus
Encoding: 177 177 115
Width: 584
GlyphClass: 2
Flags: W
LayerCount: 2
Back
Fore
SplineSet
533 103 m 1
 533 -16 l 1
 50 -16 l 1
 50 103 l 1
 533 103 l 1
533 462 m 1
 533 343 l 1
 351 343 l 1
 351 161 l 1
 232 161 l 1
 232 343 l 1
 50 343 l 1
 50 462 l 1
 232 462 l 1
 232 644 l 1
 351 644 l 1
 351 462 l 1
 533 462 l 1
EndSplineSet
EndChar

StartChar: twosuperior
Encoding: 178 178 116
Width: 351
GlyphClass: 2
Flags: W
LayerCount: 2
Back
Fore
SplineSet
328 690 m 0
 328 570 213 560 139 471 c 1
 326 471 l 1
 326 390 l 1
 16 390 l 1
 23 588 233 563 233 686 c 0
 233 726 210 750 172 750 c 0
 134 750 112 724 112 679 c 0
 112 677 113 670 114 663 c 1
 22 663 l 1
 21 671 21 678 21 681 c 0
 21 773 77 824 177 824 c 0
 274 824 328 776 328 690 c 0
EndSplineSet
EndChar

StartChar: threesuperior
Encoding: 179 179 117
Width: 351
GlyphClass: 2
Flags: W
LayerCount: 2
Back
Fore
SplineSet
22 671 m 1
 27 800 109 818 170 818 c 0
 258 818 315 772 315 701 c 0
 315 663 297 633 263 612 c 1
 307 591 329 556 329 509 c 0
 329 425 266 371 170 371 c 0
 72 371 16 423 15 514 c 1
 107 514 l 1
 110 469 130 448 172 448 c 0
 208 448 234 473 234 508 c 0
 234 549 205 570 150 571 c 2
 134 571 l 1
 134 633 l 1
 145 633 l 2
 194 633 220 653 220 691 c 0
 220 724 199 745 167 745 c 0
 120 745 110 714 110 671 c 1
 22 671 l 1
EndSplineSet
EndChar

StartChar: acute
Encoding: 180 180 118
Width: 333
GlyphClass: 2
Flags: W
LayerCount: 2
Back
Fore
SplineSet
317 757 m 1
 191 607 l 1
 121 607 l 1
 191 757 l 1
 317 757 l 1
EndSplineSet
EndChar

StartChar: micro
Encoding: 181 181 119
Width: 611
GlyphClass: 2
Flags: W
LayerCount: 2
Back
Fore
SplineSet
198 206 m 2
 198 142 219 96 282 96 c 0
 341 96 383 140 383 202 c 2
 383 540 l 1
 523 540 l 1
 523 150 l 2
 523 92 529 77 553 77 c 0
 559 77 563 78 573 81 c 1
 573 -6 l 1
 550 -18 531 -23 503 -23 c 0
 456 -23 432 -9 408 31 c 1
 369 -9 338 -23 292 -23 c 0
 251 -23 220 -12 192 15 c 1
 192 -220 l 1
 58 -220 l 1
 58 540 l 1
 198 540 l 1
 198 206 l 2
EndSplineSet
EndChar

StartChar: paragraph
Encoding: 182 182 120
Width: 556
GlyphClass: 2
Flags: W
LayerCount: 2
Back
Fore
SplineSet
19 495 m 0
 19 627 109 729 226 729 c 2
 529 729 l 1
 529 657 l 1
 486 657 l 1
 486 -191 l 1
 388 -191 l 1
 388 657 l 1
 325 657 l 1
 325 -191 l 1
 227 -191 l 1
 227 267 l 1
 104 273 19 367 19 495 c 0
EndSplineSet
EndChar

StartChar: middot
Encoding: 183 183 121
Width: 278
GlyphClass: 2
Flags: W
LayerCount: 2
Back
Fore
SplineSet
64 292 m 1
 188 292 l 1
 188 169 l 1
 64 169 l 1
 64 292 l 1
EndSplineSet
EndChar

StartChar: cedilla
Encoding: 184 184 122
Width: 333
GlyphClass: 2
Flags: W
LayerCount: 2
Back
Fore
SplineSet
162 0 m 1
 205 0 l 1
 176 -63 l 1
 191 -58 203 -56 218 -56 c 0
 265 -56 294 -83 294 -127 c 0
 294 -187 248 -220 165 -220 c 0
 121 -220 92 -214 27 -192 c 1
 46 -140 l 1
 99 -163 123 -170 151 -170 c 0
 183 -170 208 -152 208 -129 c 0
 208 -108 188 -94 157 -94 c 0
 137 -94 127 -97 108 -106 c 1
 162 0 l 1
EndSplineSet
EndChar

StartChar: onesuperior
Encoding: 185 185 123
Width: 300
GlyphClass: 2
Flags: W
LayerCount: 2
Back
Fore
SplineSet
147 678 m 1
 40 678 l 1
 40 739 l 1
 118 739 164 764 178 814 c 1
 242 814 l 1
 242 389 l 1
 147 389 l 1
 147 678 l 1
EndSplineSet
EndChar

StartChar: ordmasculine
Encoding: 186 186 124
Width: 365
GlyphClass: 2
Flags: W
LayerCount: 2
Back
Fore
SplineSet
334 340 m 1
 334 262 l 1
 33 262 l 1
 33 340 l 1
 334 340 l 1
183 729 m 0
 284 729 343 665 343 555 c 0
 343 451 281 386 183 386 c 0
 84 386 23 451 23 557 c 0
 23 664 84 729 183 729 c 0
183 661 m 0
 138 661 107 619 107 558 c 0
 107 496 138 454 183 454 c 0
 228 454 259 496 259 556 c 0
 259 619 229 661 183 661 c 0
EndSplineSet
EndChar

StartChar: guillemotright
Encoding: 187 187 125
Width: 556
GlyphClass: 2
Flags: W
LayerCount: 2
Back
Fore
SplineSet
255 335 m 1
 255 220 l 1
 88 72 l 1
 88 189 l 1
 189 278 l 1
 88 367 l 1
 88 481 l 1
 255 335 l 1
462 335 m 1
 462 220 l 1
 295 72 l 1
 295 189 l 1
 396 278 l 1
 295 367 l 1
 295 481 l 1
 462 335 l 1
EndSplineSet
EndChar

StartChar: onequarter
Encoding: 188 188 126
Width: 869
GlyphClass: 2
Flags: W
LayerCount: 2
Back
Fore
SplineSet
147 606 m 1
 40 606 l 1
 40 667 l 1
 118 667 164 692 178 742 c 1
 242 742 l 1
 242 317 l 1
 147 317 l 1
 147 606 l 1
593 715 m 1
 680 715 l 1
 257 -20 l 1
 170 -20 l 1
 593 715 l 1
850 168 m 1
 850 93 l 1
 804 93 l 1
 804 0 l 1
 709 0 l 1
 709 93 l 1
 530 93 l 1
 530 167 l 1
 695 425 l 1
 804 425 l 1
 804 168 l 1
 850 168 l 1
709 168 m 1
 709 332 l 1
 603 168 l 1
 709 168 l 1
EndSplineSet
EndChar

StartChar: onehalf
Encoding: 189 189 127
Width: 869
GlyphClass: 2
Flags: W
LayerCount: 2
Back
Fore
SplineSet
147 608 m 1
 40 608 l 1
 40 669 l 1
 118 669 164 694 178 744 c 1
 242 744 l 1
 242 319 l 1
 147 319 l 1
 147 608 l 1
587 715 m 1
 674 715 l 1
 251 -20 l 1
 164 -20 l 1
 587 715 l 1
846 300 m 0
 846 180 731 170 657 81 c 1
 844 81 l 1
 844 0 l 1
 534 0 l 1
 541 198 751 173 751 296 c 0
 751 336 728 360 690 360 c 0
 652 360 630 334 630 289 c 0
 630 287 631 280 632 273 c 1
 540 273 l 1
 539 281 539 288 539 291 c 0
 539 383 595 434 695 434 c 0
 792 434 846 386 846 300 c 0
EndSplineSet
EndChar

StartChar: threequarters
Encoding: 190 190 128
Width: 869
GlyphClass: 2
Flags: W
LayerCount: 2
Back
Fore
SplineSet
22 594 m 1
 27 723 109 741 170 741 c 0
 258 741 315 695 315 624 c 0
 315 586 297 556 263 535 c 1
 307 514 329 479 329 432 c 0
 329 348 266 294 170 294 c 0
 72 294 16 346 15 437 c 1
 107 437 l 1
 110 392 130 371 172 371 c 0
 208 371 234 396 234 431 c 0
 234 472 205 493 150 494 c 2
 134 494 l 1
 134 556 l 1
 145 556 l 2
 194 556 220 576 220 614 c 0
 220 647 199 668 167 668 c 0
 120 668 110 637 110 594 c 1
 22 594 l 1
625 715 m 1
 712 715 l 1
 289 -20 l 1
 202 -20 l 1
 625 715 l 1
850 168 m 1
 850 93 l 1
 804 93 l 1
 804 0 l 1
 709 0 l 1
 709 93 l 1
 530 93 l 1
 530 167 l 1
 695 425 l 1
 804 425 l 1
 804 168 l 1
 850 168 l 1
709 168 m 1
 709 332 l 1
 603 168 l 1
 709 168 l 1
EndSplineSet
EndChar

StartChar: questiondown
Encoding: 191 191 129
Width: 611
GlyphClass: 2
Flags: W
LayerCount: 2
Back
Fore
SplineSet
544 59 m 1
 541 -167 398 -204 301 -204 c 0
 154 -204 52 -110 52 26 c 0
 52 110 79 154 172 220 c 0
 232 262 239 273 239 339 c 1
 363 339 l 1
 363 325 l 2
 363 145 193 149 193 29 c 0
 193 -36 238 -86 298 -86 c 0
 361 -86 408 -29 408 48 c 2
 408 57 l 1
 408 59 l 1
 544 59 l 1
223 394 m 1
 223 540 l 1
 373 540 l 1
 373 394 l 1
 223 394 l 1
EndSplineSet
EndChar

StartChar: Agrave
Encoding: 192 192 130
Width: 697
GlyphClass: 2
Flags: W
AnchorPoint: "Anchor-4" 636 0 basechar 0 {150-150 4} {}
AnchorPoint: "Anchor-2" 360 0 basechar 0
LayerCount: 2
Back
Fore
SplineSet
197 900 m 1
 333 900 l 1
 433 780 l 1
 353 780 l 1
 197 900 l 1
485 147 m 1
 212 147 l 1
 163 0 l 1
 10 0 l 1
 269 729 l 1
 435 729 l 1
 687 0 l 1
 533 0 l 1
 485 147 l 1
444 272 m 1
 349 557 l 1
 254 272 l 1
 444 272 l 1
EndSplineSet
EndChar

StartChar: Aacute
Encoding: 193 193 131
Width: 697
GlyphClass: 2
Flags: W
AnchorPoint: "Anchor-4" 636 0 basechar 0 {150-150 0} {}
AnchorPoint: "Anchor-2" 360 0 basechar 0
LayerCount: 2
Back
Fore
SplineSet
523 900 m 1
 367 780 l 1
 287 780 l 1
 387 900 l 1
 523 900 l 1
485 147 m 1
 212 147 l 1
 163 0 l 1
 10 0 l 1
 269 729 l 1
 435 729 l 1
 687 0 l 1
 533 0 l 1
 485 147 l 1
444 272 m 1
 349 557 l 1
 254 272 l 1
 444 272 l 1
EndSplineSet
EndChar

StartChar: Acircumflex
Encoding: 194 194 132
Width: 697
GlyphClass: 3
Flags: W
AnchorPoint: "Anchor-4" 636 0 basechar 0 {150-150 4} {}
AnchorPoint: "Anchor-2" 360 0 basechar 0
LayerCount: 2
Back
Fore
SplineSet
305 900 m 1
 412 900 l 1
 515 780 l 1
 427 780 l 1
 355 840 l 1
 283 780 l 1
 197 780 l 1
 305 900 l 1
485 147 m 1
 212 147 l 1
 163 0 l 1
 10 0 l 1
 269 729 l 1
 435 729 l 1
 687 0 l 1
 533 0 l 1
 485 147 l 1
444 272 m 1
 349 557 l 1
 254 272 l 1
 444 272 l 1
EndSplineSet
Ligature2: "'ccmp' Glyph Composition/Decomposition in Latin lookup 10 per glyph data 1" A circumflexcomb
EndChar

StartChar: Atilde
Encoding: 195 195 133
Width: 697
GlyphClass: 2
Flags: W
AnchorPoint: "Anchor-4" 636 0 basechar 0 {150-150 4} {}
AnchorPoint: "Anchor-2" 360 0 basechar 0
LayerCount: 2
Back
Fore
SplineSet
474 890 m 1
 537 890 l 1
 533 805 501 763 442 763 c 0
 427 763 408 767 387 775 c 2
 316 801 l 2
 304 805 295 807 286 807 c 0
 262 807 251 794 246 762 c 1
 183 762 l 1
 187 840 222 886 277 886 c 0
 296 886 297 886 333 873 c 2
 404 848 l 2
 411 845 431 842 438 842 c 0
 459 842 471 858 474 890 c 1
485 147 m 1
 212 147 l 1
 163 0 l 1
 10 0 l 1
 269 729 l 1
 435 729 l 1
 687 0 l 1
 533 0 l 1
 485 147 l 1
444 272 m 1
 349 557 l 1
 254 272 l 1
 444 272 l 1
EndSplineSet
EndChar

StartChar: Adieresis
Encoding: 196 196 134
Width: 697
GlyphClass: 2
Flags: W
AnchorPoint: "Anchor-4" 636 0 basechar 0 {150-150 4} {}
AnchorPoint: "Anchor-2" 360 0 basechar 0
LayerCount: 2
Back
Fore
SplineSet
507 900 m 1
 507 778 l 1
 397 778 l 1
 397 900 l 1
 507 900 l 1
311 900 m 1
 311 778 l 1
 201 778 l 1
 201 900 l 1
 311 900 l 1
485 147 m 1
 212 147 l 1
 163 0 l 1
 10 0 l 1
 269 729 l 1
 435 729 l 1
 687 0 l 1
 533 0 l 1
 485 147 l 1
444 272 m 1
 349 557 l 1
 254 272 l 1
 444 272 l 1
EndSplineSet
EndChar

StartChar: Aring
Encoding: 197 197 135
Width: 697
GlyphClass: 2
Flags: W
AnchorPoint: "Anchor-4" 636 0 basechar 0 {150-150 4} {}
AnchorPoint: "Anchor-2" 360 0 basechar 0
LayerCount: 2
Back
Fore
SplineSet
354 949 m 0
 404 949 443 909 443 858 c 0
 443 809 402 769 353 769 c 0
 303 769 263 809 263 859 c 0
 263 909 303 949 354 949 c 0
354 901 m 0
 330 901 311 882 311 859 c 0
 311 836 330 817 354 817 c 0
 376 817 395 836 395 859 c 0
 395 882 377 901 354 901 c 0
485 147 m 1
 212 147 l 1
 163 0 l 1
 10 0 l 1
 269 729 l 1
 435 729 l 1
 687 0 l 1
 533 0 l 1
 485 147 l 1
444 272 m 1
 349 557 l 1
 254 272 l 1
 444 272 l 1
EndSplineSet
EndChar

StartChar: AE
Encoding: 198 198 136
Width: 1015
GlyphClass: 2
Flags: W
AnchorPoint: "Anchor-2" 509 0 basechar 0
LayerCount: 2
Back
Fore
SplineSet
439 152 m 1
 216 152 l 1
 163 0 l 1
 10 0 l 1
 273 729 l 1
 955 729 l 1
 955 604 l 1
 589 604 l 1
 589 439 l 1
 928 439 l 1
 928 314 l 1
 589 314 l 1
 589 125 l 1
 975 125 l 1
 975 0 l 1
 439 0 l 1
 439 152 l 1
439 277 m 1
 439 604 l 1
 372 604 l 1
 258 277 l 1
 439 277 l 1
EndSplineSet
Substitution2: "'c2sc' Capitals to Small Capitals in Latin lookup 4 subtable" sc.ae
EndChar

StartChar: Ccedilla
Encoding: 199 199 137
Width: 721
GlyphClass: 2
Flags: W
AnchorPoint: "Anchor-3" 371 740 basechar 0
LayerCount: 2
Back
Fore
SplineSet
535 482 m 1
 527 519 504 613 379 613 c 0
 261 613 190 517 190 356 c 0
 190 197 258 103 374 103 c 0
 467 103 526 156 535 249 c 1
 681 249 l 1
 673 84 557 -19 375 -23 c 1
 356 -63 l 1
 370 -58 382 -56 398 -56 c 0
 445 -56 474 -83 474 -127 c 0
 474 -187 428 -220 345 -220 c 0
 301 -220 272 -214 207 -192 c 1
 226 -140 l 1
 279 -163 303 -170 331 -170 c 0
 363 -170 388 -152 388 -129 c 0
 388 -108 368 -94 337 -94 c 0
 317 -94 307 -97 288 -106 c 1
 331 -23 l 1
 238 -7 199 11 151 56 c 0
 78 126 40 230 40 358 c 0
 40 594 168 741 374 741 c 0
 544 741 665 646 678 482 c 1
 535 482 l 1
EndSplineSet
EndChar

StartChar: Egrave
Encoding: 200 200 138
Width: 665
GlyphClass: 2
Flags: W
AnchorPoint: "Anchor-4" 583 0 basechar 0
AnchorPoint: "Anchor-2" 360 0 basechar 0
LayerCount: 2
Back
Fore
SplineSet
207 900 m 1
 343 900 l 1
 443 780 l 1
 363 780 l 1
 207 900 l 1
230 314 m 1
 230 125 l 1
 625 125 l 1
 625 0 l 1
 80 0 l 1
 80 729 l 1
 607 729 l 1
 607 604 l 1
 230 604 l 1
 230 439 l 1
 579 439 l 1
 579 314 l 1
 230 314 l 1
EndSplineSet
EndChar

StartChar: Eacute
Encoding: 201 201 139
Width: 665
GlyphClass: 2
Flags: W
AnchorPoint: "Anchor-4" 583 0 basechar 0
AnchorPoint: "Anchor-2" 360 0 basechar 0
LayerCount: 2
Back
Fore
SplineSet
503 900 m 1
 347 780 l 1
 267 780 l 1
 367 900 l 1
 503 900 l 1
230 314 m 1
 230 125 l 1
 625 125 l 1
 625 0 l 1
 80 0 l 1
 80 729 l 1
 607 729 l 1
 607 604 l 1
 230 604 l 1
 230 439 l 1
 579 439 l 1
 579 314 l 1
 230 314 l 1
EndSplineSet
EndChar

StartChar: Ecircumflex
Encoding: 202 202 140
Width: 665
GlyphClass: 3
Flags: W
AnchorPoint: "Anchor-4" 583 0 basechar 0
AnchorPoint: "Anchor-2" 360 0 basechar 0
LayerCount: 2
Back
Fore
SplineSet
295 900 m 1
 402 900 l 1
 505 780 l 1
 417 780 l 1
 345 840 l 1
 273 780 l 1
 187 780 l 1
 295 900 l 1
230 314 m 1
 230 125 l 1
 625 125 l 1
 625 0 l 1
 80 0 l 1
 80 729 l 1
 607 729 l 1
 607 604 l 1
 230 604 l 1
 230 439 l 1
 579 439 l 1
 579 314 l 1
 230 314 l 1
EndSplineSet
Ligature2: "'ccmp' Glyph Composition/Decomposition in Latin lookup 10 per glyph data 1" E circumflexcomb
EndChar

StartChar: Edieresis
Encoding: 203 203 141
Width: 665
GlyphClass: 2
Flags: W
AnchorPoint: "Anchor-4" 583 0 basechar 0
AnchorPoint: "Anchor-2" 360 0 basechar 0
LayerCount: 2
Back
Fore
SplineSet
497 900 m 1
 497 778 l 1
 387 778 l 1
 387 900 l 1
 497 900 l 1
301 900 m 1
 301 778 l 1
 191 778 l 1
 191 900 l 1
 301 900 l 1
230 314 m 1
 230 125 l 1
 625 125 l 1
 625 0 l 1
 80 0 l 1
 80 729 l 1
 607 729 l 1
 607 604 l 1
 230 604 l 1
 230 439 l 1
 579 439 l 1
 579 314 l 1
 230 314 l 1
EndSplineSet
EndChar

StartChar: Igrave
Encoding: 204 204 142
Width: 310
GlyphClass: 2
Flags: W
AnchorPoint: "Anchor-4" 180 0 basechar 0
AnchorPoint: "Anchor-2" 142 0 basechar 0
LayerCount: 2
Back
Fore
SplineSet
0 900 m 1
 136 900 l 1
 236 780 l 1
 156 780 l 1
 0 900 l 1
230 729 m 1
 230 0 l 1
 80 0 l 1
 80 729 l 1
 230 729 l 1
EndSplineSet
EndChar

StartChar: Iacute
Encoding: 205 205 143
Width: 310
GlyphClass: 2
Flags: W
AnchorPoint: "Anchor-4" 180 0 basechar 0
AnchorPoint: "Anchor-2" 142 0 basechar 0
LayerCount: 2
Back
Fore
SplineSet
278 900 m 1
 122 780 l 1
 42 780 l 1
 142 900 l 1
 278 900 l 1
230 729 m 1
 230 0 l 1
 80 0 l 1
 80 729 l 1
 230 729 l 1
EndSplineSet
EndChar

StartChar: Icircumflex
Encoding: 206 206 144
Width: 310
GlyphClass: 3
Flags: W
AnchorPoint: "Anchor-4" 192 0 basechar 0
AnchorPoint: "Anchor-2" 154 0 basechar 0
LayerCount: 2
Back
Fore
SplineSet
104 900 m 1
 211 900 l 1
 314 780 l 1
 226 780 l 1
 154 840 l 1
 82 780 l 1
 -4 780 l 1
 104 900 l 1
242 729 m 1
 242 0 l 1
 92 0 l 1
 92 729 l 1
 242 729 l 1
EndSplineSet
Ligature2: "'ccmp' Glyph Composition/Decomposition in Latin lookup 10 per glyph data 1" I circumflexcomb
EndChar

StartChar: Idieresis
Encoding: 207 207 145
Width: 310
GlyphClass: 2
Flags: W
AnchorPoint: "Anchor-4" 191 0 basechar 0
AnchorPoint: "Anchor-2" 153 0 basechar 0
LayerCount: 2
Back
Fore
SplineSet
308 900 m 1
 308 778 l 1
 198 778 l 1
 198 900 l 1
 308 900 l 1
112 900 m 1
 112 778 l 1
 2 778 l 1
 2 900 l 1
 112 900 l 1
241 729 m 1
 241 0 l 1
 91 0 l 1
 91 729 l 1
 241 729 l 1
EndSplineSet
EndChar

StartChar: Eth
Encoding: 208 208 146
Width: 741
GlyphClass: 2
Flags: W
AnchorPoint: "Anchor-2" 359 0 basechar 0
LayerCount: 2
Back
Fore
SplineSet
97 339 m 1
 20 339 l 1
 20 419 l 1
 97 419 l 1
 97 729 l 1
 382 729 l 2
 497 729 565 705 613 645 c 0
 669 577 701 472 701 365 c 0
 701 257 668 154 613 85 c 0
 565 25 496 0 382 0 c 2
 97 0 l 1
 97 339 l 1
557 364 m 0
 557 544 489 604 382 604 c 2
 247 604 l 1
 247 419 l 1
 397 419 l 1
 397 339 l 1
 247 339 l 1
 247 125 l 1
 382 125 l 2
 479 125 557 173 557 364 c 0
EndSplineSet
Substitution2: "'c2sc' Capitals to Small Capitals in Latin lookup 4 subtable" sc.eth
EndChar

StartChar: Ntilde
Encoding: 209 209 147
Width: 753
GlyphClass: 2
Flags: W
AnchorPoint: "Anchor-2" 359 0 basechar 0
LayerCount: 2
Back
Fore
SplineSet
484 900 m 1
 547 900 l 1
 543 815 511 773 452 773 c 0
 437 773 418 777 397 785 c 2
 326 811 l 2
 314 815 305 817 296 817 c 0
 272 817 261 804 256 772 c 1
 193 772 l 1
 197 850 232 896 287 896 c 0
 306 896 307 896 343 883 c 2
 414 858 l 2
 421 855 441 852 448 852 c 0
 469 852 481 868 484 900 c 1
523 0 m 1
 230 504 l 1
 230 0 l 1
 80 0 l 1
 80 729 l 1
 234 729 l 1
 523 233 l 1
 523 729 l 1
 673 729 l 1
 673 0 l 1
 523 0 l 1
EndSplineSet
EndChar

StartChar: Ograve
Encoding: 210 210 148
Width: 782
GlyphClass: 2
Flags: W
AnchorPoint: "Anchor-4" 463 0 basechar 0
AnchorPoint: "Anchor-2" 394 0 basechar 0
LayerCount: 2
Back
Fore
SplineSet
227 900 m 1
 363 900 l 1
 463 780 l 1
 383 780 l 1
 227 900 l 1
40 359 m 0
 40 581 178 741 390 741 c 0
 601 741 742 586 742 354 c 0
 742 145 610 -23 391 -23 c 0
 177 -23 40 137 40 359 c 0
391 613 m 0
 270 613 190 512 190 359 c 0
 190 206 270 105 391 105 c 0
 511 105 592 206 592 355 c 0
 592 513 514 613 391 613 c 0
EndSplineSet
EndChar

StartChar: Oacute
Encoding: 211 211 149
Width: 782
GlyphClass: 2
Flags: W
AnchorPoint: "Anchor-4" 463 0 basechar 0
AnchorPoint: "Anchor-2" 394 0 basechar 0
LayerCount: 2
Back
Fore
SplineSet
553 900 m 1
 397 780 l 1
 317 780 l 1
 417 900 l 1
 553 900 l 1
40 359 m 0
 40 581 178 741 390 741 c 0
 601 741 742 586 742 354 c 0
 742 145 610 -23 391 -23 c 0
 177 -23 40 137 40 359 c 0
391 613 m 0
 270 613 190 512 190 359 c 0
 190 206 270 105 391 105 c 0
 511 105 592 206 592 355 c 0
 592 513 514 613 391 613 c 0
EndSplineSet
EndChar

StartChar: Ocircumflex
Encoding: 212 212 150
Width: 782
GlyphClass: 3
Flags: W
AnchorPoint: "Anchor-4" 463 0 basechar 0
AnchorPoint: "Anchor-2" 394 0 basechar 0
LayerCount: 2
Back
Fore
SplineSet
345 900 m 1
 452 900 l 1
 555 780 l 1
 467 780 l 1
 395 840 l 1
 323 780 l 1
 237 780 l 1
 345 900 l 1
40 359 m 0
 40 581 178 741 390 741 c 0
 601 741 742 586 742 354 c 0
 742 145 610 -23 391 -23 c 0
 177 -23 40 137 40 359 c 0
391 613 m 0
 270 613 190 512 190 359 c 0
 190 206 270 105 391 105 c 0
 511 105 592 206 592 355 c 0
 592 513 514 613 391 613 c 0
EndSplineSet
Ligature2: "'ccmp' Glyph Composition/Decomposition in Latin lookup 10 per glyph data 1" O circumflexcomb
EndChar

StartChar: Otilde
Encoding: 213 213 151
Width: 782
GlyphClass: 2
Flags: W
AnchorPoint: "Anchor-4" 463 0 basechar 0
AnchorPoint: "Anchor-2" 394 0 basechar 0
LayerCount: 2
Back
Fore
SplineSet
512 900 m 1
 575 900 l 1
 571 815 539 773 480 773 c 0
 465 773 446 777 425 785 c 2
 354 811 l 2
 342 815 333 817 324 817 c 0
 300 817 289 804 284 772 c 1
 221 772 l 1
 225 850 260 896 315 896 c 0
 334 896 335 896 371 883 c 2
 442 858 l 2
 449 855 469 852 476 852 c 0
 497 852 509 868 512 900 c 1
40 359 m 0
 40 581 178 741 390 741 c 0
 601 741 742 586 742 354 c 0
 742 145 610 -23 391 -23 c 0
 177 -23 40 137 40 359 c 0
391 613 m 0
 270 613 190 512 190 359 c 0
 190 206 270 105 391 105 c 0
 511 105 592 206 592 355 c 0
 592 513 514 613 391 613 c 0
EndSplineSet
EndChar

StartChar: Odieresis
Encoding: 214 214 152
Width: 782
GlyphClass: 2
Flags: W
AnchorPoint: "Anchor-4" 463 0 basechar 0
AnchorPoint: "Anchor-2" 394 0 basechar 0
LayerCount: 2
Back
Fore
SplineSet
544 900 m 1
 544 778 l 1
 434 778 l 1
 434 900 l 1
 544 900 l 1
348 900 m 1
 348 778 l 1
 238 778 l 1
 238 900 l 1
 348 900 l 1
40 359 m 0
 40 581 178 741 390 741 c 0
 601 741 742 586 742 354 c 0
 742 145 610 -23 391 -23 c 0
 177 -23 40 137 40 359 c 0
391 613 m 0
 270 613 190 512 190 359 c 0
 190 206 270 105 391 105 c 0
 511 105 592 206 592 355 c 0
 592 513 514 613 391 613 c 0
EndSplineSet
EndChar

StartChar: multiply
Encoding: 215 215 153
Width: 584
GlyphClass: 2
Flags: W
LayerCount: 2
Back
Fore
SplineSet
421 444 m 1
 505 360 l 1
 376 231 l 1
 504 102 l 1
 420 18 l 1
 292 147 l 1
 164 19 l 1
 80 103 l 1
 208 231 l 1
 79 359 l 1
 163 444 l 1
 292 315 l 1
 421 444 l 1
EndSplineSet
EndChar

StartChar: Oslash
Encoding: 216 216 154
Width: 783
GlyphClass: 2
Flags: W
LayerCount: 2
Back
Fore
SplineSet
745 357 m 0
 745 145 611 -23 393 -23 c 0
 303 -23 228 2 170 52 c 1
 87 -39 l 1
 36 7 l 1
 122 102 l 1
 67 176 40 261 40 359 c 0
 40 579 178 741 393 741 c 0
 488 741 558 716 625 657 c 1
 708 749 l 1
 760 704 l 1
 671 605 l 1
 717 542 745 449 745 357 c 0
572 497 m 1
 261 153 l 1
 292 123 341 105 393 105 c 0
 515 105 595 206 595 361 c 0
 595 408 587 457 572 497 c 1
219 209 m 1
 533 555 l 1
 496 594 449 613 393 613 c 0
 269 613 190 512 190 356 c 0
 190 301 200 251 219 209 c 1
EndSplineSet
Substitution2: "'c2sc' Capitals to Small Capitals in Latin lookup 4 subtable" sc.oslash
EndChar

StartChar: Ugrave
Encoding: 217 217 155
Width: 738
GlyphClass: 2
Flags: W
AnchorPoint: "Anchor-4" 451 0 basechar 0
AnchorPoint: "Anchor-2" 370 0 basechar 0
LayerCount: 2
Back
Fore
SplineSet
217 900 m 1
 353 900 l 1
 453 780 l 1
 373 780 l 1
 217 900 l 1
369 -23 m 0
 246 -23 80 29 80 235 c 2
 80 729 l 1
 230 729 l 1
 230 235 l 2
 230 147 275 105 369 105 c 0
 463 105 508 147 508 235 c 2
 508 729 l 1
 658 729 l 1
 658 235 l 2
 658 29 492 -23 369 -23 c 0
EndSplineSet
EndChar

StartChar: Uacute
Encoding: 218 218 156
Width: 738
GlyphClass: 2
Flags: W
AnchorPoint: "Anchor-4" 451 0 basechar 0
AnchorPoint: "Anchor-2" 370 0 basechar 0
LayerCount: 2
Back
Fore
SplineSet
523 900 m 1
 367 780 l 1
 287 780 l 1
 387 900 l 1
 523 900 l 1
369 -23 m 0
 246 -23 80 29 80 235 c 2
 80 729 l 1
 230 729 l 1
 230 235 l 2
 230 147 275 105 369 105 c 0
 463 105 508 147 508 235 c 2
 508 729 l 1
 658 729 l 1
 658 235 l 2
 658 29 492 -23 369 -23 c 0
EndSplineSet
EndChar

StartChar: Ucircumflex
Encoding: 219 219 157
Width: 738
GlyphClass: 3
Flags: W
AnchorPoint: "Anchor-4" 451 0 basechar 0
AnchorPoint: "Anchor-2" 370 0 basechar 0
LayerCount: 2
Back
Fore
SplineSet
315 900 m 1
 422 900 l 1
 525 780 l 1
 437 780 l 1
 365 840 l 1
 293 780 l 1
 207 780 l 1
 315 900 l 1
369 -23 m 0
 246 -23 80 29 80 235 c 2
 80 729 l 1
 230 729 l 1
 230 235 l 2
 230 147 275 105 369 105 c 0
 463 105 508 147 508 235 c 2
 508 729 l 1
 658 729 l 1
 658 235 l 2
 658 29 492 -23 369 -23 c 0
EndSplineSet
Ligature2: "'ccmp' Glyph Composition/Decomposition in Latin lookup 10 per glyph data 1" U circumflexcomb
EndChar

StartChar: Udieresis
Encoding: 220 220 158
Width: 738
GlyphClass: 2
Flags: W
AnchorPoint: "Anchor-4" 451 0 basechar 0
AnchorPoint: "Anchor-2" 370 0 basechar 0
LayerCount: 2
Back
Fore
SplineSet
518 900 m 1
 518 778 l 1
 408 778 l 1
 408 900 l 1
 518 900 l 1
322 900 m 1
 322 778 l 1
 212 778 l 1
 212 900 l 1
 322 900 l 1
369 -23 m 0
 246 -23 80 29 80 235 c 2
 80 729 l 1
 230 729 l 1
 230 235 l 2
 230 147 275 105 369 105 c 0
 463 105 508 147 508 235 c 2
 508 729 l 1
 658 729 l 1
 658 235 l 2
 658 29 492 -23 369 -23 c 0
EndSplineSet
EndChar

StartChar: Yacute
Encoding: 221 221 159
Width: 643
GlyphClass: 2
Flags: W
AnchorPoint: "Anchor-4" 387 0 basechar 0
AnchorPoint: "Anchor-2" 347 0 basechar 0
LayerCount: 2
Back
Fore
SplineSet
508 900 m 1
 352 780 l 1
 272 780 l 1
 372 900 l 1
 508 900 l 1
402 270 m 1
 402 0 l 1
 252 0 l 1
 252 270 l 1
 10 729 l 1
 177 729 l 1
 326 407 l 1
 465 729 l 1
 633 729 l 1
 402 270 l 1
EndSplineSet
EndChar

StartChar: Thorn
Encoding: 222 222 160
Width: 677
GlyphClass: 2
Flags: W
LayerCount: 2
Back
Fore
SplineSet
402 609 m 2
 602 609 637 481 637 382 c 0
 637 233 552 140 417 140 c 2
 230 140 l 1
 230 0 l 1
 80 0 l 1
 80 729 l 1
 230 729 l 1
 230 609 l 1
 402 609 l 2
230 265 m 1
 370 265 l 2
 450 265 487 300 487 374 c 0
 487 449 450 484 370 484 c 2
 230 484 l 1
 230 265 l 1
EndSplineSet
Substitution2: "'c2sc' Capitals to Small Capitals in Latin lookup 4 subtable" sc.thorn
EndChar

StartChar: ssharp
Encoding: 223 223 161
Width: 611
GlyphClass: 2
Flags: W
LayerCount: 2
Back
Fore
SplineSet
445 411 m 1
 479 404 575 376 575 236 c 0
 575 74 498 -23 367 -23 c 0
 345 -23 313 -17 285 -11 c 1
 285 94 l 1
 297 89.5 314.25 87 328 87 c 0
 397.006835938 87 435 151 435 222 c 0
 435 305.15234375 382 349 285 349 c 1
 285 444 l 1
 348 444 392 474.743164062 392 533 c 0
 392 585 355 616 294 616 c 0
 239 616 207 587 207 537 c 2
 207 0 l 1
 67 0 l 1
 67 518 l 2
 67 631 114 729 303 729 c 0
 438 729 532 654 532 547 c 0
 532 480 502 433 445 411 c 1
EndSplineSet
Substitution2: "'smcp' Lowercase to Small Capitals in Latin lookup 2 subtable" sc.ssharp
EndChar

StartChar: agrave
Encoding: 224 224 162
Width: 566
GlyphClass: 2
Flags: W
AnchorPoint: "Anchor-4" 451 0 basechar 0 {150-150 2} {}
AnchorPoint: "Anchor-2" 254 0 basechar 0
LayerCount: 2
Back
Fore
SplineSet
132 757 m 1
 258 757 l 1
 328 607 l 1
 258 607 l 1
 132 757 l 1
204 -23 m 0
 106 -23 40 42 40 139 c 0
 40 236 92 291 199 309 c 2
 255 319 l 2
 301 326 367 329 367 382 c 0
 367 418 340 436 286 436 c 0
 217 436 194 418 187 362 c 1
 52 362 l 1
 61 487 137 549 283 549 c 0
 429 549 504 493 504 383 c 2
 504 83 l 2
 504 55 511 40 536 17 c 1
 536 0 l 1
 384 0 l 1
 371 16 368 26 368 54 c 1
 319 3 264 -23 204 -23 c 0
367 217 m 2
 367 255 l 1
 351 247 345 245 308 238 c 2
 260 229 l 2
 202 217 180 197 180 155 c 0
 180 115 209 90 256 90 c 0
 327 90 367 136 367 217 c 2
EndSplineSet
EndChar

StartChar: aacute
Encoding: 225 225 163
Width: 566
GlyphClass: 2
Flags: W
AnchorPoint: "Anchor-4" 451 0 basechar 0 {150-150 2} {}
AnchorPoint: "Anchor-2" 254 0 basechar 0
LayerCount: 2
Back
Fore
SplineSet
411 757 m 1
 285 607 l 1
 215 607 l 1
 285 757 l 1
 411 757 l 1
204 -23 m 0
 106 -23 40 42 40 139 c 0
 40 236 92 291 199 309 c 2
 255 319 l 2
 301 326 367 329 367 382 c 0
 367 418 340 436 286 436 c 0
 217 436 194 418 187 362 c 1
 52 362 l 1
 61 487 137 549 283 549 c 0
 429 549 504 493 504 383 c 2
 504 83 l 2
 504 55 511 40 536 17 c 1
 536 0 l 1
 384 0 l 1
 371 16 368 26 368 54 c 1
 319 3 264 -23 204 -23 c 0
367 217 m 2
 367 255 l 1
 351 247 345 245 308 238 c 2
 260 229 l 2
 202 217 180 197 180 155 c 0
 180 115 209 90 256 90 c 0
 327 90 367 136 367 217 c 2
EndSplineSet
EndChar

StartChar: acircumflex
Encoding: 226 226 164
Width: 566
GlyphClass: 3
Flags: W
AnchorPoint: "Anchor-4" 451 0 basechar 0 {150-150 2} {}
AnchorPoint: "Anchor-2" 254 0 basechar 0
LayerCount: 2
Back
Fore
SplineSet
231 757 m 1
 338 757 l 1
 441 607 l 1
 363 607 l 1
 281 707 l 1
 199 607 l 1
 123 607 l 1
 231 757 l 1
204 -23 m 0
 106 -23 40 42 40 139 c 0
 40 236 92 291 199 309 c 2
 255 319 l 2
 301 326 367 329 367 382 c 0
 367 418 340 436 286 436 c 0
 217 436 194 418 187 362 c 1
 52 362 l 1
 61 487 137 549 283 549 c 0
 429 549 504 493 504 383 c 2
 504 83 l 2
 504 55 511 40 536 17 c 1
 536 0 l 1
 384 0 l 1
 371 16 368 26 368 54 c 1
 319 3 264 -23 204 -23 c 0
367 217 m 2
 367 255 l 1
 351 247 345 245 308 238 c 2
 260 229 l 2
 202 217 180 197 180 155 c 0
 180 115 209 90 256 90 c 0
 327 90 367 136 367 217 c 2
EndSplineSet
Ligature2: "'ccmp' Glyph Composition/Decomposition in Latin lookup 10 per glyph data 1" a circumflexcomb
EndChar

StartChar: atilde
Encoding: 227 227 165
Width: 566
GlyphClass: 2
Flags: W
AnchorPoint: "Anchor-4" 451 0 basechar 0 {150-150 2} {}
AnchorPoint: "Anchor-2" 254 0 basechar 0
LayerCount: 2
Back
Fore
SplineSet
386 749 m 1
 449 749 l 1
 445 664 413 622 354 622 c 0
 339 622 320 626 299 634 c 2
 228 660 l 2
 216 664 207 666 198 666 c 0
 174 666 163 653 158 621 c 1
 95 621 l 1
 99 699 134 745 189 745 c 0
 208 745 209 745 245 732 c 2
 316 707 l 2
 323 704 343 701 350 701 c 0
 371 701 383 717 386 749 c 1
204 -23 m 0
 106 -23 40 42 40 139 c 0
 40 236 92 291 199 309 c 2
 255 319 l 2
 301 326 367 329 367 382 c 0
 367 418 340 436 286 436 c 0
 217 436 194 418 187 362 c 1
 52 362 l 1
 61 487 137 549 283 549 c 0
 429 549 504 493 504 383 c 2
 504 83 l 2
 504 55 511 40 536 17 c 1
 536 0 l 1
 384 0 l 1
 371 16 368 26 368 54 c 1
 319 3 264 -23 204 -23 c 0
367 217 m 2
 367 255 l 1
 351 247 345 245 308 238 c 2
 260 229 l 2
 202 217 180 197 180 155 c 0
 180 115 209 90 256 90 c 0
 327 90 367 136 367 217 c 2
EndSplineSet
EndChar

StartChar: adieresis
Encoding: 228 228 166
Width: 566
GlyphClass: 2
Flags: W
AnchorPoint: "Anchor-4" 451 0 basechar 0 {150-150 2} {}
AnchorPoint: "Anchor-2" 254 0 basechar 0
LayerCount: 2
Back
Fore
SplineSet
425 743 m 1
 425 621 l 1
 315 621 l 1
 315 743 l 1
 425 743 l 1
229 743 m 1
 229 621 l 1
 119 621 l 1
 119 743 l 1
 229 743 l 1
204 -23 m 0
 106 -23 40 42 40 139 c 0
 40 236 92 291 199 309 c 2
 255 319 l 2
 301 326 367 329 367 382 c 0
 367 418 340 436 286 436 c 0
 217 436 194 418 187 362 c 1
 52 362 l 1
 61 487 137 549 283 549 c 0
 429 549 504 493 504 383 c 2
 504 83 l 2
 504 55 511 40 536 17 c 1
 536 0 l 1
 384 0 l 1
 371 16 368 26 368 54 c 1
 319 3 264 -23 204 -23 c 0
367 217 m 2
 367 255 l 1
 351 247 345 245 308 238 c 2
 260 229 l 2
 202 217 180 197 180 155 c 0
 180 115 209 90 256 90 c 0
 327 90 367 136 367 217 c 2
EndSplineSet
EndChar

StartChar: aring
Encoding: 229 229 167
Width: 566
GlyphClass: 2
Flags: W
AnchorPoint: "Anchor-4" 451 0 basechar 0 {150-150 2} {}
AnchorPoint: "Anchor-2" 254 0 basechar 0
LayerCount: 2
Back
Fore
SplineSet
273 770 m 0
 323 770 362 730 362 679 c 0
 362 630 321 590 272 590 c 0
 222 590 182 630 182 680 c 0
 182 730 222 770 273 770 c 0
273 722 m 0
 249 722 230 703 230 680 c 0
 230 657 249 638 273 638 c 0
 295 638 314 657 314 680 c 0
 314 703 296 722 273 722 c 0
204 -23 m 0
 106 -23 40 42 40 139 c 0
 40 236 92 291 199 309 c 2
 255 319 l 2
 301 326 367 329 367 382 c 0
 367 418 340 436 286 436 c 0
 217 436 194 418 187 362 c 1
 52 362 l 1
 61 487 137 549 283 549 c 0
 429 549 504 493 504 383 c 2
 504 83 l 2
 504 55 511 40 536 17 c 1
 536 0 l 1
 384 0 l 1
 371 16 368 26 368 54 c 1
 319 3 264 -23 204 -23 c 0
367 217 m 2
 367 255 l 1
 351 247 345 245 308 238 c 2
 260 229 l 2
 202 217 180 197 180 155 c 0
 180 115 209 90 256 90 c 0
 327 90 367 136 367 217 c 2
EndSplineSet
EndChar

StartChar: ae
Encoding: 230 230 168
Width: 889
GlyphClass: 2
Flags: W
AnchorPoint: "Anchor-2" 419 0 basechar 0
LayerCount: 2
Back
Fore
SplineSet
495 226 m 1
 495 105 561 84 609 84 c 0
 657 84 701 113 713 152 c 1
 851 152 l 1
 820 45 722 -23 601 -23 c 0
 513 -23 443 13 401 81 c 1
 339 8 277 -24 196 -24 c 0
 93 -24 28 40 28 141 c 0
 28 239 79 294 187 312 c 2
 243 322 l 2
 296 331 355 334 355 383 c 0
 355 419 327 436 270 436 c 0
 207 436 182 416 175 362 c 1
 44 362 l 1
 46 486 123 549 272 549 c 0
 350 549 409 532 447 499 c 1
 488 532 541 549 602 549 c 0
 714 549 858 489 858 250 c 0
 858 245 858 238 857 226 c 1
 495 226 l 1
355 216 m 2
 355 254 l 1
 338 244 326 240 296 235 c 2
 248 228 l 2
 195 221 168 196 168 155 c 0
 168 114 197 89 244 89 c 0
 316 89 355 134 355 216 c 2
496 319 m 1
 712 319 l 1
 705 400 668 442 603 442 c 0
 539 442 502 400 496 319 c 1
EndSplineSet
Substitution2: "'smcp' Lowercase to Small Capitals in Latin lookup 2 subtable" sc.ae
EndChar

StartChar: ccedilla
Encoding: 231 231 169
Width: 558
GlyphClass: 2
Flags: W
LayerCount: 2
Back
Fore
SplineSet
180 260 m 0
 180 187 203 90 295 90 c 0
 348 90 377 118 394 187 c 1
 528 187 l 1
 517 63 423 -23 299 -23 c 2
 297 -23 l 1
 280 -63 l 1
 293 -58 306 -56 321 -56 c 0
 369 -56 398 -83 398 -127 c 0
 398 -187 352 -220 269 -220 c 0
 225 -220 191 -213 131 -192 c 1
 150 -140 l 1
 201 -163 227 -170 254 -170 c 0
 286 -170 312 -152 312 -129 c 0
 312 -108 292 -94 261 -94 c 0
 241 -94 230 -97 211 -106 c 1
 254 -21 l 1
 116 -3 40 96 40 259 c 0
 40 443 134 549 295 549 c 0
 430 549 518 470 528 338 c 1
 394 338 l 1
 378 409 351 436 294 436 c 0
 197 436 180 334 180 260 c 0
EndSplineSet
EndChar

StartChar: egrave
Encoding: 232 232 170
Width: 583
GlyphClass: 2
Flags: W
AnchorPoint: "Anchor-4" 337 0 basechar 0
AnchorPoint: "Anchor-2" 274 0 basechar 0
LayerCount: 2
Back
Fore
SplineSet
153 757 m 1
 279 757 l 1
 349 607 l 1
 279 607 l 1
 153 757 l 1
290 549 m 0
 398 549 543 489 543 250 c 0
 543 243 543 238 542 226 c 1
 180 226 l 1
 183 153 198 84 292 84 c 0
 343 84 382 109 399 152 c 1
 537 152 l 1
 506 46 408 -23 287 -23 c 0
 134 -23 40 83 40 256 c 0
 40 437 135 549 290 549 c 0
397 319 m 1
 391 398 353 442 288 442 c 0
 226 442 191 401 182 319 c 1
 397 319 l 1
EndSplineSet
EndChar

StartChar: eacute
Encoding: 233 233 171
Width: 583
GlyphClass: 2
Flags: W
AnchorPoint: "Anchor-4" 337 0 basechar 0
AnchorPoint: "Anchor-2" 274 0 basechar 0
LayerCount: 2
Back
Fore
SplineSet
419 757 m 1
 293 607 l 1
 223 607 l 1
 293 757 l 1
 419 757 l 1
290 549 m 0
 398 549 543 489 543 250 c 0
 543 243 543 238 542 226 c 1
 180 226 l 1
 183 153 198 84 292 84 c 0
 343 84 382 109 399 152 c 1
 537 152 l 1
 506 46 408 -23 287 -23 c 0
 134 -23 40 83 40 256 c 0
 40 437 135 549 290 549 c 0
397 319 m 1
 391 398 353 442 288 442 c 0
 226 442 191 401 182 319 c 1
 397 319 l 1
EndSplineSet
EndChar

StartChar: ecircumflex
Encoding: 234 234 172
Width: 583
GlyphClass: 3
Flags: W
AnchorPoint: "Anchor-4" 337 0 basechar 0
AnchorPoint: "Anchor-2" 274 0 basechar 0
LayerCount: 2
Back
Fore
SplineSet
239 757 m 1
 346 757 l 1
 449 607 l 1
 371 607 l 1
 289 707 l 1
 207 607 l 1
 131 607 l 1
 239 757 l 1
290 549 m 0
 398 549 543 489 543 250 c 0
 543 243 543 238 542 226 c 1
 180 226 l 1
 183 153 198 84 292 84 c 0
 343 84 382 109 399 152 c 1
 537 152 l 1
 506 46 408 -23 287 -23 c 0
 134 -23 40 83 40 256 c 0
 40 437 135 549 290 549 c 0
397 319 m 1
 391 398 353 442 288 442 c 0
 226 442 191 401 182 319 c 1
 397 319 l 1
EndSplineSet
Ligature2: "'ccmp' Glyph Composition/Decomposition in Latin lookup 10 per glyph data 1" e circumflexcomb
EndChar

StartChar: edieresis
Encoding: 235 235 173
Width: 583
GlyphClass: 2
Flags: W
AnchorPoint: "Anchor-4" 337 0 basechar 0
AnchorPoint: "Anchor-2" 274 0 basechar 0
LayerCount: 2
Back
Fore
SplineSet
443 743 m 1
 443 621 l 1
 333 621 l 1
 333 743 l 1
 443 743 l 1
247 743 m 1
 247 621 l 1
 137 621 l 1
 137 743 l 1
 247 743 l 1
290 549 m 0
 398 549 543 489 543 250 c 0
 543 243 543 238 542 226 c 1
 180 226 l 1
 183 153 198 84 292 84 c 0
 343 84 382 109 399 152 c 1
 537 152 l 1
 506 46 408 -23 287 -23 c 0
 134 -23 40 83 40 256 c 0
 40 437 135 549 290 549 c 0
397 319 m 1
 391 398 353 442 288 442 c 0
 226 442 191 401 182 319 c 1
 397 319 l 1
EndSplineSet
EndChar

StartChar: igrave
Encoding: 236 236 174
Width: 280
GlyphClass: 3
Flags: W
AnchorPoint: "Anchor-4" 164 0 basechar 0
AnchorPoint: "Anchor-2" 134 0 basechar 0
LayerCount: 2
Back
Fore
SplineSet
10 757 m 1
 136 757 l 1
 206 607 l 1
 136 607 l 1
 10 757 l 1
210 540 m 1
 210 0 l 1
 70 0 l 1
 70 540 l 1
 210 540 l 1
EndSplineSet
Ligature2: "'ccmp' Glyph Composition/Decomposition in Latin lookup 6 subtable" i gravecomb
EndChar

StartChar: iacute
Encoding: 237 237 175
Width: 280
GlyphClass: 3
Flags: W
AnchorPoint: "Anchor-4" 164 0 basechar 0
AnchorPoint: "Anchor-2" 134 0 basechar 0
LayerCount: 2
Back
Fore
SplineSet
270 757 m 1
 144 607 l 1
 74 607 l 1
 144 757 l 1
 270 757 l 1
210 540 m 1
 210 0 l 1
 70 0 l 1
 70 540 l 1
 210 540 l 1
EndSplineSet
Ligature2: "'ccmp' Glyph Composition/Decomposition in Latin lookup 6 subtable" i acutecomb
EndChar

StartChar: icircumflex
Encoding: 238 238 176
Width: 300
GlyphClass: 3
Flags: W
AnchorPoint: "Anchor-4" 174 0 basechar 0
AnchorPoint: "Anchor-2" 144 0 basechar 0
LayerCount: 2
Back
Fore
SplineSet
99 757 m 1
 206 757 l 1
 309 607 l 1
 231 607 l 1
 149 707 l 1
 67 607 l 1
 -9 607 l 1
 99 757 l 1
220 540 m 1
 220 0 l 1
 80 0 l 1
 80 540 l 1
 220 540 l 1
EndSplineSet
Ligature2: "'ccmp' Glyph Composition/Decomposition in Latin lookup 10 per glyph data 1" i circumflexcomb
Ligature2: "'ccmp' Glyph Composition/Decomposition in Latin lookup 6 subtable" i circumflexcomb
EndChar

StartChar: idieresis
Encoding: 239 239 177
Width: 300
GlyphClass: 3
Flags: W
AnchorPoint: "Anchor-4" 174 0 basechar 0
AnchorPoint: "Anchor-2" 144 0 basechar 0
LayerCount: 2
Back
Fore
SplineSet
302 743 m 1
 302 621 l 1
 192 621 l 1
 192 743 l 1
 302 743 l 1
106 743 m 1
 106 621 l 1
 -4 621 l 1
 -4 743 l 1
 106 743 l 1
220 540 m 1
 220 0 l 1
 80 0 l 1
 80 540 l 1
 220 540 l 1
EndSplineSet
Ligature2: "'ccmp' Glyph Composition/Decomposition in Latin lookup 6 subtable" i diaeresiscomb
EndChar

StartChar: eth
Encoding: 240 240 178
Width: 614
GlyphClass: 2
Flags: W
LayerCount: 2
Back
Fore
SplineSet
197 741 m 1
 261 717 274 701 299 692 c 1
 386 744 l 1
 437 710 l 1
 353 660 l 1
 504 558 574 435 574 269 c 0
 574 85 475 -23 307 -23 c 0
 140 -23 40 85 40 265 c 0
 40 426 137 534 279 534 c 0
 305 534 325 530 364 515 c 1
 337 558 307 589 269 611 c 1
 192 565 l 1
 150 602 l 1
 220 646 l 1
 193 662 179 670 130 694 c 1
 197 741 l 1
307 429 m 0
 231 429 181 362 181 260 c 0
 181 157 231 90 307 90 c 0
 383 90 433 157 433 257 c 0
 433 362 384 429 307 429 c 0
EndSplineSet
Substitution2: "'smcp' Lowercase to Small Capitals in Latin lookup 2 subtable" sc.eth
EndChar

StartChar: ntilde
Encoding: 241 241 179
Width: 613
GlyphClass: 2
Flags: W
LayerCount: 2
Back
Fore
SplineSet
416 749 m 1
 479 749 l 1
 475 664 443 622 384 622 c 0
 369 622 350 626 329 634 c 2
 258 660 l 2
 246 664 237 666 228 666 c 0
 204 666 193 653 188 621 c 1
 125 621 l 1
 129 699 164 745 219 745 c 0
 238 745 239 745 275 732 c 2
 346 707 l 2
 353 704 373 701 380 701 c 0
 401 701 413 717 416 749 c 1
65 540 m 1
 205 540 l 1
 205 462 l 1
 245 522 294 549 367 549 c 0
 482 549 548 481 548 362 c 2
 548 0 l 1
 408 0 l 1
 408 333 l 2
 408 397 378 430 318 430 c 0
 250 430 205 388 205 324 c 2
 205 0 l 1
 65 0 l 1
 65 540 l 1
EndSplineSet
EndChar

StartChar: ograve
Encoding: 242 242 180
Width: 614
GlyphClass: 2
Flags: W
AnchorPoint: "Anchor-4" 379 0 basechar 0
AnchorPoint: "Anchor-2" 307 0 basechar 0
LayerCount: 2
Back
Fore
SplineSet
165 757 m 1
 291 757 l 1
 361 607 l 1
 291 607 l 1
 165 757 l 1
306 549 m 0
 475 549 574 442 574 259 c 0
 574 86 471 -23 307 -23 c 0
 141 -23 40 85 40 263 c 0
 40 440 141 549 306 549 c 0
307 436 m 0
 231 436 180 366 180 263 c 0
 180 160 231 90 307 90 c 0
 382 90 434 160 434 261 c 0
 434 367 384 436 307 436 c 0
EndSplineSet
EndChar

StartChar: oacute
Encoding: 243 243 181
Width: 614
GlyphClass: 2
Flags: W
AnchorPoint: "Anchor-4" 379 0 basechar 0
AnchorPoint: "Anchor-2" 307 0 basechar 0
LayerCount: 2
Back
Fore
SplineSet
431 757 m 1
 305 607 l 1
 235 607 l 1
 305 757 l 1
 431 757 l 1
306 549 m 0
 475 549 574 442 574 259 c 0
 574 86 471 -23 307 -23 c 0
 141 -23 40 85 40 263 c 0
 40 440 141 549 306 549 c 0
307 436 m 0
 231 436 180 366 180 263 c 0
 180 160 231 90 307 90 c 0
 382 90 434 160 434 261 c 0
 434 367 384 436 307 436 c 0
EndSplineSet
EndChar

StartChar: ocircumflex
Encoding: 244 244 182
Width: 614
GlyphClass: 3
Flags: W
AnchorPoint: "Anchor-4" 379 0 basechar 0
AnchorPoint: "Anchor-2" 307 0 basechar 0
LayerCount: 2
Back
Fore
SplineSet
255 759 m 1
 362 759 l 1
 465 609 l 1
 387 609 l 1
 305 709 l 1
 223 609 l 1
 147 609 l 1
 255 759 l 1
306 549 m 0
 475 549 574 442 574 259 c 0
 574 86 471 -23 307 -23 c 0
 141 -23 40 85 40 263 c 0
 40 440 141 549 306 549 c 0
307 436 m 0
 231 436 180 366 180 263 c 0
 180 160 231 90 307 90 c 0
 382 90 434 160 434 261 c 0
 434 367 384 436 307 436 c 0
EndSplineSet
Ligature2: "'ccmp' Glyph Composition/Decomposition in Latin lookup 10 per glyph data 1" o circumflexcomb
EndChar

StartChar: otilde
Encoding: 245 245 183
Width: 614
GlyphClass: 2
Flags: W
AnchorPoint: "Anchor-4" 379 0 basechar 0
AnchorPoint: "Anchor-2" 307 0 basechar 0
LayerCount: 2
Back
Fore
SplineSet
419 749 m 1
 482 749 l 1
 478 664 446 622 387 622 c 0
 372 622 353 626 332 634 c 2
 261 660 l 2
 249 664 240 666 231 666 c 0
 207 666 196 653 191 621 c 1
 128 621 l 1
 132 699 167 745 222 745 c 0
 241 745 242 745 278 732 c 2
 349 707 l 2
 356 704 376 701 383 701 c 0
 404 701 416 717 419 749 c 1
306 549 m 0
 475 549 574 442 574 259 c 0
 574 86 471 -23 307 -23 c 0
 141 -23 40 85 40 263 c 0
 40 440 141 549 306 549 c 0
307 436 m 0
 231 436 180 366 180 263 c 0
 180 160 231 90 307 90 c 0
 382 90 434 160 434 261 c 0
 434 367 384 436 307 436 c 0
EndSplineSet
EndChar

StartChar: odieresis
Encoding: 246 246 184
Width: 614
GlyphClass: 2
Flags: W
AnchorPoint: "Anchor-4" 379 0 basechar 0
AnchorPoint: "Anchor-2" 307 0 basechar 0
LayerCount: 2
Back
Fore
SplineSet
455 743 m 1
 455 621 l 1
 345 621 l 1
 345 743 l 1
 455 743 l 1
259 743 m 1
 259 621 l 1
 149 621 l 1
 149 743 l 1
 259 743 l 1
306 549 m 0
 475 549 574 442 574 259 c 0
 574 86 471 -23 307 -23 c 0
 141 -23 40 85 40 263 c 0
 40 440 141 549 306 549 c 0
307 436 m 0
 231 436 180 366 180 263 c 0
 180 160 231 90 307 90 c 0
 382 90 434 160 434 261 c 0
 434 367 384 436 307 436 c 0
EndSplineSet
EndChar

StartChar: divide
Encoding: 247 247 185
Width: 584
GlyphClass: 2
Flags: W
LayerCount: 2
Back
Fore
SplineSet
534 291 m 1
 534 172 l 1
 50 172 l 1
 50 291 l 1
 534 291 l 1
230 474 m 1
 354 474 l 1
 354 351 l 1
 230 351 l 1
 230 474 l 1
230 112 m 1
 354 112 l 1
 354 -11 l 1
 230 -11 l 1
 230 112 l 1
EndSplineSet
EndChar

StartChar: oslash
Encoding: 248 248 186
Width: 614
GlyphClass: 2
Flags: W
LayerCount: 2
Back
Fore
SplineSet
128 35 m 1
 56 -38 l 1
 13 2 l 1
 88 79 l 1
 54 128 38 188 38 263 c 0
 38 441 140 549 307 549 c 0
 380 549 438 529 489 487 c 1
 557 557 l 1
 600 516 l 1
 528 443 l 1
 560 393 575 335 575 263 c 0
 575 86 473 -23 308 -23 c 0
 237 -23 168 -1 128 35 c 1
423 336 m 1
 222 132 l 1
 246 104 275 90 308 90 c 0
 382 90 435 161 435 260 c 0
 435 287 431 312 423 336 c 1
192 184 m 1
 394 390 l 1
 366 424 340 437 305 437 c 0
 230 437 178 366 178 266 c 0
 178 236 183 207 192 184 c 1
EndSplineSet
Substitution2: "'smcp' Lowercase to Small Capitals in Latin lookup 2 subtable" sc.oslash
EndChar

StartChar: ugrave
Encoding: 249 249 187
Width: 613
GlyphClass: 2
Flags: W
AnchorPoint: "Anchor-4" 481 0 basechar 0 {150-150 2} {}
AnchorPoint: "Anchor-2" 289 0 basechar 0
LayerCount: 2
Back
Fore
SplineSet
163 757 m 1
 289 757 l 1
 359 607 l 1
 289 607 l 1
 163 757 l 1
548 0 m 1
 408 0 l 1
 408 64 l 1
 368 4 319 -23 246 -23 c 0
 131 -23 65 45 65 164 c 2
 65 540 l 1
 205 540 l 1
 205 193 l 2
 205 128 235 96 295 96 c 0
 363 96 408 138 408 202 c 2
 408 540 l 1
 548 540 l 1
 548 0 l 1
EndSplineSet
EndChar

StartChar: uacute
Encoding: 250 250 188
Width: 613
GlyphClass: 2
Flags: W
AnchorPoint: "Anchor-4" 481 0 basechar 0 {150-150 2} {}
AnchorPoint: "Anchor-2" 289 0 basechar 0
LayerCount: 2
Back
Fore
SplineSet
439 757 m 1
 313 607 l 1
 243 607 l 1
 313 757 l 1
 439 757 l 1
548 0 m 1
 408 0 l 1
 408 64 l 1
 368 4 319 -23 246 -23 c 0
 131 -23 65 45 65 164 c 2
 65 540 l 1
 205 540 l 1
 205 193 l 2
 205 128 235 96 295 96 c 0
 363 96 408 138 408 202 c 2
 408 540 l 1
 548 540 l 1
 548 0 l 1
EndSplineSet
EndChar

StartChar: ucircumflex
Encoding: 251 251 189
Width: 613
GlyphClass: 3
Flags: W
AnchorPoint: "Anchor-4" 481 0 basechar 0 {150-150 2} {}
AnchorPoint: "Anchor-2" 289 0 basechar 0
LayerCount: 2
Back
Fore
SplineSet
248 757 m 1
 355 757 l 1
 458 607 l 1
 380 607 l 1
 298 707 l 1
 216 607 l 1
 140 607 l 1
 248 757 l 1
548 0 m 1
 408 0 l 1
 408 64 l 1
 368 4 319 -23 246 -23 c 0
 131 -23 65 45 65 164 c 2
 65 540 l 1
 205 540 l 1
 205 193 l 2
 205 128 235 96 295 96 c 0
 363 96 408 138 408 202 c 2
 408 540 l 1
 548 540 l 1
 548 0 l 1
EndSplineSet
Ligature2: "'ccmp' Glyph Composition/Decomposition in Latin lookup 10 per glyph data 1" u circumflexcomb
EndChar

StartChar: udieresis
Encoding: 252 252 190
Width: 613
GlyphClass: 2
Flags: W
AnchorPoint: "Anchor-4" 481 0 basechar 0 {150-150 2} {}
AnchorPoint: "Anchor-2" 289 0 basechar 0
LayerCount: 2
Back
Fore
SplineSet
451 743 m 1
 451 621 l 1
 341 621 l 1
 341 743 l 1
 451 743 l 1
255 743 m 1
 255 621 l 1
 145 621 l 1
 145 743 l 1
 255 743 l 1
548 0 m 1
 408 0 l 1
 408 64 l 1
 368 4 319 -23 246 -23 c 0
 131 -23 65 45 65 164 c 2
 65 540 l 1
 205 540 l 1
 205 193 l 2
 205 128 235 96 295 96 c 0
 363 96 408 138 408 202 c 2
 408 540 l 1
 548 540 l 1
 548 0 l 1
EndSplineSet
EndChar

StartChar: yacute
Encoding: 253 253 191
Width: 549
GlyphClass: 2
Flags: W
AnchorPoint: "Anchor-4" 437 0 basechar 0 {150-150 9} {}
AnchorPoint: "Anchor-2" 455 0 basechar 0
LayerCount: 2
Back
Fore
SplineSet
411 757 m 1
 285 607 l 1
 215 607 l 1
 285 757 l 1
 411 757 l 1
211 -26 m 2
 211 -22 l 1
 10 540 l 1
 164 540 l 1
 283 147 l 1
 395 540 l 1
 539 540 l 1
 317 -99 l 2
 304 -136 290 -219 137 -219 c 0
 120 -219 108 -218 87 -215 c 1
 87 -110 l 1
 105 -115 113 -116 124 -116 c 0
 173 -116 211 -77 211 -26 c 2
EndSplineSet
EndChar

StartChar: thorn
Encoding: 254 254 192
Width: 621
GlyphClass: 2
Flags: W
LayerCount: 2
Back
Fore
SplineSet
205 729 m 1
 205 460 l 1
 239 520 287 549 355 549 c 0
 485 549 581 427 581 262 c 0
 581 99 485 -23 355 -23 c 0
 287 -23 239 5 205 64 c 1
 205 -218 l 1
 65 -218 l 1
 65 729 l 1
 205 729 l 1
323 432 m 0
 253 432 205 363 205 262 c 0
 205 162 253 94 323 94 c 0
 392 94 441 162 441 260 c 0
 441 363 394 432 323 432 c 0
EndSplineSet
Substitution2: "'smcp' Lowercase to Small Capitals in Latin lookup 2 subtable" sc.thorn
EndChar

StartChar: ydieresis
Encoding: 255 255 193
Width: 549
GlyphClass: 2
Flags: W
AnchorPoint: "Anchor-4" 437 0 basechar 0 {150-150 9} {}
AnchorPoint: "Anchor-2" 455 0 basechar 0
LayerCount: 2
Back
Fore
SplineSet
427 743 m 1
 427 621 l 1
 317 621 l 1
 317 743 l 1
 427 743 l 1
231 743 m 1
 231 621 l 1
 121 621 l 1
 121 743 l 1
 231 743 l 1
211 -26 m 2
 211 -22 l 1
 10 540 l 1
 164 540 l 1
 283 147 l 1
 395 540 l 1
 539 540 l 1
 317 -99 l 2
 304 -136 290 -219 137 -219 c 0
 120 -219 108 -218 87 -215 c 1
 87 -110 l 1
 105 -115 113 -116 124 -116 c 0
 173 -116 211 -77 211 -26 c 2
EndSplineSet
EndChar

StartChar: Amacron
Encoding: 256 256 194
Width: 697
GlyphClass: 2
Flags: W
AnchorPoint: "Anchor-2" 360 0 basechar 0
LayerCount: 2
Back
Fore
SplineSet
514 879 m 1
 514 800 l 1
 215 800 l 1
 215 879 l 1
 514 879 l 1
485 147 m 1
 212 147 l 1
 163 0 l 1
 10 0 l 1
 269 729 l 1
 435 729 l 1
 687 0 l 1
 533 0 l 1
 485 147 l 1
444 272 m 1
 349 557 l 1
 254 272 l 1
 444 272 l 1
EndSplineSet
EndChar

StartChar: amacron
Encoding: 257 257 195
Width: 566
GlyphClass: 2
Flags: W
AnchorPoint: "Anchor-2" 260 0 basechar 0
LayerCount: 2
Back
Fore
SplineSet
421 699 m 1
 421 620 l 1
 122 620 l 1
 122 699 l 1
 421 699 l 1
204 -23 m 0
 106 -23 40 42 40 139 c 0
 40 236 92 291 199 309 c 2
 255 319 l 2
 301 326 367 329 367 382 c 0
 367 418 340 436 286 436 c 0
 217 436 194 418 187 362 c 1
 52 362 l 1
 61 487 137 549 283 549 c 0
 429 549 504 493 504 383 c 2
 504 83 l 2
 504 55 511 40 536 17 c 1
 536 0 l 1
 384 0 l 1
 371 16 368 26 368 54 c 1
 319 3 264 -23 204 -23 c 0
367 217 m 2
 367 255 l 1
 351 247 345 245 308 238 c 2
 260 229 l 2
 202 217 180 197 180 155 c 0
 180 115 209 90 256 90 c 0
 327 90 367 136 367 217 c 2
EndSplineSet
EndChar

StartChar: Abreve
Encoding: 258 258 196
Width: 697
GlyphClass: 3
Flags: W
AnchorPoint: "Anchor-2" 360 0 basechar 0
LayerCount: 2
Back
Fore
SplineSet
493 900 m 1
 493 889 l 2
 493 814 436 757 361 757 c 0
 286 757 229 814 229 890 c 2
 229 900 l 1
 285 900 l 1
 291 856 316 834 362 834 c 0
 406 834 429 854 437 900 c 1
 493 900 l 1
485 147 m 1
 212 147 l 1
 163 0 l 1
 10 0 l 1
 269 729 l 1
 435 729 l 1
 687 0 l 1
 533 0 l 1
 485 147 l 1
444 272 m 1
 349 557 l 1
 254 272 l 1
 444 272 l 1
EndSplineSet
Ligature2: "'ccmp' Glyph Composition/Decomposition in Latin lookup 10 per glyph data 1" A brevecomb
EndChar

StartChar: abreve
Encoding: 259 259 197
Width: 566
GlyphClass: 3
Flags: W
AnchorPoint: "Anchor-2" 260 0 basechar 0
LayerCount: 2
Back
Fore
SplineSet
417 748 m 1
 417 737 l 2
 417 662 360 605 285 605 c 0
 210 605 153 662 153 738 c 2
 153 748 l 1
 209 748 l 1
 215 704 240 682 286 682 c 0
 330 682 353 702 361 748 c 1
 417 748 l 1
204 -23 m 0
 106 -23 40 42 40 139 c 0
 40 236 92 291 199 309 c 2
 255 319 l 2
 301 326 367 329 367 382 c 0
 367 418 340 436 286 436 c 0
 217 436 194 418 187 362 c 1
 52 362 l 1
 61 487 137 549 283 549 c 0
 429 549 504 493 504 383 c 2
 504 83 l 2
 504 55 511 40 536 17 c 1
 536 0 l 1
 384 0 l 1
 371 16 368 26 368 54 c 1
 319 3 264 -23 204 -23 c 0
367 217 m 2
 367 255 l 1
 351 247 345 245 308 238 c 2
 260 229 l 2
 202 217 180 197 180 155 c 0
 180 115 209 90 256 90 c 0
 327 90 367 136 367 217 c 2
EndSplineSet
Ligature2: "'ccmp' Glyph Composition/Decomposition in Latin lookup 10 per glyph data 1" a brevecomb
EndChar

StartChar: Aogonek
Encoding: 260 260 198
Width: 717
GlyphClass: 2
Flags: W
AnchorPoint: "Anchor-3" 355 730 basechar 0
LayerCount: 2
Back
Fore
SplineSet
495 147 m 1
 222 147 l 1
 173 0 l 1
 20 0 l 1
 279 729 l 1
 446 729 l 1
 697 0 l 1
 628 -30 584 -80 584 -129 c 0
 584 -165 608 -182 660 -182 c 0
 679 -182 699 -180 717 -177 c 1
 717 -224 l 1
 689 -231 669 -233 642 -233 c 0
 548 -233 494 -198 494 -138 c 0
 494 -79 540 -28 618 0 c 1
 543 0 l 1
 495 147 l 1
455 272 m 1
 360 557 l 1
 264 272 l 1
 455 272 l 1
EndSplineSet
EndChar

StartChar: aogonek
Encoding: 261 261 199
Width: 556
GlyphClass: 2
Flags: W
AnchorPoint: "Anchor-3" 293 550 basechar 0
LayerCount: 2
Back
Fore
SplineSet
204 -23 m 0
 106 -23 40 42 40 139 c 0
 40 236 92 291 199 309 c 2
 255 319 l 2
 301 326 367 329 367 382 c 0
 367 418 340 436 286 436 c 0
 217 436 194 418 187 362 c 1
 52 362 l 1
 61 487 137 549 283 549 c 0
 429 549 504 493 504 383 c 2
 504 83 l 2
 504 55 511 40 536 17 c 1
 536 0 l 1
 465 -38 427 -82 427 -129 c 0
 427 -165 451 -182 503 -182 c 0
 522 -182 541 -180 560 -177 c 1
 560 -224 l 1
 532 -231 512 -233 485 -233 c 0
 392 -233 337 -198 337 -139 c 0
 337 -80 384 -27 461 0 c 1
 384 0 l 1
 371 16 368 26 368 54 c 1
 319 3 264 -23 204 -23 c 0
367 217 m 2
 367 255 l 1
 351 247 345 245 308 238 c 2
 260 229 l 2
 202 217 180 197 180 155 c 0
 180 115 209 90 256 90 c 0
 327 90 367 136 367 217 c 2
EndSplineSet
EndChar

StartChar: Cacute
Encoding: 262 262 200
Width: 721
GlyphClass: 2
Flags: W
AnchorPoint: "Anchor-2" 371 0 basechar 0
LayerCount: 2
Back
Fore
SplineSet
533 900 m 1
 377 780 l 1
 297 780 l 1
 397 900 l 1
 533 900 l 1
535 482 m 1
 527 519 504 613 379 613 c 0
 261 613 190 517 190 356 c 0
 190 197 258 103 374 103 c 0
 467 103 526 156 535 249 c 1
 681 249 l 1
 672 82 551 -23 370 -23 c 0
 167 -23 40 124 40 358 c 0
 40 594 168 741 374 741 c 0
 544 741 665 646 678 482 c 1
 535 482 l 1
EndSplineSet
EndChar

StartChar: cacute
Encoding: 263 263 201
Width: 558
GlyphClass: 2
Flags: W
AnchorPoint: "Anchor-2" 290 0 basechar 0
LayerCount: 2
Back
Fore
SplineSet
419 757 m 1
 293 607 l 1
 223 607 l 1
 293 757 l 1
 419 757 l 1
294 436 m 0
 197 436 180 334 180 259 c 0
 180 154 223 90 294 90 c 0
 348 90 376 117 394 187 c 1
 528 187 l 1
 515 58 424 -23 293 -23 c 0
 133 -23 40 81 40 259 c 0
 40 443 134 549 295 549 c 0
 430 549 518 470 528 338 c 1
 394 338 l 1
 378 409 351 436 294 436 c 0
EndSplineSet
EndChar

StartChar: Ccircumflex
Encoding: 264 264 202
Width: 721
GlyphClass: 2
Flags: W
AnchorPoint: "Anchor-2" 360 0 basechar 0
LayerCount: 2
Back
Fore
SplineSet
329 900 m 1
 436 900 l 1
 539 780 l 1
 451 780 l 1
 379 840 l 1
 307 780 l 1
 221 780 l 1
 329 900 l 1
535 482 m 1
 527 519 504 613 379 613 c 0
 261 613 190 517 190 356 c 0
 190 197 258 103 374 103 c 0
 467 103 526 156 535 249 c 1
 681 249 l 1
 672 82 551 -23 370 -23 c 0
 167 -23 40 124 40 358 c 0
 40 594 168 741 374 741 c 0
 544 741 665 646 678 482 c 1
 535 482 l 1
EndSplineSet
EndChar

StartChar: ccircumflex
Encoding: 265 265 203
Width: 558
GlyphClass: 2
Flags: W
AnchorPoint: "Anchor-2" 280 0 basechar 0
LayerCount: 2
Back
Fore
SplineSet
248 759 m 1
 355 759 l 1
 458 609 l 1
 380 609 l 1
 298 709 l 1
 216 609 l 1
 140 609 l 1
 248 759 l 1
294 436 m 0
 197 436 180 334 180 259 c 0
 180 154 223 90 294 90 c 0
 348 90 376 117 394 187 c 1
 528 187 l 1
 515 58 424 -23 293 -23 c 0
 133 -23 40 81 40 259 c 0
 40 443 134 549 295 549 c 0
 430 549 518 470 528 338 c 1
 394 338 l 1
 378 409 351 436 294 436 c 0
EndSplineSet
EndChar

StartChar: Cdotaccent
Encoding: 266 266 204
Width: 721
GlyphClass: 2
Flags: W
AnchorPoint: "Anchor-2" 360 0 basechar 0
LayerCount: 2
Back
Fore
SplineSet
433 900 m 1
 433 778 l 1
 323 778 l 1
 323 900 l 1
 433 900 l 1
535 482 m 1
 527 519 504 613 379 613 c 0
 261 613 190 517 190 356 c 0
 190 197 258 103 374 103 c 0
 467 103 526 156 535 249 c 1
 681 249 l 1
 672 82 551 -23 370 -23 c 0
 167 -23 40 124 40 358 c 0
 40 594 168 741 374 741 c 0
 544 741 665 646 678 482 c 1
 535 482 l 1
EndSplineSet
EndChar

StartChar: cdotaccent
Encoding: 267 267 205
Width: 558
GlyphClass: 2
Flags: W
AnchorPoint: "Anchor-2" 288 0 basechar 0
LayerCount: 2
Back
Fore
SplineSet
354 731 m 1
 354 609 l 1
 244 609 l 1
 244 731 l 1
 354 731 l 1
294 436 m 0
 197 436 180 334 180 259 c 0
 180 154 223 90 294 90 c 0
 348 90 376 117 394 187 c 1
 528 187 l 1
 515 58 424 -23 293 -23 c 0
 133 -23 40 81 40 259 c 0
 40 443 134 549 295 549 c 0
 430 549 518 470 528 338 c 1
 394 338 l 1
 378 409 351 436 294 436 c 0
EndSplineSet
EndChar

StartChar: Ccaron
Encoding: 268 268 206
Width: 721
GlyphClass: 2
Flags: W
AnchorPoint: "Anchor-2" 378 0 basechar 0
LayerCount: 2
Back
Fore
SplineSet
425 780 m 1
 318 780 l 1
 215 900 l 1
 303 900 l 1
 375 840 l 1
 447 900 l 1
 533 900 l 1
 425 780 l 1
535 482 m 1
 527 519 504 613 379 613 c 0
 261 613 190 517 190 356 c 0
 190 197 258 103 374 103 c 0
 467 103 526 156 535 249 c 1
 681 249 l 1
 672 82 551 -23 370 -23 c 0
 167 -23 40 124 40 358 c 0
 40 594 168 741 374 741 c 0
 544 741 665 646 678 482 c 1
 535 482 l 1
EndSplineSet
EndChar

StartChar: ccaron
Encoding: 269 269 207
Width: 558
GlyphClass: 2
Flags: W
AnchorPoint: "Anchor-5" 465 550 basechar 0
AnchorPoint: "Anchor-2" 290 0 basechar 0
LayerCount: 2
Back
Fore
SplineSet
341 607 m 1
 234 607 l 1
 131 757 l 1
 209 757 l 1
 291 660 l 1
 373 757 l 1
 449 757 l 1
 341 607 l 1
294 436 m 0
 197 436 180 334 180 259 c 0
 180 154 223 90 294 90 c 0
 348 90 376 117 394 187 c 1
 528 187 l 1
 515 58 424 -23 293 -23 c 0
 133 -23 40 81 40 259 c 0
 40 443 134 549 295 549 c 0
 430 549 518 470 528 338 c 1
 394 338 l 1
 378 409 351 436 294 436 c 0
EndSplineSet
EndChar

StartChar: Dcaron
Encoding: 270 270 208
Width: 724
GlyphClass: 2
Flags: W
AnchorPoint: "Anchor-2" 319 0 basechar 0
LayerCount: 2
Back
Fore
SplineSet
392 780 m 1
 285 780 l 1
 182 900 l 1
 270 900 l 1
 342 840 l 1
 414 900 l 1
 500 900 l 1
 392 780 l 1
80 0 m 1
 80 729 l 1
 365 729 l 2
 477 729 546 704 595 645 c 0
 653 576 684 477 684 365 c 0
 684 252 653 153 595 85 c 0
 546 26 476 0 365 0 c 2
 80 0 l 1
230 125 m 1
 365 125 l 2
 478 125 534 204 534 364 c 0
 534 525 478 604 365 604 c 2
 230 604 l 1
 230 125 l 1
EndSplineSet
EndChar

StartChar: dcaron
Encoding: 271 271 209
Width: 789
GlyphClass: 2
Flags: W
AnchorPoint: "Anchor-2" 279 0 basechar 0
LayerCount: 2
Back
Fore
SplineSet
666 740 m 1
 789 740 l 1
 670 592 l 1
 600 592 l 1
 666 740 l 1
267 -23 m 0
 131 -23 40 104 40 262 c 0
 40 425 138 549 267 549 c 0
 334 549 381 524 416 470 c 1
 416 729 l 1
 556 729 l 1
 556 0 l 1
 416 0 l 1
 416 55 l 1
 381 2 334 -23 267 -23 c 0
298 432 m 0
 228 432 180 362 180 262 c 0
 180 163 228 94 298 94 c 0
 368 94 416 162 416 260 c 0
 416 363 369 432 298 432 c 0
EndSplineSet
EndChar

StartChar: Dcroat
Encoding: 272 272 210
Width: 741
GlyphClass: 2
Flags: W
AnchorPoint: "Anchor-2" 329 0 basechar 0
LayerCount: 2
Back
Fore
SplineSet
97 339 m 1
 20 339 l 1
 20 419 l 1
 97 419 l 1
 97 729 l 1
 382 729 l 2
 497 729 565 705 613 645 c 0
 669 577 701 472 701 365 c 0
 701 257 668 154 613 85 c 0
 565 25 496 0 382 0 c 2
 97 0 l 1
 97 339 l 1
557 364 m 0
 557 544 489 604 382 604 c 2
 247 604 l 1
 247 419 l 1
 397 419 l 1
 397 339 l 1
 247 339 l 1
 247 125 l 1
 382 125 l 2
 479 125 557 173 557 364 c 0
EndSplineSet
EndChar

StartChar: dcroat
Encoding: 273 273 211
Width: 626
GlyphClass: 2
Flags: W
AnchorPoint: "Anchor-2" 300 0 basechar 0
LayerCount: 2
Back
Fore
SplineSet
416 596 m 1
 283 596 l 1
 283 663 l 1
 416 663 l 1
 416 729 l 1
 556 729 l 1
 556 663 l 1
 616 663 l 1
 616 596 l 1
 556 596 l 1
 556 0 l 1
 416 0 l 1
 416 55 l 1
 381 2 334 -23 267 -23 c 0
 138 -23 40 100 40 262 c 0
 40 425 138 549 267 549 c 0
 335 549 381 524 416 470 c 1
 416 596 l 1
298 432 m 0
 229 432 180 362 180 262 c 0
 180 163 228 94 298 94 c 0
 368 94 416 162 416 260 c 0
 416 363 369 432 298 432 c 0
EndSplineSet
EndChar

StartChar: Emacron
Encoding: 274 274 212
Width: 665
GlyphClass: 2
Flags: W
AnchorPoint: "Anchor-2" 360 0 basechar 0
LayerCount: 2
Back
Fore
SplineSet
494 879 m 1
 494 800 l 1
 195 800 l 1
 195 879 l 1
 494 879 l 1
230 314 m 1
 230 125 l 1
 625 125 l 1
 625 0 l 1
 80 0 l 1
 80 729 l 1
 607 729 l 1
 607 604 l 1
 230 604 l 1
 230 439 l 1
 579 439 l 1
 579 314 l 1
 230 314 l 1
EndSplineSet
EndChar

StartChar: emacron
Encoding: 275 275 213
Width: 583
GlyphClass: 2
Flags: W
AnchorPoint: "Anchor-2" 274 0 basechar 0
LayerCount: 2
Back
Fore
SplineSet
430 699 m 1
 430 620 l 1
 131 620 l 1
 131 699 l 1
 430 699 l 1
290 549 m 0
 398 549 543 489 543 250 c 0
 543 243 543 238 542 226 c 1
 180 226 l 1
 183 153 198 84 292 84 c 0
 343 84 382 109 399 152 c 1
 537 152 l 1
 506 46 408 -23 287 -23 c 0
 134 -23 40 83 40 256 c 0
 40 437 135 549 290 549 c 0
397 319 m 1
 391 398 353 442 288 442 c 0
 226 442 191 401 182 319 c 1
 397 319 l 1
EndSplineSet
EndChar

StartChar: Ebreve
Encoding: 276 276 214
Width: 665
GlyphClass: 3
Flags: W
AnchorPoint: "Anchor-2" 360 0 basechar 0
LayerCount: 2
Back
Fore
SplineSet
481 900 m 1
 481 889 l 2
 481 814 424 757 349 757 c 0
 274 757 217 814 217 890 c 2
 217 900 l 1
 273 900 l 1
 279 856 304 834 350 834 c 0
 394 834 417 854 425 900 c 1
 481 900 l 1
230 314 m 1
 230 125 l 1
 625 125 l 1
 625 0 l 1
 80 0 l 1
 80 729 l 1
 607 729 l 1
 607 604 l 1
 230 604 l 1
 230 439 l 1
 579 439 l 1
 579 314 l 1
 230 314 l 1
EndSplineSet
Ligature2: "'ccmp' Glyph Composition/Decomposition in Latin lookup 10 per glyph data 1" E brevecomb
EndChar

StartChar: ebreve
Encoding: 277 277 215
Width: 583
GlyphClass: 3
Flags: W
AnchorPoint: "Anchor-2" 274 0 basechar 0
LayerCount: 2
Back
Fore
SplineSet
423 783 m 1
 423 772 l 2
 423 697 366 640 291 640 c 0
 216 640 159 697 159 773 c 2
 159 783 l 1
 215 783 l 1
 221 739 246 717 292 717 c 0
 336 717 359 737 367 783 c 1
 423 783 l 1
290 549 m 0
 398 549 543 489 543 250 c 0
 543 243 543 238 542 226 c 1
 180 226 l 1
 183 153 198 84 292 84 c 0
 343 84 382 109 399 152 c 1
 537 152 l 1
 506 46 408 -23 287 -23 c 0
 134 -23 40 83 40 256 c 0
 40 437 135 549 290 549 c 0
397 319 m 1
 391 398 353 442 288 442 c 0
 226 442 191 401 182 319 c 1
 397 319 l 1
EndSplineSet
Ligature2: "'ccmp' Glyph Composition/Decomposition in Latin lookup 10 per glyph data 1" e brevecomb
EndChar

StartChar: Edotaccent
Encoding: 278 278 216
Width: 665
GlyphClass: 2
Flags: W
AnchorPoint: "Anchor-2" 360 0 basechar 0
LayerCount: 2
Back
Fore
SplineSet
399 900 m 1
 399 778 l 1
 289 778 l 1
 289 900 l 1
 399 900 l 1
230 314 m 1
 230 125 l 1
 625 125 l 1
 625 0 l 1
 80 0 l 1
 80 729 l 1
 607 729 l 1
 607 604 l 1
 230 604 l 1
 230 439 l 1
 579 439 l 1
 579 314 l 1
 230 314 l 1
EndSplineSet
EndChar

StartChar: edotaccent
Encoding: 279 279 217
Width: 583
GlyphClass: 2
Flags: W
AnchorPoint: "Anchor-2" 274 0 basechar 0
LayerCount: 2
Back
Fore
SplineSet
334 743 m 1
 334 621 l 1
 224 621 l 1
 224 743 l 1
 334 743 l 1
290 549 m 0
 398 549 543 489 543 250 c 0
 543 243 543 238 542 226 c 1
 180 226 l 1
 183 153 198 84 292 84 c 0
 343 84 382 109 399 152 c 1
 537 152 l 1
 506 46 408 -23 287 -23 c 0
 134 -23 40 83 40 256 c 0
 40 437 135 549 290 549 c 0
397 319 m 1
 391 398 353 442 288 442 c 0
 226 442 191 401 182 319 c 1
 397 319 l 1
EndSplineSet
EndChar

StartChar: Eogonek
Encoding: 280 280 218
Width: 665
GlyphClass: 2
Flags: W
AnchorPoint: "Anchor-3" 362 730 basechar 0
LayerCount: 2
Back
Fore
SplineSet
230 314 m 1
 230 125 l 1
 625 125 l 1
 625 0 l 1
 554 -38 516 -82 516 -129 c 0
 516 -165 540 -182 592 -182 c 0
 612 -182 631 -180 649 -177 c 1
 649 -224 l 1
 622 -230 602 -233 575 -233 c 0
 480 -233 426 -198 426 -138 c 0
 426 -82 465 -39 551 0 c 1
 80 0 l 1
 80 729 l 1
 607 729 l 1
 607 604 l 1
 230 604 l 1
 230 439 l 1
 579 439 l 1
 579 314 l 1
 230 314 l 1
EndSplineSet
EndChar

StartChar: eogonek
Encoding: 281 281 219
Width: 584
GlyphClass: 2
Flags: W
AnchorPoint: "Anchor-3" 300 550 basechar 0
LayerCount: 2
Back
Fore
SplineSet
537 152 m 1
 502 25 364 -26 364 -131 c 0
 364 -166 388 -183 440 -183 c 0
 460 -183 478 -181 497 -177 c 1
 497 -224 l 1
 470 -231 446 -234 418 -234 c 0
 329 -234 274 -197 274 -137 c 0
 274 -92 298 -60 369 -11 c 1
 333 -21 315 -24 287 -24 c 0
 135 -24 40 83 40 256 c 0
 40 437 135 549 290 549 c 0
 401 549 544 489 544 250 c 0
 544 245 544 238 543 226 c 1
 181 226 l 1
 184 147 201 83 293 83 c 0
 344 83 382 108 399 152 c 1
 537 152 l 1
398 319 m 1
 391 400 351 442 289 442 c 0
 226 442 191 401 182 319 c 1
 398 319 l 1
EndSplineSet
EndChar

StartChar: Ecaron
Encoding: 282 282 220
Width: 665
GlyphClass: 2
Flags: W
AnchorPoint: "Anchor-2" 360 0 basechar 0
LayerCount: 2
Back
Fore
SplineSet
395 780 m 1
 288 780 l 1
 185 900 l 1
 273 900 l 1
 345 840 l 1
 417 900 l 1
 503 900 l 1
 395 780 l 1
230 314 m 1
 230 125 l 1
 625 125 l 1
 625 0 l 1
 80 0 l 1
 80 729 l 1
 607 729 l 1
 607 604 l 1
 230 604 l 1
 230 439 l 1
 579 439 l 1
 579 314 l 1
 230 314 l 1
EndSplineSet
EndChar

StartChar: ecaron
Encoding: 283 283 221
Width: 583
GlyphClass: 2
Flags: W
AnchorPoint: "Anchor-2" 274 0 basechar 0
LayerCount: 2
Back
Fore
SplineSet
331 607 m 1
 224 607 l 1
 121 757 l 1
 199 757 l 1
 281 660 l 1
 363 757 l 1
 439 757 l 1
 331 607 l 1
290 549 m 0
 398 549 543 489 543 250 c 0
 543 243 543 238 542 226 c 1
 180 226 l 1
 183 153 198 84 292 84 c 0
 343 84 382 109 399 152 c 1
 537 152 l 1
 506 46 408 -23 287 -23 c 0
 134 -23 40 83 40 256 c 0
 40 437 135 549 290 549 c 0
397 319 m 1
 391 398 353 442 288 442 c 0
 226 442 191 401 182 319 c 1
 397 319 l 1
EndSplineSet
EndChar

StartChar: Gcircumflex
Encoding: 284 284 222
Width: 769
GlyphClass: 2
Flags: W
LayerCount: 2
Back
Fore
SplineSet
342 900 m 1
 449 900 l 1
 552 780 l 1
 464 780 l 1
 392 840 l 1
 320 780 l 1
 234 780 l 1
 342 900 l 1
568 498 m 1
 547 560 498 615 394 615 c 0
 267 615 190 520 190 363 c 0
 190 213 277 107 398 107 c 0
 435 107 570 131 583 269 c 1
 417 269 l 1
 417 394 l 1
 709 394 l 1
 709 0 l 1
 619 0 l 1
 601 96 l 1
 545 14 479 -21 381 -21 c 0
 184 -21 40 140 40 361 c 0
 40 588 183 743 393 743 c 0
 569 743 691 648 709 498 c 1
 568 498 l 1
EndSplineSet
EndChar

StartChar: gcircumflex
Encoding: 285 285 223
Width: 612
GlyphClass: 2
Flags: W
LayerCount: 2
Back
Fore
SplineSet
256 790 m 1
 363 790 l 1
 466 640 l 1
 388 640 l 1
 306 740 l 1
 224 640 l 1
 148 640 l 1
 256 790 l 1
414 540 m 1
 547 540 l 1
 547 -18 l 2
 547 -145 453 -218 290 -218 c 0
 147 -218 53 -159 51 -65 c 1
 196 -65 l 1
 207 -106 242 -128 295 -128 c 0
 365 -128 414 -83 414 -18 c 2
 414 55 l 1
 362 -4 324 -23 261 -23 c 0
 128 -23 40 89 40 257 c 0
 40 424 136 549 264 549 c 0
 326 549 372 521 414 457 c 1
 414 540 l 1
294 432 m 0
 226 432 180 361 180 259 c 0
 180 161 226 94 292 94 c 0
 365 94 416 161 416 259 c 0
 416 359 364 432 294 432 c 0
EndSplineSet
EndChar

StartChar: Gbreve
Encoding: 286 286 224
Width: 769
GlyphClass: 2
Flags: W
LayerCount: 2
Back
Fore
SplineSet
520 900 m 1
 520 889 l 2
 520 814 463 757 388 757 c 0
 313 757 256 814 256 890 c 2
 256 900 l 1
 312 900 l 1
 318 856 343 834 389 834 c 0
 433 834 456 854 464 900 c 1
 520 900 l 1
568 498 m 1
 547 560 498 615 394 615 c 0
 267 615 190 520 190 363 c 0
 190 213 277 107 398 107 c 0
 435 107 570 131 583 269 c 1
 417 269 l 1
 417 394 l 1
 709 394 l 1
 709 0 l 1
 619 0 l 1
 601 96 l 1
 545 14 479 -21 381 -21 c 0
 184 -21 40 140 40 361 c 0
 40 588 183 743 393 743 c 0
 569 743 691 648 709 498 c 1
 568 498 l 1
EndSplineSet
EndChar

StartChar: gbreve
Encoding: 287 287 225
Width: 612
GlyphClass: 2
Flags: W
LayerCount: 2
Back
Fore
SplineSet
439 748 m 1
 439 737 l 2
 439 662 382 605 307 605 c 0
 232 605 175 662 175 738 c 2
 175 748 l 1
 231 748 l 1
 237 704 262 682 308 682 c 0
 352 682 375 702 383 748 c 1
 439 748 l 1
414 540 m 1
 547 540 l 1
 547 -18 l 2
 547 -145 453 -218 290 -218 c 0
 147 -218 53 -159 51 -65 c 1
 196 -65 l 1
 207 -106 242 -128 295 -128 c 0
 365 -128 414 -83 414 -18 c 2
 414 55 l 1
 362 -4 324 -23 261 -23 c 0
 128 -23 40 89 40 257 c 0
 40 424 136 549 264 549 c 0
 326 549 372 521 414 457 c 1
 414 540 l 1
294 432 m 0
 226 432 180 361 180 259 c 0
 180 161 226 94 292 94 c 0
 365 94 416 161 416 259 c 0
 416 359 364 432 294 432 c 0
EndSplineSet
EndChar

StartChar: Gdotaccent
Encoding: 288 288 226
Width: 769
GlyphClass: 2
Flags: W
LayerCount: 2
Back
Fore
SplineSet
453 900 m 1
 453 778 l 1
 343 778 l 1
 343 900 l 1
 453 900 l 1
568 498 m 1
 547 560 498 615 394 615 c 0
 267 615 190 520 190 363 c 0
 190 213 277 107 398 107 c 0
 435 107 570 131 583 269 c 1
 417 269 l 1
 417 394 l 1
 709 394 l 1
 709 0 l 1
 619 0 l 1
 601 96 l 1
 545 14 479 -21 381 -21 c 0
 184 -21 40 140 40 361 c 0
 40 588 183 743 393 743 c 0
 569 743 691 648 709 498 c 1
 568 498 l 1
EndSplineSet
EndChar

StartChar: gdotaccent
Encoding: 289 289 227
Width: 612
GlyphClass: 2
Flags: W
LayerCount: 2
Back
Fore
SplineSet
372 762 m 1
 372 640 l 1
 262 640 l 1
 262 762 l 1
 372 762 l 1
414 540 m 1
 547 540 l 1
 547 -18 l 2
 547 -145 453 -218 290 -218 c 0
 147 -218 53 -159 51 -65 c 1
 196 -65 l 1
 207 -106 242 -128 295 -128 c 0
 365 -128 414 -83 414 -18 c 2
 414 55 l 1
 362 -4 324 -23 261 -23 c 0
 128 -23 40 89 40 257 c 0
 40 424 136 549 264 549 c 0
 326 549 372 521 414 457 c 1
 414 540 l 1
294 432 m 0
 226 432 180 361 180 259 c 0
 180 161 226 94 292 94 c 0
 365 94 416 161 416 259 c 0
 416 359 364 432 294 432 c 0
EndSplineSet
EndChar

StartChar: Gcommaaccent
Encoding: 290 290 228
Width: 769
GlyphClass: 2
Flags: W
LayerCount: 2
Back
Fore
SplineSet
320 -68 m 1
 442 -68 l 1
 442 -176 l 2
 442 -241 391 -298 320 -300 c 1
 320 -254 l 1
 372 -244 387 -205 387 -175 c 1
 320 -175 l 1
 320 -68 l 1
568 498 m 1
 547 560 498 615 394 615 c 0
 267 615 190 520 190 363 c 0
 190 213 277 107 398 107 c 0
 435 107 570 131 583 269 c 1
 417 269 l 1
 417 394 l 1
 709 394 l 1
 709 0 l 1
 619 0 l 1
 601 96 l 1
 545 14 479 -21 381 -21 c 0
 184 -21 40 140 40 361 c 0
 40 588 183 743 393 743 c 0
 569 743 691 648 709 498 c 1
 568 498 l 1
EndSplineSet
EndChar

StartChar: gcommaaccent
Encoding: 291 291 229
Width: 612
GlyphClass: 2
Flags: W
LayerCount: 2
Back
Fore
SplineSet
361 619 m 1
 239 619 l 1
 239 727 l 2
 239 792 290 849 361 851 c 1
 361 805 l 1
 309 795 294 756 294 726 c 1
 361 726 l 1
 361 619 l 1
414 540 m 1
 547 540 l 1
 547 -18 l 2
 547 -145 453 -218 290 -218 c 0
 147 -218 53 -159 51 -65 c 1
 196 -65 l 1
 207 -106 242 -128 295 -128 c 0
 365 -128 414 -83 414 -18 c 2
 414 55 l 1
 362 -4 324 -23 261 -23 c 0
 128 -23 40 89 40 257 c 0
 40 424 136 549 264 549 c 0
 326 549 372 521 414 457 c 1
 414 540 l 1
294 432 m 0
 226 432 180 361 180 259 c 0
 180 161 226 94 292 94 c 0
 365 94 416 161 416 259 c 0
 416 359 364 432 294 432 c 0
EndSplineSet
EndChar

StartChar: Hcircumflex
Encoding: 292 292 230
Width: 749
GlyphClass: 2
Flags: W
LayerCount: 2
Back
Fore
SplineSet
311 900 m 1
 418 900 l 1
 521 780 l 1
 433 780 l 1
 361 840 l 1
 289 780 l 1
 203 780 l 1
 311 900 l 1
519 331 m 1
 230 331 l 1
 230 0 l 1
 80 0 l 1
 80 729 l 1
 230 729 l 1
 230 456 l 1
 518 456 l 1
 518 729 l 1
 669 729 l 1
 669 0 l 1
 519 0 l 1
 519 331 l 1
EndSplineSet
EndChar

StartChar: hcircumflex
Encoding: 293 293 231
Width: 604
GlyphClass: 2
Flags: W
LayerCount: 2
Back
Fore
SplineSet
283 900 m 1
 390 900 l 1
 493 750 l 1
 415 750 l 1
 333 850 l 1
 251 750 l 1
 175 750 l 1
 283 900 l 1
399 330 m 2
 399 388 378 430 313 430 c 0
 250 430 205 386 205 324 c 2
 205 0 l 1
 65 0 l 1
 65 729 l 1
 205 729 l 1
 205 462 l 1
 244 521 294 549 363 549 c 0
 440 549 539 512 539 362 c 2
 539 0 l 1
 399 0 l 1
 399 330 l 2
EndSplineSet
EndChar

StartChar: Hbar
Encoding: 294 294 232
Width: 729
GlyphClass: 2
Flags: W
LayerCount: 2
Back
Fore
SplineSet
659 599 m 1
 719 599 l 1
 719 532 l 1
 659 532 l 1
 659 0 l 1
 509 0 l 1
 509 331 l 1
 220 331 l 1
 220 0 l 1
 70 0 l 1
 70 532 l 1
 10 532 l 1
 10 599 l 1
 70 599 l 1
 70 729 l 1
 220 729 l 1
 220 599 l 1
 508 599 l 1
 508 729 l 1
 659 729 l 1
 659 599 l 1
508 532 m 1
 220 532 l 1
 220 456 l 1
 508 456 l 1
 508 532 l 1
EndSplineSet
EndChar

StartChar: hbar
Encoding: 295 295 233
Width: 606
GlyphClass: 2
Flags: W
LayerCount: 2
Back
Fore
SplineSet
401 330 m 2
 401 388 380 430 315 430 c 0
 252 430 207 386 207 324 c 2
 207 0 l 1
 67 0 l 1
 67 596 l 1
 8 596 l 1
 8 663 l 1
 67 663 l 1
 67 729 l 1
 207 729 l 1
 207 663 l 1
 341 663 l 1
 341 596 l 1
 207 596 l 1
 207 462 l 1
 246 521 296 549 365 549 c 0
 442 549 541 512 541 362 c 2
 541 0 l 1
 401 0 l 1
 401 330 l 2
EndSplineSet
EndChar

StartChar: Itilde
Encoding: 296 296 234
Width: 310
GlyphClass: 2
Flags: W
AnchorPoint: "Anchor-2" 164 0 basechar 0
LayerCount: 2
Back
Fore
SplineSet
269 900 m 1
 332 900 l 1
 328 815 296 773 237 773 c 0
 222 773 203 777 182 785 c 2
 111 811 l 2
 99 815 90 817 81 817 c 0
 57 817 46 804 41 772 c 1
 -22 772 l 1
 -18 850 17 896 72 896 c 0
 91 896 92 896 128 883 c 2
 199 858 l 2
 206 855 226 852 233 852 c 0
 254 852 266 868 269 900 c 1
241 729 m 1
 241 0 l 1
 91 0 l 1
 91 729 l 1
 241 729 l 1
EndSplineSet
EndChar

StartChar: itilde
Encoding: 297 297 235
Width: 300
GlyphClass: 3
Flags: W
AnchorPoint: "Anchor-2" 149 0 basechar 0
LayerCount: 2
Back
Fore
SplineSet
264 768 m 1
 327 768 l 1
 323 683 291 641 232 641 c 0
 217 641 198 645 177 653 c 2
 106 679 l 2
 94 683 85 685 76 685 c 0
 52 685 41 672 36 640 c 1
 -27 640 l 1
 -23 718 12 764 67 764 c 0
 86 764 87 764 123 751 c 2
 194 726 l 2
 201 723 221 720 228 720 c 0
 249 720 261 736 264 768 c 1
221 540 m 1
 221 0 l 1
 81 0 l 1
 81 540 l 1
 221 540 l 1
EndSplineSet
Ligature2: "'ccmp' Glyph Composition/Decomposition in Latin lookup 6 subtable" i tildecomb
EndChar

StartChar: Imacron
Encoding: 298 298 236
Width: 310
GlyphClass: 2
Flags: W
AnchorPoint: "Anchor-2" 164 0 basechar 0
LayerCount: 2
Back
Fore
SplineSet
287.555664062 879 m 1
 287.555664062 800 l 1
 15.5556640625 800 l 1
 15.5556640625 879 l 1
 287.555664062 879 l 1
230 728.900390625 m 1
 230 -0.099609375 l 1
 80 -0.099609375 l 1
 80 728.900390625 l 1
 230 728.900390625 l 1
EndSplineSet
EndChar

StartChar: imacron
Encoding: 299 299 237
Width: 280
GlyphClass: 3
Flags: W
AnchorPoint: "Anchor-2" 138 0 basechar 0
LayerCount: 2
Back
Fore
SplineSet
266.859375 699 m 1
 266.859375 620 l 1
 7.859375 620 l 1
 7.859375 699 l 1
 266.859375 699 l 1
210 540 m 1
 210 0 l 1
 70 0 l 1
 70 540 l 1
 210 540 l 1
EndSplineSet
Ligature2: "'ccmp' Glyph Composition/Decomposition in Latin lookup 6 subtable" i macroncomb
EndChar

StartChar: Ibreve
Encoding: 300 300 238
Width: 310
GlyphClass: 3
Flags: W
AnchorPoint: "Anchor-2" 164 0 basechar 0
LayerCount: 2
Back
Fore
SplineSet
287 900 m 1
 287 889 l 2
 287 814 230 757 155 757 c 0
 80 757 23 814 23 890 c 2
 23 900 l 1
 79 900 l 1
 85 856 110 834 156 834 c 0
 200 834 223 854 231 900 c 1
 287 900 l 1
230 729 m 1
 230 0 l 1
 80 0 l 1
 80 729 l 1
 230 729 l 1
EndSplineSet
Ligature2: "'ccmp' Glyph Composition/Decomposition in Latin lookup 10 per glyph data 1" I brevecomb
EndChar

StartChar: ibreve
Encoding: 301 301 239
Width: 300
GlyphClass: 3
Flags: W
AnchorPoint: "Anchor-2" 150 0 basechar 0
LayerCount: 2
Back
Fore
SplineSet
279 783 m 1
 279 772 l 2
 279 697 222 640 147 640 c 0
 72 640 15 697 15 773 c 2
 15 783 l 1
 71 783 l 1
 77 739 102 717 148 717 c 0
 192 717 215 737 223 783 c 1
 279 783 l 1
220 540 m 1
 220 0 l 1
 80 0 l 1
 80 540 l 1
 220 540 l 1
EndSplineSet
Ligature2: "'ccmp' Glyph Composition/Decomposition in Latin lookup 10 per glyph data 1" i brevecomb
Ligature2: "'ccmp' Glyph Composition/Decomposition in Latin lookup 6 subtable" i brevecomb
EndChar

StartChar: Iogonek
Encoding: 302 302 240
Width: 310
GlyphClass: 2
Flags: W
AnchorPoint: "Anchor-3" 156 730 basechar 0
LayerCount: 2
Back
Fore
SplineSet
228 729 m 1
 228 0 l 1
 171 -41 139 -88 139 -131 c 0
 139 -161 165 -182 202 -182 c 0
 215 -182 236 -180 252 -177 c 1
 252 -224 l 1
 226 -230 204 -233 182 -233 c 0
 100 -233 49 -196 49 -136 c 0
 49 -84 85 -41 162 0 c 1
 78 0 l 1
 78 729 l 1
 228 729 l 1
EndSplineSet
EndChar

StartChar: iogonek
Encoding: 303 303 241
Width: 280
GlyphClass: 2
Flags: W
AnchorPoint: "Anchor-3" 140 730 basechar 0
LayerCount: 2
Back
Fore
SplineSet
125 -128 m 0
 125 -172 162 -182 188 -182 c 0
 199 -182 209 -181 232 -177 c 1
 232 -224 l 1
 201 -231 189 -233 169 -233 c 0
 86 -233 35 -196 35 -136 c 0
 35 -87 70 -44 145 0 c 1
 68 0 l 1
 68 540 l 1
 208 540 l 1
 208 0 l 1
 154 -38 125 -83 125 -128 c 0
208 729 m 1
 208 604 l 1
 68 604 l 1
 68 729 l 1
 208 729 l 1
EndSplineSet
MultipleSubs2: "Multiple Substitution lookup 5 subtable" dotlessi ogonekcmb
EndChar

StartChar: Idotaccent
Encoding: 304 304 242
Width: 310
GlyphClass: 2
Flags: W
AnchorPoint: "Anchor-2" 164 0 basechar 0
LayerCount: 2
Back
Fore
SplineSet
213 900 m 1
 213 778 l 1
 103 778 l 1
 103 900 l 1
 213 900 l 1
230 729 m 1
 230 0 l 1
 80 0 l 1
 80 729 l 1
 230 729 l 1
EndSplineSet
Substitution2: "'c2sc' Capitals to Small Capitals in Latin lookup 4 subtable" sc.i_dot
Substitution2: "'c2sc' Capitals to Small Capitals in Latin lookup 3 subtable" sc.i_dot
EndChar

StartChar: dotlessi
Encoding: 305 305 243
Width: 280
GlyphClass: 2
Flags: W
AnchorPoint: "Anchor-3" 144 550 basechar 0
AnchorPoint: "Anchor-2" 140 0 basechar 0
LayerCount: 2
Back
Fore
SplineSet
210 540 m 1
 210 0 l 1
 70 0 l 1
 70 540 l 1
 210 540 l 1
EndSplineSet
Substitution2: "'smcp' Lowercase to Small Capitals in Latin lookup 1 subtable" sc.i
EndChar

StartChar: IJ
Encoding: 306 306 244
Width: 622
GlyphClass: 3
Flags: W
LayerCount: 2
Back
Fore
SplineSet
230 729 m 1
 230 360 l 1
 80 360 l 1
 80 729 l 1
 230 729 l 1
308 -23 m 0
 208 -23 80 21 80 198 c 2
 80 270 l 1
 230 270 l 1
 230 200 l 2
 230 133 254 105 311 105 c 0
 363 105 392 135 392 190 c 2
 392 729 l 1
 542 729 l 1
 542 190 l 2
 542 54 457 -23 308 -23 c 0
EndSplineSet
Ligature2: "'liga' Standard Ligatures in Latin lookup 12 subtable" I J
EndChar

StartChar: ij
Encoding: 307 307 245
Width: 548
GlyphClass: 3
Flags: W
LayerCount: 2
Back
Fore
SplineSet
478 540 m 1
 478 -94 l 2
 478 -182 442 -218 355 -218 c 0
 335 -218 300 -216 272 -213 c 1
 272 -101 l 1
 282 -104 288 -105 297 -105 c 0
 327 -105 338 -94 338 -63 c 2
 338 540 l 1
 478 540 l 1
478 729 m 1
 478 604 l 1
 338 604 l 1
 338 729 l 1
 478 729 l 1
210 540 m 1
 210 0 l 1
 70 0 l 1
 70 540 l 1
 210 540 l 1
210 729 m 1
 210 604 l 1
 70 604 l 1
 70 729 l 1
 210 729 l 1
EndSplineSet
Ligature2: "'liga' Standard Ligatures in Latin lookup 12 subtable" i j
EndChar

StartChar: Jcircumflex
Encoding: 308 308 246
Width: 572
GlyphClass: 2
Flags: W
LayerCount: 2
Back
Fore
SplineSet
215 900 m 1
 322 900 l 1
 425 780 l 1
 337 780 l 1
 265 840 l 1
 193 780 l 1
 107 780 l 1
 215 900 l 1
258 -23 m 0
 158 -23 30 21 30 198 c 2
 30 270 l 1
 180 270 l 1
 180 200 l 2
 180 133 204 105 261 105 c 0
 313 105 342 135 342 190 c 2
 342 729 l 1
 492 729 l 1
 492 190 l 2
 492 54 407 -23 258 -23 c 0
EndSplineSet
EndChar

StartChar: jcircumflex
Encoding: 309 309 247
Width: 280
GlyphClass: 3
Flags: W
LayerCount: 2
Back
Fore
SplineSet
89 782 m 1
 196 782 l 1
 299 632 l 1
 221 632 l 1
 139 732 l 1
 57 632 l 1
 -19 632 l 1
 89 782 l 1
210 540 m 1
 210 -94 l 2
 210 -182 174 -218 87 -218 c 0
 67 -218 32 -216 4 -213 c 1
 4 -101 l 1
 14 -104 20 -105 29 -105 c 0
 59 -105 70 -94 70 -63 c 2
 70 540 l 1
 210 540 l 1
EndSplineSet
Ligature2: "'ccmp' Glyph Composition/Decomposition in Latin lookup 6 subtable" j circumflexcomb
EndChar

StartChar: Kcommaaccent
Encoding: 310 310 248
Width: 728
GlyphClass: 2
Flags: W
LayerCount: 2
Back
Fore
SplineSet
320 -68 m 1
 442 -68 l 1
 442 -176 l 2
 442 -241 391 -298 320 -300 c 1
 320 -254 l 1
 372 -244 387 -205 387 -175 c 1
 320 -175 l 1
 320 -68 l 1
230 244 m 1
 230 0 l 1
 80 0 l 1
 80 729 l 1
 230 729 l 1
 230 409 l 1
 515 729 l 1
 692 729 l 1
 401 415 l 1
 723 0 l 1
 544 0 l 1
 305 322 l 1
 230 244 l 1
EndSplineSet
EndChar

StartChar: kcommaaccent
Encoding: 311 311 249
Width: 564
GlyphClass: 2
Flags: W
LayerCount: 2
Back
Fore
SplineSet
213 -68 m 1
 335 -68 l 1
 335 -176 l 2
 335 -241 284 -298 213 -300 c 1
 213 -254 l 1
 265 -244 280 -205 280 -175 c 1
 213 -175 l 1
 213 -68 l 1
205 330 m 1
 382 540 l 1
 541 540 l 1
 357 336 l 1
 554 0 l 1
 390 0 l 1
 261 238 l 1
 205 177 l 1
 205 0 l 1
 65 0 l 1
 65 729 l 1
 205 729 l 1
 205 330 l 1
EndSplineSet
EndChar

StartChar: kgreenlandic
Encoding: 312 312 250
Width: 559
GlyphClass: 2
Flags: W
LayerCount: 2
Back
Fore
SplineSet
210 351 m 1
 372 540 l 1
 520 540 l 1
 306 296 l 1
 559 0 l 1
 377 0 l 1
 210 198 l 1
 210 0 l 1
 70 0 l 1
 70 540 l 1
 210 540 l 1
 210 351 l 1
EndSplineSet
EndChar

StartChar: Lacute
Encoding: 313 313 251
Width: 619
GlyphClass: 2
Flags: W
LayerCount: 2
Back
Fore
SplineSet
323 900 m 1
 167 780 l 1
 87 780 l 1
 187 900 l 1
 323 900 l 1
230 729 m 1
 230 125 l 1
 579 125 l 1
 579 0 l 1
 80 0 l 1
 80 729 l 1
 230 729 l 1
EndSplineSet
EndChar

StartChar: lacute
Encoding: 314 314 252
Width: 270
GlyphClass: 2
Flags: W
LayerCount: 2
Back
Fore
SplineSet
278 900 m 1
 122 780 l 1
 42 780 l 1
 142 900 l 1
 278 900 l 1
205 729 m 1
 205 0 l 1
 65 0 l 1
 65 729 l 1
 205 729 l 1
EndSplineSet
EndChar

StartChar: Lcommaaccent
Encoding: 315 315 253
Width: 619
GlyphClass: 2
Flags: W
LayerCount: 2
Back
Fore
SplineSet
271 -68 m 1
 393 -68 l 1
 393 -176 l 2
 393 -241 342 -298 271 -300 c 1
 271 -254 l 1
 323 -244 338 -205 338 -175 c 1
 271 -175 l 1
 271 -68 l 1
230 729 m 1
 230 125 l 1
 579 125 l 1
 579 0 l 1
 80 0 l 1
 80 729 l 1
 230 729 l 1
EndSplineSet
EndChar

StartChar: lcommaaccent
Encoding: 316 316 254
Width: 270
GlyphClass: 2
Flags: W
LayerCount: 2
Back
Fore
SplineSet
72 -68 m 1
 194 -68 l 1
 194 -176 l 2
 194 -241 143 -298 72 -300 c 1
 72 -254 l 1
 124 -244 139 -205 139 -175 c 1
 72 -175 l 1
 72 -68 l 1
205 729 m 1
 205 0 l 1
 65 0 l 1
 65 729 l 1
 205 729 l 1
EndSplineSet
EndChar

StartChar: Lcaron
Encoding: 317 317 255
Width: 619
GlyphClass: 2
Flags: W
LayerCount: 2
Back
Fore
SplineSet
367 740 m 1
 490 740 l 1
 371 592 l 1
 301 592 l 1
 367 740 l 1
230 729 m 1
 230 125 l 1
 579 125 l 1
 579 0 l 1
 80 0 l 1
 80 729 l 1
 230 729 l 1
EndSplineSet
EndChar

StartChar: lcaron
Encoding: 318 318 256
Width: 442
GlyphClass: 2
Flags: W
LayerCount: 2
Back
Fore
SplineSet
317 740 m 1
 440 740 l 1
 321 592 l 1
 251 592 l 1
 317 740 l 1
205 729 m 1
 205 0 l 1
 65 0 l 1
 65 729 l 1
 205 729 l 1
EndSplineSet
EndChar

StartChar: Ldot
Encoding: 319 319 257
Width: 619
GlyphClass: 3
Flags: W
LayerCount: 2
Back
Fore
SplineSet
446 442 m 1
 570 442 l 1
 570 319 l 1
 446 319 l 1
 446 442 l 1
230 729 m 1
 230 125 l 1
 579 125 l 1
 579 0 l 1
 80 0 l 1
 80 729 l 1
 230 729 l 1
EndSplineSet
Ligature2: "'liga' Standard Ligatures in Latin lookup 7 subtable" L middot
EndChar

StartChar: ldot
Encoding: 320 320 258
Width: 440
GlyphClass: 3
Flags: W
LayerCount: 2
Back
Fore
SplineSet
291 428 m 1
 415 428 l 1
 415 305 l 1
 291 305 l 1
 291 428 l 1
205 729 m 1
 205 0 l 1
 65 0 l 1
 65 729 l 1
 205 729 l 1
EndSplineSet
Ligature2: "'liga' Standard Ligatures in Latin lookup 7 subtable" l middot
EndChar

StartChar: Lslash
Encoding: 321 321 259
Width: 637
GlyphClass: 2
Flags: W
LayerCount: 2
Back
Fore
SplineSet
240 423 m 1
 405 535 l 1
 405 447 l 1
 240 334 l 1
 240 125 l 1
 607 125 l 1
 607 0 l 1
 90 0 l 1
 90 257 l 1
 10 201 l 1
 10 290 l 1
 90 346 l 1
 90 729 l 1
 240 729 l 1
 240 423 l 1
EndSplineSet
Substitution2: "'c2sc' Capitals to Small Capitals in Latin lookup 4 subtable" sc.lslash
EndChar

StartChar: lslash
Encoding: 322 322 260
Width: 278
GlyphClass: 2
Flags: W
LayerCount: 2
Back
Fore
SplineSet
206 442 m 1
 262 482 l 1
 262 403 l 1
 206 363 l 1
 206 0 l 1
 66 0 l 1
 66 294 l 1
 10 254 l 1
 10 333 l 1
 66 373 l 1
 66 729 l 1
 206 729 l 1
 206 442 l 1
EndSplineSet
Substitution2: "'smcp' Lowercase to Small Capitals in Latin lookup 2 subtable" sc.lslash
EndChar

StartChar: Nacute
Encoding: 323 323 261
Width: 753
GlyphClass: 2
Flags: W
LayerCount: 2
Back
Fore
SplineSet
513 900 m 1
 357 780 l 1
 277 780 l 1
 377 900 l 1
 513 900 l 1
523 0 m 1
 230 504 l 1
 230 0 l 1
 80 0 l 1
 80 729 l 1
 234 729 l 1
 523 233 l 1
 523 729 l 1
 673 729 l 1
 673 0 l 1
 523 0 l 1
EndSplineSet
EndChar

StartChar: nacute
Encoding: 324 324 262
Width: 613
GlyphClass: 2
Flags: W
LayerCount: 2
Back
Fore
SplineSet
441 757 m 1
 315 607 l 1
 245 607 l 1
 315 757 l 1
 441 757 l 1
65 540 m 1
 205 540 l 1
 205 462 l 1
 245 522 294 549 367 549 c 0
 482 549 548 481 548 362 c 2
 548 0 l 1
 408 0 l 1
 408 333 l 2
 408 397 378 430 318 430 c 0
 250 430 205 388 205 324 c 2
 205 0 l 1
 65 0 l 1
 65 540 l 1
EndSplineSet
EndChar

StartChar: Ncommaaccent
Encoding: 325 325 263
Width: 753
GlyphClass: 2
Flags: W
LayerCount: 2
Back
Fore
SplineSet
320 -68 m 1
 442 -68 l 1
 442 -176 l 2
 442 -241 391 -298 320 -300 c 1
 320 -254 l 1
 372 -244 387 -205 387 -175 c 1
 320 -175 l 1
 320 -68 l 1
523 0 m 1
 230 504 l 1
 230 0 l 1
 80 0 l 1
 80 729 l 1
 234 729 l 1
 523 233 l 1
 523 729 l 1
 673 729 l 1
 673 0 l 1
 523 0 l 1
EndSplineSet
EndChar

StartChar: ncommaaccent
Encoding: 326 326 264
Width: 613
GlyphClass: 2
Flags: W
LayerCount: 2
Back
Fore
SplineSet
240 -68 m 1
 362 -68 l 1
 362 -176 l 2
 362 -241 311 -298 240 -300 c 1
 240 -254 l 1
 292 -244 307 -205 307 -175 c 1
 240 -175 l 1
 240 -68 l 1
65 540 m 1
 205 540 l 1
 205 462 l 1
 245 522 294 549 367 549 c 0
 482 549 548 481 548 362 c 2
 548 0 l 1
 408 0 l 1
 408 333 l 2
 408 397 378 430 318 430 c 0
 250 430 205 388 205 324 c 2
 205 0 l 1
 65 0 l 1
 65 540 l 1
EndSplineSet
EndChar

StartChar: Ncaron
Encoding: 327 327 265
Width: 753
GlyphClass: 2
Flags: W
LayerCount: 2
Back
Fore
SplineSet
417 780 m 1
 310 780 l 1
 207 900 l 1
 295 900 l 1
 367 840 l 1
 439 900 l 1
 525 900 l 1
 417 780 l 1
523 0 m 1
 230 504 l 1
 230 0 l 1
 80 0 l 1
 80 729 l 1
 234 729 l 1
 523 233 l 1
 523 729 l 1
 673 729 l 1
 673 0 l 1
 523 0 l 1
EndSplineSet
EndChar

StartChar: ncaron
Encoding: 328 328 266
Width: 613
GlyphClass: 2
Flags: W
LayerCount: 2
Back
Fore
SplineSet
351 607 m 1
 244 607 l 1
 141 757 l 1
 219 757 l 1
 301 660 l 1
 383 757 l 1
 459 757 l 1
 351 607 l 1
65 540 m 1
 205 540 l 1
 205 462 l 1
 245 522 294 549 367 549 c 0
 482 549 548 481 548 362 c 2
 548 0 l 1
 408 0 l 1
 408 333 l 2
 408 397 378 430 318 430 c 0
 250 430 205 388 205 324 c 2
 205 0 l 1
 65 0 l 1
 65 540 l 1
EndSplineSet
EndChar

StartChar: napostrophe
Encoding: 329 329 267
Width: 701
GlyphClass: 2
Flags: W
LayerCount: 2
Back
Fore
SplineSet
33 748 m 1
 155 748 l 1
 155 645 l 2
 155 563 104 503 33 501 c 1
 33 547 l 1
 79.51171875 556.301757812 96 585.920898438 96 636 c 1
 33 636 l 1
 33 748 l 1
155 540 m 1
 295 540 l 1
 295 462 l 1
 335 522 384 549 457 549 c 0
 572 549 638 481 638 362 c 2
 638 0 l 1
 498 0 l 1
 498 333 l 2
 498 397 468 430 408 430 c 0
 340 430 295 388 295 324 c 2
 295 0 l 1
 155 0 l 1
 155 540 l 1
EndSplineSet
EndChar

StartChar: Eng
Encoding: 330 330 268
Width: 752
GlyphClass: 2
Flags: W
LayerCount: 2
Back
Fore
SplineSet
439 -16 m 0
 377 -16 345 -2 335 0 c 1
 335 123 l 1
 352 122 385 109 431 109 c 0
 493 109 562 206 562 391 c 0
 562 612 453 616 387 616 c 0
 301 616 230 546 230 439 c 2
 230 0 l 1
 80 0 l 1
 80 729 l 1
 230 729 l 1
 230 652 l 1
 276 725 334 741 412 741 c 0
 513 741 712 654 712 424 c 0
 712 100 569 -16 439 -16 c 0
EndSplineSet
Substitution2: "'locl' Localized Forms in Latin lookup 15 subtable" Engsami
EndChar

StartChar: eng
Encoding: 331 331 269
Width: 613
GlyphClass: 2
Flags: W
AnchorPoint: "Anchor-5" 465 550 basechar 0
LayerCount: 2
Back
Fore
SplineSet
65 540 m 1
 205 540 l 1
 205 462 l 1
 245 522 294 549 367 549 c 0
 482 549 548 481 548 362 c 2
 548 -94 l 2
 548 -182 512 -218 425 -218 c 0
 405 -218 370 -216 342 -213 c 1
 342 -101 l 1
 352 -104 358 -105 367 -105 c 0
 397 -105 408 -94 408 -63 c 2
 408 333 l 2
 408 397 378 430 318 430 c 0
 250 430 205 388 205 324 c 2
 205 0 l 1
 65 0 l 1
 65 540 l 1
EndSplineSet
EndChar

StartChar: Omacron
Encoding: 332 332 270
Width: 782
GlyphClass: 2
Flags: W
AnchorPoint: "Anchor-2" 391 0 basechar 0
LayerCount: 2
Back
Fore
SplineSet
541 879 m 1
 541 800 l 1
 242 800 l 1
 242 879 l 1
 541 879 l 1
40 359 m 0
 40 581 178 741 390 741 c 0
 601 741 742 586 742 354 c 0
 742 145 610 -23 391 -23 c 0
 177 -23 40 137 40 359 c 0
391 613 m 0
 270 613 190 512 190 359 c 0
 190 206 270 105 391 105 c 0
 511 105 592 206 592 355 c 0
 592 513 514 613 391 613 c 0
EndSplineSet
EndChar

StartChar: omacron
Encoding: 333 333 271
Width: 614
GlyphClass: 2
Flags: W
AnchorPoint: "Anchor-2" 303 0 basechar 0
LayerCount: 2
Back
Fore
SplineSet
451 699 m 1
 451 620 l 1
 152 620 l 1
 152 699 l 1
 451 699 l 1
306 549 m 0
 475 549 574 442 574 259 c 0
 574 86 471 -23 307 -23 c 0
 141 -23 40 85 40 263 c 0
 40 440 141 549 306 549 c 0
307 436 m 0
 231 436 180 366 180 263 c 0
 180 160 231 90 307 90 c 0
 382 90 434 160 434 261 c 0
 434 367 384 436 307 436 c 0
EndSplineSet
EndChar

StartChar: Obreve
Encoding: 334 334 272
Width: 782
GlyphClass: 3
Flags: W
AnchorPoint: "Anchor-2" 391 0 basechar 0
LayerCount: 2
Back
Fore
SplineSet
521 900 m 1
 521 889 l 2
 521 814 464 757 389 757 c 0
 314 757 257 814 257 890 c 2
 257 900 l 1
 313 900 l 1
 319 856 344 834 390 834 c 0
 434 834 457 854 465 900 c 1
 521 900 l 1
40 359 m 0
 40 581 178 741 390 741 c 0
 601 741 742 586 742 354 c 0
 742 145 610 -23 391 -23 c 0
 177 -23 40 137 40 359 c 0
391 613 m 0
 270 613 190 512 190 359 c 0
 190 206 270 105 391 105 c 0
 511 105 592 206 592 355 c 0
 592 513 514 613 391 613 c 0
EndSplineSet
Ligature2: "'ccmp' Glyph Composition/Decomposition in Latin lookup 10 per glyph data 1" O brevecomb
EndChar

StartChar: obreve
Encoding: 335 335 273
Width: 614
GlyphClass: 3
Flags: W
AnchorPoint: "Anchor-2" 303 0 basechar 0
LayerCount: 2
Back
Fore
SplineSet
434 783 m 1
 434 772 l 2
 434 697 377 640 302 640 c 0
 227 640 170 697 170 773 c 2
 170 783 l 1
 226 783 l 1
 232 739 257 717 303 717 c 0
 347 717 370 737 378 783 c 1
 434 783 l 1
306 549 m 0
 475 549 574 442 574 259 c 0
 574 86 471 -23 307 -23 c 0
 141 -23 40 85 40 263 c 0
 40 440 141 549 306 549 c 0
307 436 m 0
 231 436 180 366 180 263 c 0
 180 160 231 90 307 90 c 0
 382 90 434 160 434 261 c 0
 434 367 384 436 307 436 c 0
EndSplineSet
Ligature2: "'ccmp' Glyph Composition/Decomposition in Latin lookup 10 per glyph data 1" o brevecomb
EndChar

StartChar: Ohungarumlaut
Encoding: 336 336 274
Width: 782
GlyphClass: 2
Flags: W
AnchorPoint: "Anchor-2" 391 0 basechar 0
LayerCount: 2
Back
Fore
SplineSet
683 900 m 1
 527 780 l 1
 447 780 l 1
 547 900 l 1
 683 900 l 1
493 900 m 1
 337 780 l 1
 257 780 l 1
 357 900 l 1
 493 900 l 1
40 359 m 0
 40 581 178 741 390 741 c 0
 601 741 742 586 742 354 c 0
 742 145 610 -23 391 -23 c 0
 177 -23 40 137 40 359 c 0
391 613 m 0
 270 613 190 512 190 359 c 0
 190 206 270 105 391 105 c 0
 511 105 592 206 592 355 c 0
 592 513 514 613 391 613 c 0
EndSplineSet
EndChar

StartChar: ohungarumlaut
Encoding: 337 337 275
Width: 614
GlyphClass: 2
Flags: W
AnchorPoint: "Anchor-2" 303 0 basechar 0
LayerCount: 2
Back
Fore
SplineSet
371 757 m 1
 245 610 l 1
 175 610 l 1
 245 757 l 1
 371 757 l 1
559 757 m 1
 433 610 l 1
 363 610 l 1
 433 757 l 1
 559 757 l 1
306 549 m 0
 475 549 574 442 574 259 c 0
 574 86 471 -23 307 -23 c 0
 141 -23 40 85 40 263 c 0
 40 440 141 549 306 549 c 0
307 436 m 0
 231 436 180 366 180 263 c 0
 180 160 231 90 307 90 c 0
 382 90 434 160 434 261 c 0
 434 367 384 436 307 436 c 0
EndSplineSet
EndChar

StartChar: OE
Encoding: 338 338 276
Width: 1012
GlyphClass: 2
Flags: W
LayerCount: 2
Back
Fore
SplineSet
636 314 m 1
 636 125 l 1
 982 125 l 1
 982 0 l 1
 492 0 l 1
 492 59 l 1
 443 -3 405 -23 337 -23 c 0
 164 -23 40 136 40 359 c 0
 40 584 163 741 341 741 c 0
 405 741 444 724 492 677 c 1
 492 729 l 1
 963 729 l 1
 963 604 l 1
 636 604 l 1
 636 439 l 1
 935 439 l 1
 935 314 l 1
 636 314 l 1
486 178 m 1
 486 540 l 1
 457 591 422 613 368 613 c 0
 261 613 190 512 190 359 c 0
 190 207 261 105 367 105 c 0
 421 105 457 127 486 178 c 1
EndSplineSet
EndChar

StartChar: oe
Encoding: 339 339 277
Width: 977
GlyphClass: 2
Flags: W
LayerCount: 2
Back
Fore
SplineSet
574 226 m 1
 577 103 640 84 688 84 c 0
 737 84 780 112 793 152 c 1
 931 152 l 1
 899 46 802 -23 681 -23 c 0
 609 -23 545 3 502 52 c 1
 451 2 387 -23 307 -23 c 0
 141 -23 40 85 40 263 c 0
 40 441 141 549 307 549 c 0
 387 549 453 524 502 473 c 1
 545 523 607 549 682 549 c 0
 794 549 937 489 937 250 c 0
 937 243 937 238 936 226 c 1
 574 226 l 1
307 436 m 0
 231 436 180 366 180 263 c 0
 180 160 231 90 307 90 c 0
 382 90 434 160 434 261 c 0
 434 367 384 436 307 436 c 0
791 319 m 1
 783 398 746 442 683 442 c 0
 619 442 583 397 576 319 c 1
 791 319 l 1
EndSplineSet
EndChar

StartChar: Racute
Encoding: 340 340 278
Width: 722
GlyphClass: 2
Flags: W
LayerCount: 2
Back
Fore
SplineSet
513 900 m 1
 357 780 l 1
 277 780 l 1
 377 900 l 1
 513 900 l 1
493 125 m 0
 493 179 495 171 495 202 c 0
 495 263 467 289 402 289 c 2
 230 289 l 1
 230 0 l 1
 80 0 l 1
 80 729 l 1
 471 729 l 2
 628 729 667 613 667 532 c 0
 667 443 626 384 544 352 c 1
 637 312 641 302 645 87 c 0
 645 55 654 40 677 27 c 1
 677 0 l 1
 516 0 l 1
 497 35 493 57 493 125 c 0
517 511 m 0
 517 592 474 604 411 604 c 2
 230 604 l 1
 230 414 l 1
 411 414 l 2
 473 414 517 426 517 511 c 0
EndSplineSet
EndChar

StartChar: racute
Encoding: 341 341 279
Width: 392
GlyphClass: 2
Flags: W
LayerCount: 2
Back
Fore
SplineSet
349 757 m 1
 223 607 l 1
 153 607 l 1
 223 757 l 1
 349 757 l 1
65 540 m 1
 205 540 l 1
 205 434 l 1
 235 507 291 549 355 549 c 0
 359 549 364 549 372 548 c 1
 372 406 l 1
 353 409 343 410 328 410 c 0
 246 410 205 369 205 287 c 2
 205 0 l 1
 65 0 l 1
 65 540 l 1
EndSplineSet
EndChar

StartChar: Rcommaaccent
Encoding: 342 342 280
Width: 722
GlyphClass: 2
Flags: W
LayerCount: 2
Back
Fore
SplineSet
311 -68 m 1
 433 -68 l 1
 433 -176 l 2
 433 -241 382 -298 311 -300 c 1
 311 -254 l 1
 363 -244 378 -205 378 -175 c 1
 311 -175 l 1
 311 -68 l 1
493 125 m 0
 493 179 495 171 495 202 c 0
 495 263 467 289 402 289 c 2
 230 289 l 1
 230 0 l 1
 80 0 l 1
 80 729 l 1
 471 729 l 2
 628 729 667 613 667 532 c 0
 667 443 626 384 544 352 c 1
 637 312 641 302 645 87 c 0
 645 55 654 40 677 27 c 1
 677 0 l 1
 516 0 l 1
 497 35 493 57 493 125 c 0
517 511 m 0
 517 592 474 604 411 604 c 2
 230 604 l 1
 230 414 l 1
 411 414 l 2
 473 414 517 426 517 511 c 0
EndSplineSet
EndChar

StartChar: rcommaaccent
Encoding: 343 343 281
Width: 392
GlyphClass: 2
Flags: W
LayerCount: 2
Back
Fore
SplineSet
84 -68 m 1
 206 -68 l 1
 206 -176 l 2
 206 -241 155 -298 84 -300 c 1
 84 -254 l 1
 136 -244 151 -205 151 -175 c 1
 84 -175 l 1
 84 -68 l 1
65 540 m 1
 205 540 l 1
 205 434 l 1
 235 507 291 549 355 549 c 0
 359 549 364 549 372 548 c 1
 372 406 l 1
 353 409 343 410 328 410 c 0
 246 410 205 369 205 287 c 2
 205 0 l 1
 65 0 l 1
 65 540 l 1
EndSplineSet
EndChar

StartChar: Rcaron
Encoding: 344 344 282
Width: 722
GlyphClass: 2
Flags: W
LayerCount: 2
Back
Fore
SplineSet
410 780 m 1
 303 780 l 1
 200 900 l 1
 288 900 l 1
 360 840 l 1
 432 900 l 1
 518 900 l 1
 410 780 l 1
493 125 m 0
 493 179 495 171 495 202 c 0
 495 263 467 289 402 289 c 2
 230 289 l 1
 230 0 l 1
 80 0 l 1
 80 729 l 1
 471 729 l 2
 628 729 667 613 667 532 c 0
 667 443 626 384 544 352 c 1
 637 312 641 302 645 87 c 0
 645 55 654 40 677 27 c 1
 677 0 l 1
 516 0 l 1
 497 35 493 57 493 125 c 0
517 511 m 0
 517 592 474 604 411 604 c 2
 230 604 l 1
 230 414 l 1
 411 414 l 2
 473 414 517 426 517 511 c 0
EndSplineSet
EndChar

StartChar: rcaron
Encoding: 345 345 283
Width: 392
GlyphClass: 2
Flags: W
LayerCount: 2
Back
Fore
SplineSet
265 607 m 1
 158 607 l 1
 55 757 l 1
 133 757 l 1
 215 660 l 1
 297 757 l 1
 373 757 l 1
 265 607 l 1
65 540 m 1
 205 540 l 1
 205 434 l 1
 235 507 291 549 355 549 c 0
 359 549 364 549 372 548 c 1
 372 406 l 1
 353 409 343 410 328 410 c 0
 246 410 205 369 205 287 c 2
 205 0 l 1
 65 0 l 1
 65 540 l 1
EndSplineSet
EndChar

StartChar: Sacute
Encoding: 346 346 284
Width: 681
GlyphClass: 2
Flags: W
LayerCount: 2
Back
Fore
SplineSet
473 900 m 1
 317 780 l 1
 237 780 l 1
 337 900 l 1
 473 900 l 1
615 507 m 1
 475 507 l 1
 470 581 417 621 322 621 c 0
 245 621 196 586 196 531 c 0
 196 478 227 457 334 436 c 2
 448 414 l 2
 583 388 641 328 641 213 c 0
 641 65 530 -23 342 -23 c 0
 156 -23 49 62 40 218 c 1
 186 218 l 1
 191 140 248 97 350 97 c 0
 441 97 497 134 497 195 c 0
 497 254 460 282 360 301 c 2
 258 321 l 2
 110 349 53 404 53 517 c 0
 53 659 154 741 329 741 c 0
 442 741 615 706 615 507 c 1
EndSplineSet
EndChar

StartChar: sacute
Encoding: 347 347 285
Width: 556
GlyphClass: 2
Flags: W
LayerCount: 2
Back
Fore
SplineSet
409 757 m 1
 283 607 l 1
 213 607 l 1
 283 757 l 1
 409 757 l 1
167 157 m 1
 175 120 189 87 277 87 c 0
 342 87 381 107 381 140 c 0
 381 162 369 173 334 184 c 2
 167 236 l 2
 136 246 49 263 49 369 c 0
 49 480 134 549 271 549 c 0
 416 549 504 480 506 366 c 1
 371 366 l 1
 370 415 337 439 270 439 c 0
 221 439 189 419 189 389 c 0
 189 367 199 359 238 347 c 2
 415 296 l 2
 486 275 521 230 521 160 c 0
 521 85 474 -23 285 -23 c 0
 121 -23 34 39 30 157 c 1
 167 157 l 1
EndSplineSet
EndChar

StartChar: Scircumflex
Encoding: 348 348 286
Width: 681
GlyphClass: 2
Flags: W
LayerCount: 2
Back
Fore
SplineSet
285 900 m 1
 392 900 l 1
 495 780 l 1
 407 780 l 1
 335 840 l 1
 263 780 l 1
 177 780 l 1
 285 900 l 1
615 507 m 1
 475 507 l 1
 470 581 417 621 322 621 c 0
 245 621 196 586 196 531 c 0
 196 478 227 457 334 436 c 2
 448 414 l 2
 583 388 641 328 641 213 c 0
 641 65 530 -23 342 -23 c 0
 156 -23 49 62 40 218 c 1
 186 218 l 1
 191 140 248 97 350 97 c 0
 441 97 497 134 497 195 c 0
 497 254 460 282 360 301 c 2
 258 321 l 2
 110 349 53 404 53 517 c 0
 53 659 154 741 329 741 c 0
 442 741 615 706 615 507 c 1
EndSplineSet
EndChar

StartChar: scircumflex
Encoding: 349 349 287
Width: 556
GlyphClass: 2
Flags: W
LayerCount: 2
Back
Fore
SplineSet
228 790 m 1
 335 790 l 1
 438 640 l 1
 360 640 l 1
 278 740 l 1
 196 640 l 1
 120 640 l 1
 228 790 l 1
167 157 m 1
 175 120 189 87 277 87 c 0
 342 87 381 107 381 140 c 0
 381 162 369 173 334 184 c 2
 167 236 l 2
 136 246 49 263 49 369 c 0
 49 480 134 549 271 549 c 0
 416 549 504 480 506 366 c 1
 371 366 l 1
 370 415 337 439 270 439 c 0
 221 439 189 419 189 389 c 0
 189 367 199 359 238 347 c 2
 415 296 l 2
 486 275 521 230 521 160 c 0
 521 85 474 -23 285 -23 c 0
 121 -23 34 39 30 157 c 1
 167 157 l 1
EndSplineSet
EndChar

StartChar: Scedilla
Encoding: 350 350 288
Width: 681
GlyphClass: 2
Flags: W
LayerCount: 2
Back
Fore
SplineSet
348 -23 m 1
 331 -62 l 1
 346 -58 357 -56 372 -56 c 0
 420 -56 449 -83 449 -127 c 0
 449 -187 403 -220 320 -220 c 0
 276 -220 243 -213 182 -192 c 1
 201 -140 l 1
 251 -162 278 -170 306 -170 c 0
 338 -170 363 -152 363 -129 c 0
 363 -108 343 -94 312 -94 c 0
 292 -94 282 -97 263 -106 c 1
 305 -23 l 1
 134 -5 50 72 40 218 c 1
 186 218 l 1
 191 140 248 97 350 97 c 0
 441 97 497 134 497 195 c 0
 497 254 460 282 360 301 c 2
 258 321 l 2
 110 349 53 404 53 517 c 0
 53 659 154 741 329 741 c 0
 442 741 615 706 615 507 c 1
 475 507 l 1
 470 581 417 621 322 621 c 0
 245 621 196 586 196 531 c 0
 196 478 227 457 334 436 c 2
 448 414 l 2
 583 388 641 328 641 214 c 0
 641 65 543 -14 348 -23 c 1
EndSplineSet
EndChar

StartChar: scedilla
Encoding: 351 351 289
Width: 556
GlyphClass: 2
Flags: W
LayerCount: 2
Back
Fore
SplineSet
167 157 m 1
 175 120 189 87 277 87 c 0
 342 87 381 107 381 140 c 0
 381 162 369 173 334 184 c 2
 167 236 l 2
 136 246 49 263 49 369 c 0
 49 480 134 549 271 549 c 0
 416 549 504 480 506 366 c 1
 371 366 l 1
 370 415 337 439 270 439 c 0
 221 439 189 419 189 389 c 0
 189 367 199 359 238 347 c 2
 415 296 l 2
 486 275 521 230 521 160 c 0
 521 52 431 -23 302 -23 c 2
 284 -23 l 1
 265 -63 l 1
 280 -58 292 -56 307 -56 c 0
 354 -56 383 -83 383 -127 c 0
 383 -187 337 -220 255 -220 c 0
 210 -220 181 -214 116 -192 c 1
 135 -140 l 1
 188 -163 212 -170 240 -170 c 0
 272 -170 297 -152 297 -129 c 0
 297 -108 277 -94 246 -94 c 0
 226 -94 216 -97 197 -106 c 1
 240 -22 l 1
 97 -5 35 48 30 157 c 1
 167 157 l 1
EndSplineSet
EndChar

StartChar: Scaron
Encoding: 352 352 290
Width: 681
GlyphClass: 2
Flags: W
LayerCount: 2
Back
Fore
SplineSet
377 780 m 1
 270 780 l 1
 167 900 l 1
 255 900 l 1
 327 840 l 1
 399 900 l 1
 485 900 l 1
 377 780 l 1
615 507 m 1
 475 507 l 1
 470 581 417 621 322 621 c 0
 245 621 196 586 196 531 c 0
 196 478 227 457 334 436 c 2
 448 414 l 2
 583 388 641 328 641 213 c 0
 641 65 530 -23 342 -23 c 0
 156 -23 49 62 40 218 c 1
 186 218 l 1
 191 140 248 97 350 97 c 0
 441 97 497 134 497 195 c 0
 497 254 460 282 360 301 c 2
 258 321 l 2
 110 349 53 404 53 517 c 0
 53 659 154 741 329 741 c 0
 442 741 615 706 615 507 c 1
EndSplineSet
EndChar

StartChar: scaron
Encoding: 353 353 291
Width: 556
GlyphClass: 2
Flags: W
LayerCount: 2
Back
Fore
SplineSet
332 607 m 1
 225 607 l 1
 122 757 l 1
 200 757 l 1
 282 660 l 1
 364 757 l 1
 440 757 l 1
 332 607 l 1
167 157 m 1
 175 120 189 87 277 87 c 0
 342 87 381 107 381 140 c 0
 381 162 369 173 334 184 c 2
 167 236 l 2
 136 246 49 263 49 369 c 0
 49 480 134 549 271 549 c 0
 416 549 504 480 506 366 c 1
 371 366 l 1
 370 415 337 439 270 439 c 0
 221 439 189 419 189 389 c 0
 189 367 199 359 238 347 c 2
 415 296 l 2
 486 275 521 230 521 160 c 0
 521 85 474 -23 285 -23 c 0
 121 -23 34 39 30 157 c 1
 167 157 l 1
EndSplineSet
EndChar

StartChar: Tcedilla
Encoding: 354 354 292
Width: 644
GlyphClass: 2
Flags: W
LayerCount: 2
Back
Fore
SplineSet
401 604 m 1
 401 0 l 1
 371 0 l 1
 342 -63 l 1
 357 -58 369 -56 384 -56 c 0
 431 -56 460 -83 460 -127 c 0
 460 -187 414 -220 331 -220 c 0
 287 -220 258 -214 193 -192 c 1
 212 -140 l 1
 265 -163 289 -170 317 -170 c 0
 349 -170 374 -152 374 -129 c 0
 374 -108 354 -94 323 -94 c 0
 303 -94 293 -97 274 -106 c 1
 328 0 l 1
 251 0 l 1
 251 604 l 1
 30 604 l 1
 30 729 l 1
 614 729 l 1
 614 604 l 1
 401 604 l 1
EndSplineSet
EndChar

StartChar: tcedilla
Encoding: 355 355 293
Width: 333
GlyphClass: 2
Flags: W
LayerCount: 2
Back
Fore
SplineSet
301 529 m 1
 301 436.000976562 l 1
 223 436.000976562 l 1
 223 142.000976562 l 2
 223 94.0009765625 232 83.0009765625 269 83.0009765625 c 0
 279 83.0009765625 287 84.0009765625 301 86.0009765625 c 1
 301 -11.9990234375 l 1
 280.5078125 -18.556640625 260.015625 -21.7548828125 236.21875 -22.6953125 c 1
 208 -84 l 1
 223 -79 235 -77 250 -77 c 0
 297 -77 326 -104 326 -148 c 0
 326 -208 280 -241 197 -241 c 0
 153 -241 124 -235 59 -213 c 1
 78 -161 l 1
 131 -184 155 -191 183 -191 c 0
 215 -191 240 -173 240 -150 c 0
 240 -129 220 -115 189 -115 c 0
 169 -115 159 -118 140 -127 c 1
 193.6328125 -21.720703125 l 1
 119.392578125 -14.1044921875 83 27.560546875 83 104 c 2
 83 436 l 1
 14 436 l 1
 14 529 l 1
 83 529 l 1
 83 674 l 1
 223 674 l 1
 223 529 l 1
 301 529 l 1
EndSplineSet
EndChar

StartChar: Tcaron
Encoding: 356 356 294
Width: 644
GlyphClass: 2
Flags: W
LayerCount: 2
Back
Fore
SplineSet
357 780 m 1
 250 780 l 1
 147 900 l 1
 235 900 l 1
 307 840 l 1
 379 900 l 1
 465 900 l 1
 357 780 l 1
401 604 m 1
 401 0 l 1
 251 0 l 1
 251 604 l 1
 30 604 l 1
 30 729 l 1
 614 729 l 1
 614 604 l 1
 401 604 l 1
EndSplineSet
EndChar

StartChar: tcaron
Encoding: 357 357 295
Width: 481
GlyphClass: 2
Flags: W
LayerCount: 2
Back
Fore
SplineSet
357 740 m 1
 480 740 l 1
 361 592 l 1
 291 592 l 1
 357 740 l 1
308 529 m 1
 308 436 l 1
 230 436 l 1
 230 142 l 2
 230 94 239 83 276 83 c 0
 286 83 294 84 308 86 c 1
 308 -12 l 1
 283 -20 258 -23 227 -23 c 0
 135 -23 90 19 90 104 c 2
 90 436 l 1
 21 436 l 1
 21 529 l 1
 90 529 l 1
 90 674 l 1
 230 674 l 1
 230 529 l 1
 308 529 l 1
EndSplineSet
EndChar

StartChar: Tbar
Encoding: 358 358 296
Width: 644
GlyphClass: 2
Flags: W
LayerCount: 2
Back
Fore
SplineSet
136 304 m 1
 136 429 l 1
 251 429 l 1
 251 604 l 1
 30 604 l 1
 30 729 l 1
 614 729 l 1
 614 604 l 1
 401 604 l 1
 401 429 l 1
 511 429 l 1
 511 304 l 1
 401 304 l 1
 401 0 l 1
 251 0 l 1
 251 304 l 1
 136 304 l 1
EndSplineSet
EndChar

StartChar: tbar
Encoding: 359 359 297
Width: 333
GlyphClass: 2
Flags: W
LayerCount: 2
Back
Fore
SplineSet
301 529 m 1
 301 436 l 1
 223 436 l 1
 223 312 l 1
 296 312 l 1
 296 219 l 1
 223 219 l 1
 223 142 l 2
 223 94 232 83 269 83 c 0
 279 83 287 84 301 86 c 1
 301 -12 l 1
 276 -20 251 -23 220 -23 c 0
 128 -23 83 19 83 104 c 2
 83 219 l 1
 9 219 l 1
 9 312 l 1
 83 312 l 1
 83 436 l 1
 14 436 l 1
 14 529 l 1
 83 529 l 1
 83 674 l 1
 223 674 l 1
 223 529 l 1
 301 529 l 1
EndSplineSet
EndChar

StartChar: Utilde
Encoding: 360 360 298
Width: 738
GlyphClass: 2
Flags: W
AnchorPoint: "Anchor-2" 364 0 basechar 0
LayerCount: 2
Back
Fore
SplineSet
484 900 m 1
 547 900 l 1
 543 815 511 773 452 773 c 0
 437 773 418 777 397 785 c 2
 326 811 l 2
 314 815 305 817 296 817 c 0
 272 817 261 804 256 772 c 1
 193 772 l 1
 197 850 232 896 287 896 c 0
 306 896 307 896 343 883 c 2
 414 858 l 2
 421 855 441 852 448 852 c 0
 469 852 481 868 484 900 c 1
369 -23 m 0
 246 -23 80 29 80 235 c 2
 80 729 l 1
 230 729 l 1
 230 235 l 2
 230 147 275 105 369 105 c 0
 463 105 508 147 508 235 c 2
 508 729 l 1
 658 729 l 1
 658 235 l 2
 658 29 492 -23 369 -23 c 0
EndSplineSet
EndChar

StartChar: utilde
Encoding: 361 361 299
Width: 613
GlyphClass: 2
Flags: W
AnchorPoint: "Anchor-2" 291 0 basechar 0
LayerCount: 2
Back
Fore
SplineSet
414 768 m 1
 477 768 l 1
 473 683 441 641 382 641 c 0
 367 641 348 645 327 653 c 2
 256 679 l 2
 244 683 235 685 226 685 c 0
 202 685 191 672 186 640 c 1
 123 640 l 1
 127 718 162 764 217 764 c 0
 236 764 237 764 273 751 c 2
 344 726 l 2
 351 723 371 720 378 720 c 0
 399 720 411 736 414 768 c 1
548 0 m 1
 408 0 l 1
 408 64 l 1
 368 4 319 -23 246 -23 c 0
 131 -23 65 45 65 164 c 2
 65 540 l 1
 205 540 l 1
 205 193 l 2
 205 128 235 96 295 96 c 0
 363 96 408 138 408 202 c 2
 408 540 l 1
 548 540 l 1
 548 0 l 1
EndSplineSet
EndChar

StartChar: Umacron
Encoding: 362 362 300
Width: 738
GlyphClass: 2
Flags: W
AnchorPoint: "Anchor-2" 364 0 basechar 0
LayerCount: 2
Back
Fore
SplineSet
515 879 m 1
 515 800 l 1
 216 800 l 1
 216 879 l 1
 515 879 l 1
369 -23 m 0
 246 -23 80 29 80 235 c 2
 80 729 l 1
 230 729 l 1
 230 235 l 2
 230 147 275 105 369 105 c 0
 463 105 508 147 508 235 c 2
 508 729 l 1
 658 729 l 1
 658 235 l 2
 658 29 492 -23 369 -23 c 0
EndSplineSet
EndChar

StartChar: umacron
Encoding: 363 363 301
Width: 613
GlyphClass: 2
Flags: W
AnchorPoint: "Anchor-2" 291 0 basechar 0
LayerCount: 2
Back
Fore
SplineSet
449 699 m 1
 449 620 l 1
 150 620 l 1
 150 699 l 1
 449 699 l 1
548 0 m 1
 408 0 l 1
 408 64 l 1
 368 4 319 -23 246 -23 c 0
 131 -23 65 45 65 164 c 2
 65 540 l 1
 205 540 l 1
 205 193 l 2
 205 128 235 96 295 96 c 0
 363 96 408 138 408 202 c 2
 408 540 l 1
 548 540 l 1
 548 0 l 1
EndSplineSet
EndChar

StartChar: Ubreve
Encoding: 364 364 302
Width: 738
GlyphClass: 3
Flags: W
AnchorPoint: "Anchor-2" 364 0 basechar 0
LayerCount: 2
Back
Fore
SplineSet
495 900 m 1
 495 889 l 2
 495 814 438 757 363 757 c 0
 288 757 231 814 231 890 c 2
 231 900 l 1
 287 900 l 1
 293 856 318 834 364 834 c 0
 408 834 431 854 439 900 c 1
 495 900 l 1
369 -23 m 0
 246 -23 80 29 80 235 c 2
 80 729 l 1
 230 729 l 1
 230 235 l 2
 230 147 275 105 369 105 c 0
 463 105 508 147 508 235 c 2
 508 729 l 1
 658 729 l 1
 658 235 l 2
 658 29 492 -23 369 -23 c 0
EndSplineSet
Ligature2: "'ccmp' Glyph Composition/Decomposition in Latin lookup 10 per glyph data 1" U brevecomb
EndChar

StartChar: ubreve
Encoding: 365 365 303
Width: 613
GlyphClass: 3
Flags: W
AnchorPoint: "Anchor-2" 291 0 basechar 0
LayerCount: 2
Back
Fore
SplineSet
431 783 m 1
 431 772 l 2
 431 697 374 640 299 640 c 0
 224 640 167 697 167 773 c 2
 167 783 l 1
 223 783 l 1
 229 739 254 717 300 717 c 0
 344 717 367 737 375 783 c 1
 431 783 l 1
548 0 m 1
 408 0 l 1
 408 64 l 1
 368 4 319 -23 246 -23 c 0
 131 -23 65 45 65 164 c 2
 65 540 l 1
 205 540 l 1
 205 193 l 2
 205 128 235 96 295 96 c 0
 363 96 408 138 408 202 c 2
 408 540 l 1
 548 540 l 1
 548 0 l 1
EndSplineSet
Ligature2: "'ccmp' Glyph Composition/Decomposition in Latin lookup 10 per glyph data 1" u brevecomb
EndChar

StartChar: Uring
Encoding: 366 366 304
Width: 738
GlyphClass: 2
Flags: W
AnchorPoint: "Anchor-2" 364 0 basechar 0
LayerCount: 2
Back
Fore
SplineSet
366 949 m 0
 416 949 455 909 455 858 c 0
 455 809 414 769 365 769 c 0
 315 769 275 809 275 859 c 0
 275 909 315 949 366 949 c 0
366 901 m 0
 342 901 323 882 323 859 c 0
 323 836 342 817 366 817 c 0
 388 817 407 836 407 859 c 0
 407 882 389 901 366 901 c 0
369 -23 m 0
 246 -23 80 29 80 235 c 2
 80 729 l 1
 230 729 l 1
 230 235 l 2
 230 147 275 105 369 105 c 0
 463 105 508 147 508 235 c 2
 508 729 l 1
 658 729 l 1
 658 235 l 2
 658 29 492 -23 369 -23 c 0
EndSplineSet
EndChar

StartChar: uring
Encoding: 367 367 305
Width: 613
GlyphClass: 2
Flags: W
AnchorPoint: "Anchor-2" 291 0 basechar 0
LayerCount: 2
Back
Fore
SplineSet
300 770 m 0
 350 770 389 730 389 679 c 0
 389 630 348 590 299 590 c 0
 249 590 209 630 209 680 c 0
 209 730 249 770 300 770 c 0
300 722 m 0
 276 722 257 703 257 680 c 0
 257 657 276 638 300 638 c 0
 322 638 341 657 341 680 c 0
 341 703 323 722 300 722 c 0
548 0 m 1
 408 0 l 1
 408 64 l 1
 368 4 319 -23 246 -23 c 0
 131 -23 65 45 65 164 c 2
 65 540 l 1
 205 540 l 1
 205 193 l 2
 205 128 235 96 295 96 c 0
 363 96 408 138 408 202 c 2
 408 540 l 1
 548 540 l 1
 548 0 l 1
EndSplineSet
EndChar

StartChar: Uhungarumlaut
Encoding: 368 368 306
Width: 738
GlyphClass: 2
Flags: W
AnchorPoint: "Anchor-2" 364 0 basechar 0
LayerCount: 2
Back
Fore
SplineSet
653 900 m 1
 497 780 l 1
 417 780 l 1
 517 900 l 1
 653 900 l 1
463 900 m 1
 307 780 l 1
 227 780 l 1
 327 900 l 1
 463 900 l 1
369 -23 m 0
 246 -23 80 29 80 235 c 2
 80 729 l 1
 230 729 l 1
 230 235 l 2
 230 147 275 105 369 105 c 0
 463 105 508 147 508 235 c 2
 508 729 l 1
 658 729 l 1
 658 235 l 2
 658 29 492 -23 369 -23 c 0
EndSplineSet
EndChar

StartChar: uhungarumlaut
Encoding: 369 369 307
Width: 613
GlyphClass: 2
Flags: W
AnchorPoint: "Anchor-2" 291 0 basechar 0
LayerCount: 2
Back
Fore
SplineSet
370 757 m 1
 244 610 l 1
 174 610 l 1
 244 757 l 1
 370 757 l 1
558 757 m 1
 432 610 l 1
 362 610 l 1
 432 757 l 1
 558 757 l 1
548 0 m 1
 408 0 l 1
 408 64 l 1
 368 4 319 -23 246 -23 c 0
 131 -23 65 45 65 164 c 2
 65 540 l 1
 205 540 l 1
 205 193 l 2
 205 128 235 96 295 96 c 0
 363 96 408 138 408 202 c 2
 408 540 l 1
 548 540 l 1
 548 0 l 1
EndSplineSet
EndChar

StartChar: Uogonek
Encoding: 370 370 308
Width: 738
GlyphClass: 2
Flags: W
AnchorPoint: "Anchor-3" 365 730 basechar 0
LayerCount: 2
Back
Fore
SplineSet
658 235 m 2
 658 20 466 -9 466 -132 c 0
 466 -166 491 -183 543 -183 c 0
 564 -183 582 -181 601 -177 c 1
 601 -224 l 1
 574 -231 550 -234 521 -234 c 0
 462 -234 377 -215 377 -138 c 0
 377 -90 404 -55 481 -7 c 1
 433 -20 411 -23 372 -23 c 0
 244 -23 80 29 80 235 c 2
 80 729 l 1
 230 729 l 1
 230 235 l 2
 230 147 275 105 369 105 c 0
 463 105 508 147 508 235 c 2
 508 729 l 1
 658 729 l 1
 658 235 l 2
EndSplineSet
EndChar

StartChar: uogonek
Encoding: 371 371 309
Width: 611
GlyphClass: 2
Flags: W
AnchorPoint: "Anchor-3" 301 550 basechar 0
LayerCount: 2
Back
Fore
SplineSet
340 -138 m 0
 340 -55 428 -14 465 0 c 1
 401 0 l 1
 401 64 l 1
 361 4 312 -23 239 -23 c 0
 124 -23 58 45 58 164 c 2
 58 540 l 1
 198 540 l 1
 198 193 l 2
 198 128 228 96 288 96 c 0
 356 96 401 138 401 202 c 2
 401 540 l 1
 541 540 l 1
 541 0 l 1
 468 -37 430 -82 430 -129 c 0
 430 -165 454 -182 506 -182 c 0
 526 -182 545 -180 564 -177 c 1
 564 -224 l 1
 536 -231 516 -233 489 -233 c 0
 395 -233 340 -198 340 -138 c 0
EndSplineSet
EndChar

StartChar: Wcircumflex
Encoding: 372 372 310
Width: 959
GlyphClass: 2
Flags: W
LayerCount: 2
Back
Fore
SplineSet
422 900 m 1
 529 900 l 1
 632 780 l 1
 544 780 l 1
 472 840 l 1
 400 780 l 1
 314 780 l 1
 422 900 l 1
737 0 m 1
 602 0 l 1
 480 569 l 1
 361 0 l 1
 226 0 l 1
 20 729 l 1
 179 729 l 1
 292 183 l 1
 405 729 l 1
 553 729 l 1
 671 182 l 1
 780 729 l 1
 939 729 l 1
 737 0 l 1
EndSplineSet
EndChar

StartChar: wcircumflex
Encoding: 373 373 311
Width: 781
GlyphClass: 2
Flags: W
LayerCount: 2
Back
Fore
SplineSet
334 790 m 1
 441 790 l 1
 544 640 l 1
 466 640 l 1
 384 740 l 1
 302 640 l 1
 226 640 l 1
 334 790 l 1
618 0 m 1
 473 0 l 1
 392 381 l 1
 306 0 l 1
 162 0 l 1
 10 540 l 1
 155 540 l 1
 241 162 l 1
 323 540 l 1
 463 540 l 1
 544 162 l 1
 626 540 l 1
 771 540 l 1
 618 0 l 1
EndSplineSet
EndChar

StartChar: Ycircumflex
Encoding: 374 374 312
Width: 643
GlyphClass: 2
Flags: W
AnchorPoint: "Anchor-2" 335 0 basechar 0
LayerCount: 2
Back
Fore
SplineSet
285 900 m 1
 392 900 l 1
 495 780 l 1
 407 780 l 1
 335 840 l 1
 263 780 l 1
 177 780 l 1
 285 900 l 1
402 268 m 1
 402 -2 l 1
 252 -2 l 1
 252 268 l 1
 10 727 l 1
 177 727 l 1
 326 405 l 1
 465 727 l 1
 633 727 l 1
 402 268 l 1
EndSplineSet
EndChar

StartChar: ycircumflex
Encoding: 375 375 313
Width: 549
GlyphClass: 2
Flags: W
AnchorPoint: "Anchor-4" 437 0 basechar 0 {150-150 0} {}
AnchorPoint: "Anchor-2" 455 0 basechar 0
LayerCount: 2
Back
Fore
SplineSet
222 790 m 1
 329 790 l 1
 432 640 l 1
 354 640 l 1
 272 740 l 1
 190 640 l 1
 114 640 l 1
 222 790 l 1
211 -26 m 2
 211 -22 l 1
 10 540 l 1
 164 540 l 1
 283 147 l 1
 395 540 l 1
 539 540 l 1
 317 -99 l 2
 304 -136 290 -219 137 -219 c 0
 120 -219 108 -218 87 -215 c 1
 87 -110 l 1
 105 -115 113 -116 124 -116 c 0
 173 -116 211 -77 211 -26 c 2
EndSplineSet
EndChar

StartChar: Ydieresis
Encoding: 376 376 314
Width: 643
GlyphClass: 2
Flags: W
AnchorPoint: "Anchor-2" 335 0 basechar 0
LayerCount: 2
Back
Fore
SplineSet
475 900 m 1
 475 778 l 1
 365 778 l 1
 365 900 l 1
 475 900 l 1
279 900 m 1
 279 778 l 1
 169 778 l 1
 169 900 l 1
 279 900 l 1
402 270 m 1
 402 0 l 1
 252 0 l 1
 252 270 l 1
 10 729 l 1
 177 729 l 1
 326 407 l 1
 465 729 l 1
 633 729 l 1
 402 270 l 1
EndSplineSet
EndChar

StartChar: Zacute
Encoding: 377 377 315
Width: 608
GlyphClass: 2
Flags: W
LayerCount: 2
Back
Fore
SplineSet
463 900 m 1
 307 780 l 1
 227 780 l 1
 327 900 l 1
 463 900 l 1
578 729 m 1
 578 604 l 1
 206 125 l 1
 578 125 l 1
 578 0 l 1
 30 0 l 1
 30 125 l 1
 403 604 l 1
 30 604 l 1
 30 729 l 1
 578 729 l 1
EndSplineSet
EndChar

StartChar: zacute
Encoding: 378 378 316
Width: 507
GlyphClass: 2
Flags: W
LayerCount: 2
Back
Fore
SplineSet
387 757 m 1
 261 607 l 1
 191 607 l 1
 261 757 l 1
 387 757 l 1
468 540 m 1
 468 427 l 1
 203 113 l 1
 477 113 l 1
 477 0 l 1
 30 0 l 1
 30 113 l 1
 297 427 l 1
 48 427 l 1
 48 540 l 1
 468 540 l 1
EndSplineSet
EndChar

StartChar: Zdotaccent
Encoding: 379 379 317
Width: 608
GlyphClass: 2
Flags: W
LayerCount: 2
Back
Fore
SplineSet
363 900 m 1
 363 778 l 1
 253 778 l 1
 253 900 l 1
 363 900 l 1
578 729 m 1
 578 604 l 1
 206 125 l 1
 578 125 l 1
 578 0 l 1
 30 0 l 1
 30 125 l 1
 403 604 l 1
 30 604 l 1
 30 729 l 1
 578 729 l 1
EndSplineSet
EndChar

StartChar: zdotaccent
Encoding: 380 380 318
Width: 507
GlyphClass: 2
Flags: W
LayerCount: 2
Back
Fore
SplineSet
306 743 m 1
 306 621 l 1
 196 621 l 1
 196 743 l 1
 306 743 l 1
468 540 m 1
 468 427 l 1
 203 113 l 1
 477 113 l 1
 477 0 l 1
 30 0 l 1
 30 113 l 1
 297 427 l 1
 48 427 l 1
 48 540 l 1
 468 540 l 1
EndSplineSet
EndChar

StartChar: Zcaron
Encoding: 381 381 319
Width: 608
GlyphClass: 2
Flags: W
LayerCount: 2
Back
Fore
SplineSet
357 780 m 1
 250 780 l 1
 147 900 l 1
 235 900 l 1
 307 840 l 1
 379 900 l 1
 465 900 l 1
 357 780 l 1
578 729 m 1
 578 604 l 1
 206 125 l 1
 578 125 l 1
 578 0 l 1
 30 0 l 1
 30 125 l 1
 403 604 l 1
 30 604 l 1
 30 729 l 1
 578 729 l 1
EndSplineSet
EndChar

StartChar: zcaron
Encoding: 382 382 320
Width: 507
GlyphClass: 2
Flags: W
LayerCount: 2
Back
Fore
SplineSet
302 607 m 1
 195 607 l 1
 92 757 l 1
 170 757 l 1
 252 660 l 1
 334 757 l 1
 410 757 l 1
 302 607 l 1
468 540 m 1
 468 427 l 1
 203 113 l 1
 477 113 l 1
 477 0 l 1
 30 0 l 1
 30 113 l 1
 297 427 l 1
 48 427 l 1
 48 540 l 1
 468 540 l 1
EndSplineSet
EndChar

StartChar: longs
Encoding: 383 383 321
Width: 333
GlyphClass: 2
Flags: W
LayerCount: 2
Back
Fore
SplineSet
230 0 m 1
 90 0 l 1
 90 436 l 1
 14 436 l 1
 14 529 l 1
 90 529 l 1
 90 594 l 2
 90 685 135 729 228 729 c 0
 247 729 282 728 308 726 c 1
 308 621 l 1
 296 623 280 624 268 624 c 0
 242 624 230 610 230 582 c 2
 230 0 l 1
EndSplineSet
EndChar

StartChar: uni0180
Encoding: 384 384 322
Width: 621
GlyphClass: 2
Flags: W
LayerCount: 2
Back
Fore
SplineSet
323 432 m 0
 253 432 205 363 205 265 c 0
 205 162 252 94 323 94 c 0
 392 94 441 164 441 262 c 0
 441 362 392 432 323 432 c 0
354 549 m 0
 482 549 581 432 581 263 c 0
 581 100 483 -23 354 -23 c 0
 286 -23 239 2 205 55 c 1
 205 0 l 1
 65 0 l 1
 65 596 l 1
 5 596 l 1
 5 663 l 1
 65 663 l 1
 65 729 l 1
 205 729 l 1
 205 663 l 1
 338 663 l 1
 338 596 l 1
 205 596 l 1
 205 470 l 1
 239 524 287 549 354 549 c 0
EndSplineSet
EndChar

StartChar: uni0181
Encoding: 385 385 323
Width: 903
GlyphClass: 2
Flags: W
LayerCount: 2
Back
Fore
SplineSet
429 314 m 1
 429 125 l 1
 608 125 l 2
 681 125 719 158 719 219 c 0
 719 281 681 314 608 314 c 2
 429 314 l 1
429 604 m 1
 429 439 l 1
 592 439 l 2
 661 439 698 468 698 521 c 0
 698 575 661 604 592 604 c 2
 429 604 l 1
223 316 m 1
 86 316 40 412 40 520 c 0
 40 653 117 729 253 729 c 2
 604 729 l 2
 796 729 842 604 842 537 c 0
 842 475 814 433 742 387 c 1
 824 339 863 282 863 210 c 0
 863 123 812 0 607 0 c 2
 279 0 l 1
 279 579 l 1
 243 579 l 2
 188 579 168 551 168 514 c 0
 168 474 196 446 223 446 c 1
 223 316 l 1
EndSplineSet
EndChar

StartChar: uni0182
Encoding: 386 386 324
Width: 679
GlyphClass: 2
Flags: W
LayerCount: 2
Back
Fore
SplineSet
647 222 m 0
 647 125 596 0 391 0 c 2
 63 0 l 1
 63 729 l 1
 575 729 l 1
 575 604 l 1
 213 604 l 1
 213 463 l 1
 376 463 l 2
 599 463 647 294 647 222 c 0
213 338 m 1
 213 125 l 1
 392 125 l 2
 465 125 503 170 503 231 c 0
 503 293 465 338 392 338 c 2
 213 338 l 1
EndSplineSet
EndChar

StartChar: uni0183
Encoding: 387 387 325
Width: 636
GlyphClass: 2
Flags: W
LayerCount: 2
Back
Fore
SplineSet
338 432 m 0
 268 432 220 363 220 265 c 0
 220 162 267 94 338 94 c 0
 407 94 456 164 456 262 c 0
 456 362 407 432 338 432 c 0
369 549 m 0
 497 549 596 432 596 263 c 0
 596 100 498 -23 369 -23 c 0
 301 -23 254 2 220 55 c 1
 220 0 l 1
 80 0 l 1
 80 729 l 1
 459 729 l 1
 459 604 l 1
 220 604 l 1
 220 470 l 1
 254 524 302 549 369 549 c 0
EndSplineSet
EndChar

StartChar: uni0184
Encoding: 388 388 326
Width: 690
GlyphClass: 2
Flags: W
LayerCount: 2
Back
Fore
SplineSet
247 729 m 1
 247 469 l 1
 434 469 l 2
 568 469 654 374 654 226 c 0
 654 80 571 0 419 0 c 2
 97 0 l 1
 97 468 l 1
 0 543 l 1
 247 729 l 1
247 344 m 1
 247 125 l 1
 387 125 l 2
 467 125 504 160 504 235 c 0
 504 309 467 344 387 344 c 2
 247 344 l 1
EndSplineSet
EndChar

StartChar: uni0185
Encoding: 389 389 327
Width: 653
GlyphClass: 2
Flags: W
LayerCount: 2
Back
Fore
SplineSet
355 432 m 0
 285 432 237 363 237 265 c 0
 237 162 284 94 355 94 c 0
 424 94 473 164 473 262 c 0
 473 362 424 432 355 432 c 0
386 549 m 0
 514 549 613 432 613 263 c 0
 613 100 515 -23 386 -23 c 0
 318 -23 271 2 237 55 c 1
 237 0 l 1
 97 0 l 1
 97 493 l 1
 0 574 l 1
 237 729 l 1
 237 470 l 1
 271 524 319 549 386 549 c 0
EndSplineSet
EndChar

StartChar: uni0186
Encoding: 390 390 328
Width: 721
GlyphClass: 2
Flags: W
LayerCount: 2
Back
Fore
SplineSet
186 236 m 1
 194 199 217 105 342 105 c 0
 460 105 531 201 531 362 c 0
 531 521 463 615 347 615 c 0
 254 615 195 562 186 469 c 1
 40 469 l 1
 49 636 170 741 351 741 c 0
 554 741 681 594 681 360 c 0
 681 124 553 -23 347 -23 c 0
 177 -23 56 72 43 236 c 1
 186 236 l 1
EndSplineSet
EndChar

StartChar: uni0187
Encoding: 391 391 329
Width: 754
GlyphClass: 2
Flags: W
LayerCount: 2
Back
Fore
SplineSet
535 482 m 1
 527 519 504 613 379 613 c 0
 261 613 190 517 190 356 c 0
 190 197 258 103 374 103 c 0
 467 103 535 156 535 249 c 1
 681 249 l 1
 681 82 551 -23 370 -23 c 0
 167 -23 40 124 40 358 c 0
 40 594 168 741 374 741 c 0
 440 741 499 726 548 697 c 1
 563 733 595 748 652 748 c 0
 672 748 707 746 735 743 c 1
 735 631 l 1
 725 634 729 635 720 635 c 0
 690 635 678 624 678 593 c 2
 678 482 l 1
 535 482 l 1
EndSplineSet
EndChar

StartChar: uni0188
Encoding: 392 392 330
Width: 613
GlyphClass: 2
Flags: W
LayerCount: 2
Back
Fore
SplineSet
294 436 m 0
 197 436 180 334 180 259 c 0
 180 154 223 90 294 90 c 0
 348 90 376 117 394 187 c 1
 528 187 l 1
 515 58 424 -23 293 -23 c 0
 133 -23 40 81 40 259 c 0
 40 443 134 549 295 549 c 0
 341 549 382 540 416 522 c 1
 435 547 468 558 516 558 c 0
 536 558 565 556 593 553 c 1
 593 441 l 1
 583 444 577 445 568 445 c 0
 538 445 527 434 527 403 c 2
 528 338 l 1
 394 338 l 1
 378 409 351 436 294 436 c 0
EndSplineSet
EndChar

StartChar: uni0189
Encoding: 393 393 331
Width: 741
GlyphClass: 2
Flags: W
LayerCount: 2
Back
Fore
SplineSet
97 339 m 1
 20 339 l 1
 20 419 l 1
 97 419 l 1
 97 729 l 1
 382 729 l 2
 497 729 565 705 613 645 c 0
 669 577 701 472 701 365 c 0
 701 257 668 154 613 85 c 0
 565 25 496 0 382 0 c 2
 97 0 l 1
 97 339 l 1
557 364 m 0
 557 544 489 604 382 604 c 2
 247 604 l 1
 247 419 l 1
 397 419 l 1
 397 339 l 1
 247 339 l 1
 247 125 l 1
 382 125 l 2
 479 125 557 173 557 364 c 0
EndSplineSet
EndChar

StartChar: uni018A
Encoding: 394 394 332
Width: 923
GlyphClass: 2
Flags: W
LayerCount: 2
Back
Fore
SplineSet
429 125 m 1
 564 125 l 2
 677 125 733 204 733 364 c 0
 733 525 677 604 564 604 c 2
 429 604 l 1
 429 125 l 1
223 316 m 1
 86 316 40 412 40 520 c 0
 40 653 117 729 253 729 c 2
 564 729 l 2
 676 729 744.825195312 703.853515625 794 645 c 0
 851.794921875 575.828125 883 477 883 365 c 0
 883 252 852 153 794 85 c 0
 745 26 675 0 564 0 c 2
 279 0 l 1
 279 578.625 l 1
 243 578 l 2
 188 578 168 551 168 514 c 0
 168 474 196 446 223 446 c 1
 223 316 l 1
EndSplineSet
EndChar

StartChar: uni018B
Encoding: 395 395 333
Width: 722
GlyphClass: 2
Flags: W
LayerCount: 2
Back
Fore
SplineSet
52 222 m 0
 52 294 100 463 323 463 c 2
 486 463 l 1
 486 604 l 1
 124 604 l 1
 124 729 l 1
 636 729 l 1
 636 0 l 1
 308 0 l 2
 103 0 52 125 52 222 c 0
486 338 m 1
 307 338 l 2
 234 338 196 293 196 231 c 0
 196 170 234 125 307 125 c 2
 486 125 l 1
 486 338 l 1
EndSplineSet
EndChar

StartChar: uni018C
Encoding: 396 396 334
Width: 621
GlyphClass: 2
Flags: W
LayerCount: 2
Back
Fore
SplineSet
298 432 m 0
 229 432 180 362 180 262 c 0
 180 164 229 94 298 94 c 0
 369 94 416 162 416 265 c 0
 416 363 368 432 298 432 c 0
267 549 m 0
 334 549 382 524 416 470 c 1
 416 604 l 1
 177 604 l 1
 177 729 l 1
 556 729 l 1
 556 0 l 1
 416 0 l 1
 416 55 l 1
 382 2 335 -23 267 -23 c 0
 138 -23 40 100 40 263 c 0
 40 432 139 549 267 549 c 0
EndSplineSet
EndChar

StartChar: uni018D
Encoding: 397 397 335
Width: 622
GlyphClass: 2
Flags: W
LayerCount: 2
Back
Fore
SplineSet
280 424 m 0
 160 424 139 336 139 275 c 0
 139 219 159 130 274 130 c 0
 351 130 403 194 403 276 c 0
 403 375 362 424 280 424 c 0
543 284 m 0
 543 77 395 34 348 25 c 1
 507 -80 l 1
 507 -183 l 1
 59 -183 l 1
 59 -69 l 1
 276 -69 l 1
 163 7 l 2
 114 40 1 105 1 276 c 0
 1 493 126 547 280 547 c 0
 379 547 543 508 543 284 c 0
EndSplineSet
EndChar

StartChar: uni018E
Encoding: 398 398 336
Width: 665
GlyphClass: 2
Flags: W
LayerCount: 2
Back
Fore
SplineSet
435 314 m 1
 86 314 l 1
 86 439 l 1
 435 439 l 1
 435 604 l 1
 58 604 l 1
 58 729 l 1
 585 729 l 1
 585 0 l 1
 40 0 l 1
 40 125 l 1
 435 125 l 1
 435 314 l 1
EndSplineSet
EndChar

StartChar: uni018F
Encoding: 399 399 337
Width: 782
GlyphClass: 2
Flags: W
LayerCount: 2
Back
Fore
SplineSet
195 293 m 1
 215 178 288 105 391 105 c 0
 493 105 568 179 587 293 c 1
 195 293 l 1
391 -23 m 0
 177 -23 40 139 40 359 c 0
 40 379 41 399 44 418 c 1
 194 418 l 1
 587 418 l 1
 569 539 497 613 391 613 c 0
 314 613 254 573 220 504 c 1
 63 504 l 1
 125 688 267 741 390 741 c 0
 601 741 742 586 742 354 c 0
 742 145 608 -23 391 -23 c 0
EndSplineSet
EndChar

StartChar: uni0190
Encoding: 400 400 338
Width: 681
GlyphClass: 2
Flags: W
LayerCount: 2
Back
Fore
SplineSet
628 507 m 1
 488 507 l 1
 483 581 430 621 335 621 c 0
 258 621 209 586 209 531 c 0
 209 478 238 428 347 428 c 2
 423 428 l 1
 423 308 l 1
 321 308 l 2
 219 308 184 254 184 195 c 0
 184 134 240 97 331 97 c 0
 433 97 490 140 495 218 c 1
 641 218 l 1
 632 62 525 -23 339 -23 c 0
 151 -23 40 65 40 213 c 0
 40 293 67 343 129 377 c 1
 86 409 66 453 66 517 c 0
 66 659 167 741 342 741 c 0
 456 741 628 706 628 507 c 1
EndSplineSet
EndChar

StartChar: uni0191
Encoding: 401 401 339
Width: 611
GlyphClass: 2
Flags: W
LayerCount: 2
Back
Fore
SplineSet
225 439 m 1
 544 439 l 1
 544 314 l 1
 226 314 l 1
 226 -94 l 2
 226 -182 190 -218 103 -218 c 0
 83 -218 48 -216 20 -213 c 1
 20 -101 l 1
 30 -104 25 -105 34 -105 c 0
 64 -105 75 -94 75 -63 c 2
 75 729 l 1
 587 729 l 1
 587 604 l 1
 225 604 l 1
 225 439 l 1
EndSplineSet
EndChar

StartChar: florin
Encoding: 402 402 340
Width: 333
GlyphClass: 2
Flags: W
LayerCount: 2
Back
Fore
SplineSet
313 529 m 1
 313 436 l 1
 230 436 l 1
 230 -94 l 2
 230 -182 194 -218 107 -218 c 0
 87 -218 52 -216 24 -213 c 1
 24 -101 l 1
 34 -104 40 -105 49 -105 c 0
 79 -105 90 -94 90 -63 c 2
 90 436 l 1
 14 436 l 1
 14 529 l 1
 90 529 l 1
 90 594 l 2
 90 685 135 729 228 729 c 0
 247 729 282 728 308 726 c 1
 308 621 l 1
 296 623 280 624 268 624 c 0
 242 624 230 610 230 582 c 2
 230 529 l 1
 313 529 l 1
EndSplineSet
EndChar

StartChar: uni0193
Encoding: 403 403 341
Width: 786
GlyphClass: 2
Flags: W
LayerCount: 2
Back
Fore
SplineSet
568 496 m 1
 547 558 498 613 394 613 c 0
 267 613 190 518 190 361 c 0
 190 211 277 105 398 105 c 0
 511 105 583 196 583 267 c 1
 417 267 l 1
 417 392 l 1
 709 392 l 1
 709 0 l 1
 619 0 l 1
 601 94 l 1
 545 12 479 -23 381 -23 c 0
 184 -23 40 138 40 359 c 0
 40 586 183 741 393 741 c 0
 465 741 528 725 579 696 c 1
 594 732 625 748 683 748 c 0
 703 748 738 746 766 743 c 1
 766 631 l 1
 756 634 760 635 751 635 c 0
 721 635 709 624 709 593 c 2
 709 496 l 1
 568 496 l 1
EndSplineSet
EndChar

StartChar: uni0194
Encoding: 404 404 342
Width: 657
GlyphClass: 2
Flags: W
LayerCount: 2
Back
Fore
SplineSet
333 136 m 1
 321 124 313 115 313 100 c 0
 313 88 321.96875 80 333 80 c 0
 344.03125 80 353 87 353 100 c 0
 353 115.984375 346 123 333 136 c 1
409 270 m 1
 450 204 483 124 483 81 c 0
 483 24 422 -20 333 -20 c 0
 238.995117188 -20 183 21 183 81 c 0
 183 121.776367188 214 198 259 270 c 1
 17 729 l 1
 184 729 l 1
 333 407 l 1
 472 729 l 1
 640 729 l 1
 409 270 l 1
EndSplineSet
EndChar

StartChar: uni0195
Encoding: 405 405 343
Width: 949
GlyphClass: 2
Flags: W
LayerCount: 2
Back
Fore
SplineSet
414 330 m 2
 414 388 393 430 328 430 c 0
 265 430 220 386 220 324 c 2
 220 0 l 1
 80 0 l 1
 80 729 l 1
 220 729 l 1
 220 462 l 1
 259 521 309 549 378 549 c 0
 455 549 554 512 554 362 c 2
 554 238 l 2
 554 150 567.994140625 105 651 105 c 0
 729 105 746 155 746 244 c 2
 746 540 l 1
 884 540 l 1
 884 212 l 2
 884 83 825 -16 653 -16 c 0
 451 -16 414 83 414 212 c 2
 414 330 l 2
EndSplineSet
EndChar

StartChar: uni0196
Encoding: 406 406 344
Width: 299
GlyphClass: 2
Flags: W
LayerCount: 2
Back
Fore
SplineSet
198 97 m 2
 198.315429688 88.9150390625 198.482421875 79.982421875 200.53125 77.09765625 c 0
 203.790039062 75.5361328125 211.954101562 75 219 75 c 0
 233.993164062 75 244.91796875 76.072265625 252.421875 78.119140625 c 2
 284 86.7314453125 l 1
 284 -36.931640625 l 1
 263.39453125 -40.6103515625 l 2
 234.569335938 -45.7568359375 212.717773438 -48 191 -48 c 0
 110.931640625 -48 65 -6.5341796875 65 60 c 2
 65 754 l 1
 198 754 l 1
 198 97 l 2
EndSplineSet
EndChar

StartChar: uni0197
Encoding: 407 407 345
Width: 433
GlyphClass: 2
Flags: W
LayerCount: 2
Back
Fore
SplineSet
143 293 m 1
 21 293 l 1
 20 418 l 1
 143 418 l 1
 143 729 l 1
 293 729 l 1
 293 418 l 1
 413 418 l 1
 413 293 l 1
 293 293 l 1
 293 0 l 1
 143 0 l 1
 143 293 l 1
EndSplineSet
EndChar

StartChar: uni0198
Encoding: 408 408 346
Width: 784
GlyphClass: 2
Flags: W
LayerCount: 2
Back
Fore
SplineSet
664 559 m 0
 664 581 641 609 612 609 c 0
 600 609 586 604 571 594 c 2
 401 415 l 1
 723 0 l 1
 544 0 l 1
 305 322 l 1
 230 244 l 1
 230 0 l 1
 80 0 l 1
 80 729 l 1
 230 729 l 1
 230 409 l 1
 454 657 l 2
 507 713 559 745 611 745 c 0
 652 745 693 726 735 687 c 0
 781 644 784 616 784 563 c 0
 784 500 758 455 711 405 c 1
 623 487 l 1
 650 516 664 540 664 559 c 0
EndSplineSet
EndChar

StartChar: uni0199
Encoding: 409 409 347
Width: 564
GlyphClass: 2
Flags: W
LayerCount: 2
Back
Fore
SplineSet
205 330 m 1
 382 540 l 1
 541 540 l 1
 357 336 l 1
 554 0 l 1
 390 0 l 1
 261 238 l 1
 205 177 l 1
 205 0 l 1
 65 0 l 1
 65 605 l 2
 65 693 101 729 188 729 c 0
 208 729 243 727 271 724 c 1
 271 612 l 1
 261 615 255 616 246 616 c 0
 216 616 205 605 205 574 c 2
 205 330 l 1
EndSplineSet
EndChar

StartChar: uni019a
Encoding: 410 410 348
Width: 393
GlyphClass: 2
Flags: W
LayerCount: 2
Back
Fore
SplineSet
129 314 m 1
 5 314 l 1
 5 431 l 1
 129 431 l 1
 129 754 l 1
 263 754 l 1
 263 431 l 1
 388 431 l 1
 388 314 l 1
 263 314 l 1
 263 -25 l 1
 129 -25 l 1
 129 314 l 1
EndSplineSet
EndChar

StartChar: lambdastroke
Encoding: 411 411 349
Width: 600
GlyphClass: 2
Flags: W
AnchorPoint: "Anchor-5" 475 550 basechar 0
AnchorPoint: "Anchor-3" 363 670 basechar 0
LayerCount: 2
Back
Fore
SplineSet
283 334 m 1
 161.000976562 -2 l 1
 17.0009765625 -2 l 1
 195.436523438 461.575195312 l 1
 50.0009765625 371 l 1
 50.0009765625 460 l 1
 202.58203125 554.638671875 l 1
 183.044921875 604.795898438 163.869140625 610 138.000976562 610 c 0
 107.000976562 610 105.000976562 603 59.0009765625 599 c 1
 74.0009765625 721 l 1
 107.000976562 733 131.000976562 739 150.000976562 739 c 0
 235.686523438 739 276.9765625 685.232421875 306.783203125 619.271484375 c 1
 445 705 l 1
 445 617 l 1
 334.865234375 548.41015625 l 1
 341 532 l 1
 487 143 l 2
 497.1171875 116.043945312 500 113 505 113 c 0
 518 113 548 131 553 134 c 1
 586 22 l 1
 540 -2 505 -13 479 -13 c 0
 415 -13 397.220703125 27.08203125 379 76 c 2
 379 76 287 323 283 334 c 1
EndSplineSet
EndChar

StartChar: uni019C
Encoding: 412 412 350
Width: 978
GlyphClass: 2
Flags: W
LayerCount: 2
Back
Fore
SplineSet
898 0 m 1
 749 0 l 1
 749 72 l 1
 700 13 657 -10 591 -10 c 0
 519 -10 461 21 433 76 c 1
 388 16 337 -10 264 -10 c 0
 148 -10 80 57 80 169 c 2
 80 729 l 1
 230 729 l 1
 230 193 l 2
 230 147 261 118 311 118 c 0
 375 118 414 161 414 231 c 2
 414 729 l 1
 564 729 l 1
 564 193 l 2
 564 147 595 118 645 118 c 0
 710 118 748 161 748 231 c 2
 748 729 l 1
 898 729 l 1
 898 0 l 1
EndSplineSet
EndChar

StartChar: uni019D
Encoding: 413 413 351
Width: 748
GlyphClass: 2
Flags: W
LayerCount: 2
Back
Fore
SplineSet
77 729 m 1
 229 729 l 1
 518 233 l 1
 518 729 l 1
 668 729 l 1
 668 0 l 1
 518 0 l 1
 226 502 l 1
 226 -94 l 2
 226 -182 190 -218 103 -218 c 0
 83 -218 48 -216 20 -213 c 1
 20 -101 l 1
 30 -104 27 -105 36 -105 c 0
 66 -105 77 -94 77 -63 c 2
 77 729 l 1
EndSplineSet
EndChar

StartChar: uni019E
Encoding: 414 414 352
Width: 613
GlyphClass: 2
Flags: W
LayerCount: 2
Back
Fore
SplineSet
65 540 m 1
 205 540 l 1
 205 462 l 1
 245 522 294 549 367 549 c 0
 482 549 548 481 548 362 c 2
 548 -201 l 1
 408 -201 l 1
 408 333 l 2
 408 397 378 430 318 430 c 0
 250 430 205 388 205 324 c 2
 205 0 l 1
 65 0 l 1
 65 540 l 1
EndSplineSet
EndChar

StartChar: Obar
Encoding: 415 415 353
Width: 782
GlyphClass: 2
Flags: W
LayerCount: 2
Back
Fore
SplineSet
390 741 m 0
 638.223632812 741 742 542.786132812 742 354 c 0
 742 225.959960938 671.799804688 -23 391 -23 c 0
 142.646484375 -23 40 178.762695312 40 359 c 0
 40 544.997070312 148.514648438 741 390 741 c 0
195 293 m 1
 215 178 288 105 391 105 c 0
 493 105 568 179 587 293 c 1
 195 293 l 1
587 418 m 1
 569 539 497 613 391 613 c 0
 286 613 212 537 194 418 c 1
 587 418 l 1
EndSplineSet
EndChar

StartChar: Ohorn
Encoding: 416 416 354
Width: 791
GlyphClass: 3
Flags: W
AnchorPoint: "Anchor-4" 463 0 basechar 0
AnchorPoint: "Anchor-3" 391 730 basechar 0
AnchorPoint: "Anchor-2" 394 0 basechar 0
LayerCount: 2
Back
Fore
SplineSet
391 613 m 0
 270 613 190 512 190 359 c 0
 190 206 270 105 391 105 c 0
 511 105 592 206 592 355 c 0
 592 513 514 613 391 613 c 0
40 359 m 0
 40 581 178 741 390 741 c 0
 489.96875 741 574.225585938 706.206054688 635.216796875 644.9140625 c 1
 646.40625 664.014648438 652 688.7109375 652 719 c 0
 652 734 651 744 648 763 c 1
 790 763 l 1
 791 755 791 750 791 746 c 0
 791 682 748.220703125 626 675.220703125 596 c 1
 718.087890625 532.024414062 742 449.541015625 742 354 c 0
 742 145 610 -23 391 -23 c 0
 177 -23 40 137 40 359 c 0
EndSplineSet
Ligature2: "'ccmp' Glyph Composition/Decomposition in Latin lookup 10 per glyph data 0" O horncomb
Substitution2: "'c2sc' Capitals to Small Capitals in Latin lookup 4 subtable" sc.ohorn
EndChar

StartChar: ohorn
Encoding: 417 417 355
Width: 658
GlyphClass: 3
Flags: W
AnchorPoint: "Anchor-4" 384 0 basechar 0
AnchorPoint: "Anchor-3" 310 550 basechar 0
AnchorPoint: "Anchor-2" 312 0 basechar 0
LayerCount: 2
Back
Fore
SplineSet
307 436 m 0
 231 436 180 366 180 263 c 0
 180 160 231 90 307 90 c 0
 382 90 434 160 434 261 c 0
 434 367 384 436 307 436 c 0
541 418 m 1
 563 375 574 321 574 259 c 0
 574 86 471 -23 307 -23 c 0
 141 -23 40 85 40 263 c 0
 40 440 141 549 306 549 c 0
 391 549 459 521 505 471 c 1
 515 489 519 513 519 541 c 0
 519 556 518 566 515 585 c 1
 657 585 l 1
 658 577 658 572 658 568 c 0
 658 504 616 448 543 418 c 1
 541 418 l 1
EndSplineSet
Ligature2: "'ccmp' Glyph Composition/Decomposition in Latin lookup 10 per glyph data 0" o horncomb
Substitution2: "'smcp' Lowercase to Small Capitals in Latin lookup 2 subtable" sc.ohorn
EndChar

StartChar: uni01A2
Encoding: 418 418 356
Width: 1076
GlyphClass: 2
Flags: W
LayerCount: 2
Back
Fore
SplineSet
391 613 m 0
 270 613 190 512 190 359 c 0
 190 206 270 105 391 105 c 0
 511 105 592 206 592 355 c 0
 592 513 514 613 391 613 c 0
40 359 m 0
 40 581 178 741 390 741 c 0
 482 741 555 717 615 664 c 1
 642 698 684 744 785 744 c 0
 914 744 996 675 996 539 c 2
 996 -200 l 1
 846 -200 l 1
 846 539 l 2
 846 594 834 624 788 624 c 0
 748 624 730 596 730 529 c 2
 730 463 l 1
 738 429 742 392 742 354 c 0
 742 145 608 -23 391 -23 c 0
 177 -23 40 139 40 359 c 0
EndSplineSet
EndChar

StartChar: uni01a3
Encoding: 419 419 357
Width: 847
GlyphClass: 2
Flags: W
AnchorPoint: "Anchor-3" 277 538 basechar 0
AnchorPoint: "Anchor-2" 278 0 basechar 0
LayerCount: 2
Back
Fore
SplineSet
782 319 m 2
 782 -218 l 1
 648 -218 l 1
 648 339 l 2
 648 384.748046875 627 431 597 431 c 0
 578 431 558 416 547.924804688 402.646484375 c 1
 565.044921875 362.200195312 574 314.037109375 574 259 c 0
 574 86 471 -23 307 -23 c 0
 141 -23 40 85 40 263 c 0
 40 440 141 549 306 549 c 0
 393.180664062 549 461.732421875 520.526367188 507.676757812 467.833007812 c 1
 536 510 582 550 623 550 c 0
 733 550 782 444.260742188 782 319 c 2
307 436 m 0
 231 436 180 366 180 263 c 0
 180 160 231 90 307 90 c 0
 382 90 434 160 434 261 c 0
 434 367 384 436 307 436 c 0
EndSplineSet
EndChar

StartChar: uni01A4
Encoding: 420 420 358
Width: 876
GlyphClass: 2
Flags: W
LayerCount: 2
Back
Fore
SplineSet
429 385 m 1
 569 385 l 2
 649 385 686 420 686 494 c 0
 686 569 649 604 569 604 c 2
 429 604 l 1
 429 385 l 1
223 316 m 1
 86 316 40 412 40 520 c 0
 40 658.786132812 120.498046875 729 263 729 c 2
 601 729 l 2
 753 729 836 649 836 503 c 0
 836 355 750 260 616 260 c 2
 429 260 l 1
 429 0 l 1
 279 0 l 1
 279 579 l 1
 263 579 l 2
 198.467773438 579 168 561.609375 168 514 c 0
 168 474 196 446 223 446 c 1
 223 316 l 1
EndSplineSet
EndChar

StartChar: uni01A5
Encoding: 421 421 359
Width: 621
GlyphClass: 2
Flags: W
LayerCount: 2
Back
Fore
SplineSet
323 432 m 0
 253 432 205 363 205 262 c 0
 205 161 253 93 323 93 c 0
 392 93 441 162 441 260 c 0
 441 363 394 432 323 432 c 0
355 549 m 0
 493 549 581 423 581 262 c 0
 581 98 485 -24 355 -24 c 0
 287 -24 239 4 205 64 c 1
 205 -218 l 1
 65 -218 l 1
 65 564 l 2
 65 652 105 688 192 688 c 0
 212 688 241 686 269 683 c 1
 269 571 l 1
 259 574 255 575 246 575 c 0
 218 575 205 566 205 540 c 2
 205 460 l 1
 239 520 287 549 355 549 c 0
EndSplineSet
EndChar

StartChar: uni01A6
Encoding: 422 422 360
Width: 647
GlyphClass: 2
Flags: W
LayerCount: 2
Back
Fore
SplineSet
230 297 m 1
 352 297 l 2
 406 297 431 314 431 360 c 0
 431 405 406 430 352 430 c 2
 230 430 l 1
 230 297 l 1
230 187 m 1
 230 0 l 1
 80 0 l 1
 80 729 l 1
 230 729 l 1
 230 540 l 1
 381 540 l 2
 532 540 570 441 570 375 c 0
 570 317 546 265 516 238 c 1
 578 211 593 146 593 77 c 2
 593 -92 l 2
 593 -144 612 -154 627 -163 c 1
 627 -190 l 1
 466 -190 l 1
 447 -155 443 -134 443 -85 c 2
 443 89 l 2
 443 146 386 187 330 187 c 2
 230 187 l 1
EndSplineSet
EndChar

StartChar: uni01A7
Encoding: 423 423 361
Width: 681
GlyphClass: 2
Flags: W
LayerCount: 2
Back
Fore
SplineSet
66 507 m 1
 66 706 239 741 352 741 c 0
 527 741 628 659 628 517 c 0
 628 404 571 349 423 321 c 2
 321 301 l 2
 221 282 184 254 184 195 c 0
 184 134 240 97 331 97 c 0
 433 97 490 140 495 218 c 1
 641 218 l 1
 632 62 525 -23 339 -23 c 0
 151 -23 40 65 40 213 c 0
 40 328 98 388 233 414 c 2
 347 436 l 2
 454 457 485 478 485 531 c 0
 485 586 436 621 359 621 c 0
 264 621 211 581 206 507 c 1
 66 507 l 1
EndSplineSet
EndChar

StartChar: uni01A8
Encoding: 424 424 362
Width: 561
GlyphClass: 2
Flags: W
LayerCount: 2
Back
Fore
SplineSet
389 157 m 1
 526 157 l 1
 522 39 435 -23 271 -23 c 0
 82 -23 35 85 35 160 c 0
 35 230 70 275 141 296 c 2
 318 347 l 2
 357 359 367 367 367 389 c 0
 367 419 335 439 286 439 c 0
 219 439 186 415 185 366 c 1
 50 366 l 1
 52 480 140 549 285 549 c 0
 422 549 507 480 507 369 c 0
 507 263 420 246 389 236 c 2
 222 184 l 2
 187 173 175 162 175 140 c 0
 175 107 214 87 279 87 c 0
 367 87 381 120 389 157 c 1
EndSplineSet
EndChar

StartChar: uni01A9
Encoding: 425 425 363
Width: 676
GlyphClass: 2
Flags: W
LayerCount: 2
Back
Fore
SplineSet
470 390 m 1
 247 128 l 1
 676 128 l 1
 676 0 l 1
 60 0 l 1
 60 117 l 1
 289 390 l 1
 94 616 l 1
 94 729 l 1
 656 729 l 1
 656 601 l 1
 288 601 l 2
 289 600 470 390 470 390 c 1
EndSplineSet
EndChar

StartChar: uni01aa
Encoding: 426 426 364
Width: 441
GlyphClass: 2
Flags: W
LayerCount: 2
Back
Fore
SplineSet
184 628 m 0
 163.549804688 628 147 610.700195312 147 593 c 0
 147 574.357421875 163.893554688 557 184 557 c 0
 204.450195312 557 221 574.299804688 221 592 c 0
 221 613.561523438 204.526367188 628 184 628 c 0
184 445 m 0
 102.881835938 445 35.9990234375 511.881835938 35.9990234375 593 c 0
 35.9990234375 672.390625 102.9140625 740 183.999023438 740 c 0
 272.78125 740 331.999023438 681.327148438 331.999023438 591 c 2
 331.999023438 -46 l 2
 331.999023438 -79.4306640625 340.249023438 -90 375.999023438 -90 c 0
 380.959960938 -90 411.81640625 -88.0263671875 420.999023438 -87.486328125 c 1
 420.999023438 -205.495117188 l 1
 400.90234375 -209.514648438 l 2
 388.05078125 -212.084960938 382.084960938 -213 368 -213 c 0
 260.25 -213 199 -164.71484375 199 -79 c 2
 199 445.708984375 l 1
 194.256835938 445.24609375 189.26953125 445 184 445 c 0
EndSplineSet
EndChar

StartChar: uni01AB
Encoding: 427 427 365
Width: 333
GlyphClass: 2
Flags: W
LayerCount: 2
Back
Fore
SplineSet
301 529 m 1
 301 436 l 1
 223 436 l 1
 223 142 l 2
 223 94 232 83 269 83 c 0
 279 83 287 84 301 86 c 1
 301 -94 l 2
 301 -182 265 -218 178 -218 c 0
 158 -218 123 -216 95 -213 c 1
 95 -101 l 1
 105 -104 111 -105 120 -105 c 0
 150 -105 161 -94 161 -63 c 2
 161 -15 l 1
 109 0 83 40 83 104 c 2
 83 436 l 1
 14 436 l 1
 14 529 l 1
 83 529 l 1
 83 674 l 1
 223 674 l 1
 223 529 l 1
 301 529 l 1
EndSplineSet
EndChar

StartChar: uni01AC
Encoding: 428 428 366
Width: 715
GlyphClass: 2
Flags: W
LayerCount: 2
Back
Fore
SplineSet
225 604 m 2
 170 604 166 579 166 549 c 0
 166 519 168 491 235 491 c 1
 235 366 l 1
 116.48828125 366 40 429.043945312 40 550 c 0
 40 644 89 729 225 729 c 2
 695 729 l 1
 695 604 l 1
 482 604 l 1
 482 0 l 1
 332 0 l 1
 332 604 l 1
 225 604 l 2
EndSplineSet
EndChar

StartChar: uni01AD
Encoding: 429 429 367
Width: 333
GlyphClass: 2
Flags: W
LayerCount: 2
Back
Fore
SplineSet
301 529 m 1
 301 436 l 1
 223 436 l 1
 223 142 l 2
 223 94 232 83 269 83 c 0
 279 83 287 84 301 86 c 1
 301 -12 l 1
 276 -20 251 -23 220 -23 c 0
 128 -23 83 19 83 104 c 2
 83 436 l 1
 14 436 l 1
 14 529 l 1
 83 529 l 1
 83 605 l 2
 83 693 119 729 206 729 c 0
 226 729 261 727 289 724 c 1
 289 612 l 1
 279 615 273 616 264 616 c 0
 234 616 223 605 223 574 c 2
 223 529 l 1
 301 529 l 1
EndSplineSet
EndChar

StartChar: uni01AE
Encoding: 430 430 368
Width: 624
GlyphClass: 2
Flags: W
LayerCount: 2
Back
Fore
SplineSet
241 -94 m 2
 241 604 l 1
 20 604 l 1
 20 729 l 1
 604 729 l 1
 604 604 l 1
 391 604 l 1
 391 -63 l 2
 391 -93 405 -105 425 -105 c 0
 431 -105 439 -103 447 -101 c 1
 447 -213 l 1
 419 -216 384 -218 364 -218 c 0
 277 -218 241 -182 241 -94 c 2
EndSplineSet
EndChar

StartChar: Uhorn
Encoding: 431 431 369
Width: 773
GlyphClass: 3
LigCaretCntFixed: 1
Flags: W
AnchorPoint: "Anchor-4" 455 0 basechar 0
AnchorPoint: "Anchor-3" 366 730 basechar 0
AnchorPoint: "Anchor-2" 374 1 basechar 0
LayerCount: 2
Back
Fore
SplineSet
369 -23 m 0
 246 -23 80 29 80 235 c 2
 80 729 l 1
 230 729 l 1
 230 235 l 2
 230 147 275 105 369 105 c 0
 463 105 508 147 508 235 c 2
 508 729 l 1
 511 729 l 2
 593 729 634 770 634 852 c 0
 634 867 633 877 630 896 c 1
 772 896 l 1
 773 888 773 883 773 879 c 0
 773 815 731 759 658 729 c 1
 658 235 l 2
 658 29 492 -23 369 -23 c 0
EndSplineSet
Ligature2: "'ccmp' Glyph Composition/Decomposition in Latin lookup 10 per glyph data 0" U horncomb
Substitution2: "'c2sc' Capitals to Small Capitals in Latin lookup 4 subtable" sc.uhorn
LCarets2: 1 15248
EndChar

StartChar: uhorn
Encoding: 432 432 370
Width: 666
GlyphClass: 3
LigCaretCntFixed: 1
Flags: W
AnchorPoint: "Anchor-4" 488 0 basechar 0 {150-150 0} {}
AnchorPoint: "Anchor-3" 313 550 basechar 0
AnchorPoint: "Anchor-2" 295 0 basechar 0
LayerCount: 2
Back
Fore
SplineSet
548 0 m 1
 408 0 l 1
 408 64 l 1
 368 4 319 -23 246 -23 c 0
 131 -23 65 45 65 164 c 2
 65 540 l 1
 205 540 l 1
 205 193 l 2
 205 128 235 96 295 96 c 0
 363 96 408 138 408 202 c 2
 408 540 l 1
 490 540 524 581 524 663 c 0
 524 678 523 688 520 707 c 1
 662 707 l 1
 663 699 663 694 663 690 c 0
 663 626 621 570 548 540 c 1
 548 0 l 1
EndSplineSet
Ligature2: "'ccmp' Glyph Composition/Decomposition in Latin lookup 10 per glyph data 0" u horncomb
Substitution2: "'smcp' Lowercase to Small Capitals in Latin lookup 2 subtable" sc.uhorn
LCarets2: 1 -11392
EndChar

StartChar: uni01B1
Encoding: 433 433 371
Width: 799
GlyphClass: 2
Flags: W
LayerCount: 2
Back
Fore
SplineSet
143 333 m 0
 143 197 227 87 365 87 c 0
 492 87 576 196 576 336 c 0
 576 479 496 557 402 596 c 1
 402 714 l 1
 719 714 l 1
 719 592 l 1
 596 592 l 1
 667 533 714 450 714 335 c 0
 714 142 582 -35 367 -35 c 0
 138 -35 0 129 0 331 c 0
 0 451 48 535 122 592 c 1
 2 592 l 1
 2 714 l 1
 330 714 l 1
 330 597 l 1
 178 536 143 432 143 333 c 0
EndSplineSet
EndChar

StartChar: uni01b2
Encoding: 434 434 372
Width: 722
GlyphClass: 2
Flags: W
LayerCount: 2
Back
Fore
SplineSet
65 243 m 2
 65 731.000976562 l 1
 208 731.000976562 l 1
 208 203.000976562 l 2
 208 147.000976562 266.978515625 120.000976562 308.999023438 120.000976562 c 0
 400.999023438 120.000976562 530.00390625 153.000976562 530.00390625 333.689453125 c 0
 530.00390625 334.146484375 530.000976562 335.459960938 529.999023438 335.916992188 c 0
 529.3203125 484.010742188 483.546875 556.603515625 394.126953125 692.241210938 c 2
 368.573242188 731.000976562 l 1
 535.520507812 731.000976562 l 1
 543.01953125 720.974609375 l 2
 637.5 594.658203125 673 480.7734375 673 346 c 0
 673 92.9619140625 543.603515625 -12 339 -12 c 0
 203.287109375 -12 65 33 65 243 c 2
EndSplineSet
EndChar

StartChar: uni01B3
Encoding: 435 435 373
Width: 839
GlyphClass: 2
Flags: W
LayerCount: 2
Back
Fore
SplineSet
661 546 m 0
 661 588 619 596 608 596 c 0
 584 596 562 577 544 540 c 2
 409 270 l 1
 409 0 l 1
 259 0 l 1
 259 270 l 1
 17 729 l 1
 184 729 l 1
 333 407 l 1
 417 601 l 2
 457 686 518 729 592 729 c 0
 692.690429688 729 809 678 809 530 c 0
 809 492 796 456 777 415 c 1
 642 480 l 1
 655 507 661 529 661 546 c 0
EndSplineSet
EndChar

StartChar: yhook
Encoding: 436 436 374
Width: 643
GlyphClass: 2
Flags: W
LayerCount: 2
Back
Fore
SplineSet
282 147 m 1
 408 589 l 2
 431 670 492 730 556 730 c 0
 582 730 610 729 638 726 c 1
 637 621 l 1
 624 623 609 624 596 624 c 0
 581 624 564 615 538 540 c 2
 345 -10 l 2
 312 -104 302 -219 150 -219 c 0
 131 -219 112.333007812 -217.666992188 86 -212 c 1
 86 -110 l 1
 104 -115 113 -116 124 -116 c 0
 153 -116 210 -96 210 -22 c 1
 9 540 l 1
 163 540 l 1
 282 147 l 1
EndSplineSet
EndChar

StartChar: uni01B5
Encoding: 437 437 375
Width: 611
GlyphClass: 2
Flags: W
LayerCount: 2
Back
Fore
SplineSet
578 729 m 1
 578 604 l 1
 419 399 l 1
 526 399 l 1
 526 332 l 1
 367 332 l 1
 206 125 l 1
 578 125 l 1
 578 0 l 1
 30 0 l 1
 30 125 l 1
 191 332 l 1
 88 332 l 1
 88 399 l 1
 243 399 l 1
 403 604 l 1
 30 604 l 1
 30 729 l 1
 578 729 l 1
EndSplineSet
EndChar

StartChar: uni01B6
Encoding: 438 438 376
Width: 500
GlyphClass: 2
Flags: W
AnchorPoint: "Anchor-3" 250 550 basechar 0
LayerCount: 2
Back
Fore
SplineSet
459 540 m 1
 459 427 l 1
 363 313 l 1
 414 313 l 1
 414 246 l 1
 306 246 l 1
 194 113 l 1
 468 113 l 1
 468 0 l 1
 21 0 l 1
 21 113 l 1
 134 246 l 1
 81 246 l 1
 81 313 l 1
 191 313 l 1
 288 427 l 1
 39 427 l 1
 39 540 l 1
 459 540 l 1
EndSplineSet
EndChar

StartChar: Yogh
Encoding: 439 439 377
Width: 567
GlyphClass: 2
Flags: W
LayerCount: 2
Back
Fore
SplineSet
367 393 m 1
 485 363 527 278 527 204 c 0
 527 66 430 -23 279 -23 c 0
 134 -23 41 66 40 208 c 1
 176 208 l 1
 180 135 216 97 282 97 c 0
 343 97 387 142 387 204 c 0
 387 256 357 297 310 310 c 0
 286 316 277 317 228 317 c 1
 228 411 l 1
 336 604 l 1
 81 604 l 1
 81 729 l 1
 482 729 l 1
 482 604 l 1
 367 393 l 1
EndSplineSet
EndChar

StartChar: uni01B8
Encoding: 440 440 378
Width: 556
GlyphClass: 2
Flags: W
LayerCount: 2
Back
Fore
SplineSet
29 204 m 0
 29 276 70 362 189 393 c 1
 74 604 l 1
 74 729 l 1
 475 729 l 1
 475 604 l 1
 220 604 l 1
 328 411 l 1
 328 317 l 1
 279 317 270 316 246 310 c 0
 199 297 169 256 169 204 c 0
 169 142 213 97 274 97 c 0
 340 97 376 135 380 208 c 1
 516 208 l 1
 515 66 422 -23 277 -23 c 0
 126 -23 29 66 29 204 c 0
EndSplineSet
EndChar

StartChar: uni01b9
Encoding: 441 441 379
Width: 645
GlyphClass: 2
Flags: W
LayerCount: 2
Back
Fore
SplineSet
207.623046875 292.853515625 m 1
 77.998046875 425.170898438 l 1
 77.998046875 523.999023438 l 1
 568.998046875 523.999023438 l 1
 568.998046875 400.999023438 l 1
 273.072265625 400.999023438 l 1
 407.60546875 289.07421875 l 1
 407.60546875 179.999023438 l 1
 321.836914062 179.999023438 l 2
 212.459960938 179.999023438 178.497070312 138.798828125 178.497070312 76.9990234375 c 0
 178.497070312 15.91015625 233.280273438 -15.0009765625 321.836914062 -15.0009765625 c 0
 409.28125 -15.0009765625 460.86328125 8.9365234375 467.576171875 88.9072265625 c 2
 469.188476562 135.999023438 l 1
 610.849609375 135.999023438 l 1
 608.936523438 85.9990234375 l 1
 596.700195312 -69.5283203125 507.452148438 -143.000976562 325.362304688 -143.000976562 c 0
 139.342773438 -143.000976562 35 -53.9970703125 35 77.9990234375 c 0
 35 193.860351562 96.2255859375 266.595703125 207.623046875 292.853515625 c 1
EndSplineSet
EndChar

